<svg xmlns="http://www.w3.org/2000/svg" viewBox="0 0 195.01 90.34"><defs><style>.cls-1{fill:#231f20;}.cls-2{fill:none;}</style></defs><g id="Layer_2" data-name="Layer 2"><g id="Layer_1-2" data-name="Layer 1"><path class="cls-1" d="M18.51,40.06C17.57,38,15.78,37.14,13,37.14H9.66v25H0V.7H9.66a8.78,8.78,0,0,1,8.78,8.78v2.11h0c-.77-1.44-2.11-2.11-4.13-2.11H9.66V29.16A8.87,8.87,0,0,1,18.51,38v2Z"/><line class="cls-2" x1="11.51" y1="28.36" x2="11.51" y2="28.54"/><path class="cls-1" d="M11.51,28.36h1.92c3.6,0,5.8-1.58,5.8-6.5V9.48A9.58,9.58,0,0,0,13.47.7h1.11c10,0,14.31,4.66,14.31,14.14v4.83c0,6.32-2,10.36-6.33,12.38v.17c4.83,2,6.42,6.59,6.42,13V54.7c0,3,.08,5.18,1.05,7.46H20.19c-.52-1.58-.87-2.54-.87-7.55V38h0a9.66,9.66,0,0,0-7.81-9.48"/><path class="cls-1" d="M34.27,47.41v-32C34.27,5.62,39.45,0,48.93,0a19.8,19.8,0,0,1,4.2.42h0V10.94h0a4.39,4.39,0,0,0-4.2-2.16c-3.07,0-5,1.67-5,6.06V48c0,4.39,1.93,6,5,6a4.61,4.61,0,0,0,3.73-1.47h0a14,14,0,0,1-8.91,9.59C37.58,60.44,34.27,55.28,34.27,47.41Z"/><polygon class="cls-1" points="178.01 62.16 178.01 62.16 178.01 62.16 178.01 62.16"/><path class="cls-1" d="M117.12,62.16h2c-1.46-.82-2-2.23-2-4.11"/><path class="cls-1" d="M190.34,62.29a7.17,7.17,0,0,0-1.39.31,23.19,23.19,0,0,0-2.89,1.24,12.89,12.89,0,0,1-2.93,1.09,6.71,6.71,0,0,1-1.11.15c-.69-.08-1.52-.16-2.5-.19-1.49-.06-3.3,0-5.36.12s-4.36.32-6.88.35c-5.05.12-10.95,0-17.29-.24-5.55-.22-11.43-.55-17.37-.84h-.17l-2.36-.11c-3.4-.16-6.81-.3-10.19-.38-1.68-.05-3.36-.07-5-.08s-3.33,0-4.94.08c-3.23.09-6.33.24-9.25.31s-5.67.08-8.17,0a51.46,51.46,0,0,1-6.75-.75c-.88-.17-1.7-.35-2.45-.55l-.53-.21A14.75,14.75,0,0,1,74,49V.62h0c-6.28,1.71-9.65,6.9-9.65,14.83V49a.37.37,0,0,1-.74,0V15.45c0-7.93-3.37-13.12-9.65-14.83h0V49a14.73,14.73,0,0,1-3,8.93l-.82.9c-.39.43-.82.88-1.26,1.32a14.86,14.86,0,0,1-3.72,2.36,14.53,14.53,0,0,1-2.8.9l-.51.08c-.81.11-1.66.19-2.55.26h0l-2.05.15-1.26.1-.61,0-.59,0c-.79.06-1.58.11-2.38.14-3.21.14-6.48,0-9.57-.06s-6-.12-8.52,0l-1.78.1c-.55,0-1.07.06-1.57.08-1,0-1.86,0-2.57,0H6s-1.37,0-2.67.06-2.59.13-2.59.14q-.42,0,0,.06s1.29.06,2.58.17L5.38,65l.66.09,2.23.31,1.41.18-.61.16c-.87.22-1.75.42-2.4.59s-1.08.32-1.08.32c-.36.12-.35.16,0,.09,0,0,.44-.08,1.1-.16s1.55-.16,2.45-.26a17.46,17.46,0,0,0,2.51-.42l.29-.08.5,0,1.75.14c2.42.23,5.23.65,8.27,1.16l1.17.2a39.89,39.89,0,0,1-4.83.45,22.55,22.55,0,0,0-5.19.72,7.13,7.13,0,0,0-2.15,1c-.34.24-.47.4-.45.43s.2-.07.55-.25a6.59,6.59,0,0,1,2.17-.67,22.4,22.4,0,0,1,5.06,0,42.57,42.57,0,0,0,4.91.22,34.37,34.37,0,0,1-3.58,2.55,12.89,12.89,0,0,1-1.82.94c-.66.28-.64.36.06.17a14.66,14.66,0,0,0,2-.69,38.28,38.28,0,0,0,4.09-2.14c.72-.42,1.44-.82,2.13-1.16a16.57,16.57,0,0,1,1.9-.81h0c1.23.17,2.47.32,3.74.45.84.08,1.7.15,2.55.2l.64,0,.63,0,1.18.07,2,.12c-.73.64-1.43,1.28-2.07,1.9h0c-.06,0-.91.5-2.2,1a13.54,13.54,0,0,1-2.22.67c-.21,0-.41.07-.62.09s-.45.05-.65.05a13.39,13.39,0,0,1-1.38-.05,9.64,9.64,0,0,0-1.52,0c-.27,0-.49.07-.73.11l-.69.13a14.78,14.78,0,0,0-2.41.72,15.16,15.16,0,0,0-2.18,1c-.73.4-.68.48.08.18a19.33,19.33,0,0,1,2.26-.7,14.1,14.1,0,0,1,2.37-.36l.67,0c.22,0,.46,0,.67,0A8.07,8.07,0,0,1,29.9,74c.47.09,1,.2,1.48.25.27,0,.52,0,.76,0h.75c.38,0,.73-.07,1.08-.11-.5.49-1,.94-1.39,1.31a13.81,13.81,0,0,1-1.32,1,10.47,10.47,0,0,1-1.26.72c-.83.41-1.26.65-1.22.8s.53.17,1.49,0a12.28,12.28,0,0,0,1.51-.45,14.94,14.94,0,0,0,1.66-.76c.62-.32,1.3-.73,2-1.17s1.45-1,2.25-1.45l1-.58c0,.34,0,.68,0,1a16.78,16.78,0,0,1-.21,2.76,6,6,0,0,1-.35,1.2c-.17.4-.1.45.17.09a7.41,7.41,0,0,0,.63-1.15,17.21,17.21,0,0,0,.87-2.75,21.54,21.54,0,0,1,.61-2.16,32.78,32.78,0,0,1,5.45-2.49,26.4,26.4,0,0,1,2.91-.82l.76-.16.84-.2L52,68.48c.7-.19,1.39-.42,2.08-.67l-.52.54a47.67,47.67,0,0,0-3.92,4.39A22.86,22.86,0,0,0,48.07,75l0,0a26.6,26.6,0,0,1-2.66,1.54c-.41.21-.83.41-1.25.6s-.85.39-1.26.6a12.76,12.76,0,0,0-2.13,1.29,8.45,8.45,0,0,0-1.27,1.2c-.27.32-.41.51-.41.51-.25.33-.34.52-.31.54s.18-.12.46-.41a8.93,8.93,0,0,1,1.83-1.4,12.16,12.16,0,0,1,2.16-.94c.42-.14.85-.27,1.3-.4s.91-.28,1.37-.44l.94-.34a23.17,23.17,0,0,0-1,3.2c-.21.81-.34,1.26-.34,1.27-.23.78-.32,1.2-.2,1.26s.42-.26.83-1c0,0,.25-.43.64-1.17a20.15,20.15,0,0,1,1.74-2.88c.2-.25.44-.54.69-.82s.5-.56.78-.85a21.39,21.39,0,0,1,1.76-1.62l.11-.1a38.84,38.84,0,0,1,3.32-2.38v.07a11.69,11.69,0,0,0,.14,2.2c.09.66.2,1.28.26,1.86,0,.27.05.61.07.89s0,.58,0,.86a14.67,14.67,0,0,1-.4,3.12c-.21.92-.44,1.69-.6,2.23l-.25.85c-.33,1.07-.14,1.15.42.19l.45-.78c.28-.49.68-1.19,1.12-2.09a16.46,16.46,0,0,0,1.2-3.26c.08-.32.15-.64.21-1s.1-.62.15-1c.08-.69.12-1.36.18-2a8.22,8.22,0,0,1,.27-1.66,6.17,6.17,0,0,1,.58-1.34c.18-.3.37-.59.58-.88a.91.91,0,0,1,0,.17,21.63,21.63,0,0,0,.31,5.11,14.55,14.55,0,0,0,.75,2.53c.08.21.17.4.25.57l.24.5.48,1c.65,1.27,1.27,2.33,1.69,3.25a12.19,12.19,0,0,1,.8,2.33c.14.59.19,1,.19,1,.1.6.23.93.4.94s.37-.28.53-.9c0,0,.1-.36.22-1a13.65,13.65,0,0,0,.22-2.81c0-1.19-.19-2.51-.27-3.82,0-.34,0-.67,0-1l0-.52v-.46a9.76,9.76,0,0,1,.24-1.72,16.08,16.08,0,0,1,1.26-3.29c.53-1.11,1.13-2.28,1.62-3.42,0-.1.09-.21.13-.31.23.35.46.7.72,1.06s.64.87,1,1.31A14.77,14.77,0,0,1,71,73a12.22,12.22,0,0,1,.63,3.52V77c0,.17,0,.36,0,.5,0,.3,0,.6-.09.91a15.49,15.49,0,0,1-.41,1.86c-.35,1.24-.78,2.45-1,3.53a12,12,0,0,0-.43,2.67,6.28,6.28,0,0,0,0,1c0,.64.21.93.31.93s.19-.32.3-.9a6.52,6.52,0,0,1,.23-.91,11.75,11.75,0,0,1,1-2.22c.51-.89,1.22-1.88,1.94-3.08.2-.32.39-.65.58-1a16,16,0,0,0,.82,1.41,11.43,11.43,0,0,0,1.81,2.16c.55.51.95.82.95.82.34.27.37.23.08-.08a12.26,12.26,0,0,1-2.27-3.22c-.34-.75-.62-1.53-.85-2.2a10.09,10.09,0,0,0,.38-1l.19-.55c.06-.18.12-.39.17-.59a14.8,14.8,0,0,0,.33-1.55l.4.21A24.4,24.4,0,0,0,79,77a29.43,29.43,0,0,0,3.21.92,7.6,7.6,0,0,1,.86.7,5.4,5.4,0,0,1,1.2,1.64,7.49,7.49,0,0,1,.62,2.38c.11.88.14,1.79.21,2.65a20.52,20.52,0,0,0,.28,2.35,13.18,13.18,0,0,0,.6,2.22c.14.37.24.54.28.53s0-.21-.09-.59a12.36,12.36,0,0,1-.28-2.22,20,20,0,0,1,0-2.29c0-.85.14-1.76.16-2.71a10.92,10.92,0,0,0-.12-1.88c1,.83,2.22,1.72,3.45,2.54A14.53,14.53,0,0,1,92,85.25a27.64,27.64,0,0,1,1.94,2.21c1.07,1.36,1.8,2.28,1.8,2.27.64.78.73.71.21-.14,0,0-.59-1-1.48-2.5a27,27,0,0,0-1.66-2.53A16,16,0,0,0,90.32,82c-1.24-1.09-2.4-2.28-3.4-3.35,1.58.16,3.16.24,4.72.28,1.94,0,3.85.06,5.72.08A12.23,12.23,0,0,1,100,80.05a17.42,17.42,0,0,1,1.58,1c.07.13.15.26.22.4a7.34,7.34,0,0,1,.7,2.12,7.14,7.14,0,0,1,.09,1.12,3.81,3.81,0,0,1-.19,1.06,17.41,17.41,0,0,1-.77,1.9,10.06,10.06,0,0,0-.52,1.42,5.2,5.2,0,0,0-.1.57c0,.36,0,.54.06.54s0-.18.12-.51a3.74,3.74,0,0,1,.16-.52,8.28,8.28,0,0,1,.68-1.28A17.27,17.27,0,0,0,103.11,86a4.66,4.66,0,0,0,.39-1.23,6.51,6.51,0,0,0,.08-1.32,5.89,5.89,0,0,0-.1-1l1.9,1.5c.69.54,1.4,1.07,2.1,1.55,0,0,0,0,0,0a5.52,5.52,0,0,1,.76,1.67c.19.66.31,1.36.44,1.87s.23.84.23.84c.1.29.13.28.08,0,0,0-.07-.34-.12-.86s-.08-1.21-.18-1.92a7.15,7.15,0,0,0-.19-.92c.92.59,1.8,1.1,2.57,1.52.42.23.79.39,1.11.57a9,9,0,0,1,.8.5,5.9,5.9,0,0,1,.66.49c.39.34.57.53.62.49s-.08-.27-.43-.68c0,0-.21-.24-.61-.6a9.78,9.78,0,0,0-.76-.63c-.3-.23-.67-.46-1-.73-.74-.53-1.57-1.19-2.43-1.93s-1.73-1.57-2.57-2.44-1.69-1.79-2.54-2.62c-.32-.31-.63-.6-1-.88l.73.06a31.93,31.93,0,0,1,5.31.92,21.57,21.57,0,0,1,2.35.77,22.46,22.46,0,0,1,2.1,1c1.32.71,2.49,1.48,3.54,2.17s2,1.3,2.72,1.79c1.53,1,2.47,1.43,2.46,1.44,1.6.83,2.49,1,2.53.94a14,14,0,0,0-2.23-1.46s-.86-.53-2.27-1.63c-.71-.54-1.55-1.23-2.53-2s-2.11-1.68-3.43-2.55a23.2,23.2,0,0,0-2.16-1.27,26.25,26.25,0,0,0-2.47-1.07,34.81,34.81,0,0,0-5.56-1.5c-3.92-.75-8.11-1-12.15-1.5a53.77,53.77,0,0,1-5.9-1,27,27,0,0,1-5.28-1.75,22.07,22.07,0,0,1-2.27-1.21,12.7,12.7,0,0,1-1.84-1.4,9.34,9.34,0,0,1-.89-.89,71.16,71.16,0,0,0,9.72,3.41,80.1,80.1,0,0,0,13.94,2.42c1.27.12,2.56.21,3.86.27.65,0,1.3.06,2,.09l1,0h1.56c.39.11.79.24,1.21.38,1.71.57,3.69,1.37,5.78,2.31,1.05.46,2.12,1,3.22,1.49l.83.39.41.19.42.2a18.12,18.12,0,0,0,1.84.74l.77.23c.28.1.6.2,1,.3a13.77,13.77,0,0,1,3.75,1.34,3.3,3.3,0,0,1,.41.29l.39.36c.25.25.49.51.72.77.46.52.9,1,1.3,1.43a6.77,6.77,0,0,0,1.5,1.17c.29.16.45.21.46.18s-.12-.12-.37-.32a6.76,6.76,0,0,1-1.27-1.31c-.34-.43-.68-1-1.08-1.57-.19-.3-.41-.6-.64-.91-.12-.15-.23-.29-.38-.45a6,6,0,0,0-.45-.43l-.14-.11,1.47.06c1.16,0,2.25.08,3.29.16.51,0,1,.09,1.5.15s1,.1,1.42.16a23.69,23.69,0,0,1,4.25,1c1,.34,1.54.61,1.55.6a8.46,8.46,0,0,0,1.44.64s-.36-.42-1.28-1c0,0-.54-.32-1.53-.76a23.89,23.89,0,0,0-4.27-1.4c-.45-.11-.94-.19-1.4-.29s-1-.21-1.53-.3c-1.06-.18-2.18-.32-3.32-.47A23.47,23.47,0,0,1,122.23,79a13.74,13.74,0,0,1-1.53-.78l-.38-.23-.41-.23-.78-.47c-1-.61-2.09-1.22-3.12-1.8l-1.19-.65.51-.06c2.65-.32,5.22-.69,7.73-.94,1-.1,2-.18,3-.24a6.44,6.44,0,0,1,.33.69c.12.26.24.54.4.85a4.74,4.74,0,0,0,.57.88,5.25,5.25,0,0,0,1.5,1.29,5.89,5.89,0,0,0,1.53.54l1.44.32c.48.13.53,0,.09-.23,0,0-.53-.29-1.3-.7a5.35,5.35,0,0,1-1.14-.8,4,4,0,0,1-.81-1.24,6.43,6.43,0,0,1-.37-1.67h.29l.86,0,.88.06a64.78,64.78,0,0,1,12.78,2.75l2.38.68a10.06,10.06,0,0,1,2.12,2.56c.48.81.76,1.37.77,1.36.25.48.28.47.08,0,0,0-.23-.58-.65-1.43a10.87,10.87,0,0,0-1.33-2.17l1.79.48,1.12.28,1.05.26c.68.16,1.31.28,1.87.39,2.26.4,3.53.59,3.53.6,2.21.37,3.3.6,3.34.47s-1-.63-3.17-1.21c0,0-1.28-.32-3.45-.92-.55-.15-1.14-.33-1.78-.54l-1-.35-1.08-.38c-1.48-.53-3.14-1.18-5-1.89s-3.81-1.49-6-2.22a46.65,46.65,0,0,0-7-1.83c-.31-.06-.63-.11-.95-.15l-1-.13-1-.08-1-.06c-1.31-.07-2.62-.09-3.94-.08-2.63,0-5.27.16-7.85.23a62.13,62.13,0,0,1-7.52-.17l-.9-.1-.94-.11-1.85-.25-1.9-.29c3.77-.24,8-.52,12.21-.83,6.23-.44,12.43-.89,17.07-1.18l1.39-.09h1.51a9.37,9.37,0,0,1,2.36.9c1,.53,2,1.18,2.73,1.66s1.25.79,1.25.79c.44.26.5.17.16-.2,0,0-.4-.42-1-1.09s-1.08-1.23-1.76-1.93a30.69,30.69,0,0,1,5.33,1c.52.15,1,.29,1.52.48s1,.39,1.54.6c1,.44,2.12.92,3.26,1.31a15.63,15.63,0,0,0,1.76.49c.61.11,1.19.17,1.78.22s1,.06,1.51.07a1,1,0,0,1,.07.18,5,5,0,0,1,.17,1.54,8.69,8.69,0,0,0,.09,1.6,2.88,2.88,0,0,0,.22.69c.13.22.14.21,0,0a2.25,2.25,0,0,1-.15-.69,8.72,8.72,0,0,1,.05-1.58,5.07,5.07,0,0,0,0-1.66.43.43,0,0,0,0,0l1.39,0a21.83,21.83,0,0,1,3,.28,9.67,9.67,0,0,1,2.55.84A12.65,12.65,0,0,1,165.26,75c.71.7,1.05,1.16,1.06,1.15a9.83,9.83,0,0,0,.93,1.16,4.24,4.24,0,0,0-.73-1.31,14.72,14.72,0,0,0-1-1.24,13.25,13.25,0,0,0-3.27-2.68A9.87,9.87,0,0,0,159.58,71a20.65,20.65,0,0,0-3.13-.52c-1.09-.11-2.2-.2-3.29-.36a15.82,15.82,0,0,1-1.61-.31,14.16,14.16,0,0,1-1.54-.54c-1-.43-2-1-3.06-1.48l-1.27-.61H150c3.14,0,6.18-.06,9-.15l.28.06a3.2,3.2,0,0,1,1.09.55c.37.28.75.62,1.15,1a8.06,8.06,0,0,0,1.34,1,6.84,6.84,0,0,0,1.6.6c.53.13,1,.23,1.53.33,1,.19,1.89.36,2.64.57a6,6,0,0,1,1.72.75,2.11,2.11,0,0,1,.53.46c.29.34.37.56.4.55s0-.25-.28-.64a2.41,2.41,0,0,0-.51-.55,6.28,6.28,0,0,0-1.73-.94,27.3,27.3,0,0,0-2.62-.83c-.48-.14-1-.28-1.45-.46a5.83,5.83,0,0,1-1.33-.63,9.31,9.31,0,0,1-1.09-1c-.28-.3-.56-.6-.86-.9,2.07-.08,4.06-.18,5.92-.31l1.8-.14a2.8,2.8,0,0,1,.31.09,3.53,3.53,0,0,1,.77.35,6,6,0,0,1,.73.51,34.23,34.23,0,0,0,2.81,2.32,7.14,7.14,0,0,0,1.54.72,8.81,8.81,0,0,0,1.47.34c.91.14,1.67.24,2.18.37s.8.25.81.24c.49.19.72.31.73.3a2.53,2.53,0,0,0-.7-.38,6.12,6.12,0,0,0-.8-.28c-.52-.16-1.28-.3-2.18-.47A7.19,7.19,0,0,1,174,69.44,32.11,32.11,0,0,1,171.3,67a6.88,6.88,0,0,0-.88-.65l3.82-.42c2-.22,3.81-.35,5.27-.36a23.82,23.82,0,0,1,4.57.34,20.63,20.63,0,0,1,3.13.83,4.5,4.5,0,0,0,1,.33s-.28-.25-.94-.57a15,15,0,0,0-3.14-1.07s-.28-.07-.82-.17a14.07,14.07,0,0,0,2.82-1.21A21.53,21.53,0,0,1,189,62.7a6.63,6.63,0,0,1,1.37-.37C190.83,62.26,190.83,62.24,190.34,62.29Z"/><path class="cls-1" d="M118.71,62.16h-9.65V9.48H99V.7h11a8.78,8.78,0,0,1,8.78,8.78V62.16M113.77.7h15V9.48h-9.29A9.61,9.61,0,0,0,113.77.7Z"/><path class="cls-1" d="M152.26,62.16h7.1V53.38H143.48A8.78,8.78,0,0,0,152.26,62.16Zm-9.58-8.78a9.61,9.61,0,0,0,5.74,8.79H133V.7h15.4a9.6,9.6,0,0,0-5.74,8.78V26.6h13.26v8.78H142.68Z"/><path class="cls-1" d="M143.48,9.48A8.78,8.78,0,0,1,152.26.7h7.1V9.48Z"/><path class="cls-1" d="M84.24,62.2a14,14,0,0,1-8.91-9.59h0a4.61,4.61,0,0,0,3.73,1.47c3.08,0,5-1.66,5-6V14.84c0-4.39-1.93-6.06-5-6.06a4.39,4.39,0,0,0-4.2,2.16h0V.42h0A19.8,19.8,0,0,1,79.06,0c9.48,0,14.66,5.62,14.66,15.45v32C93.72,55.28,90.41,60.44,84.24,62.2Z"/><polygon class="cls-1" points="143.81 11.53 143.81 11.53 143.8 11.53 143.81 11.53"/><path class="cls-1" d="M143.48,9.48v2a4.29,4.29,0,0,1,4.12-2"/><path class="cls-1" d="M147.6,53.38a4.3,4.3,0,0,1-4.12-2v2"/><polygon class="cls-1" points="184.54 11.53 184.54 11.53 184.54 11.53 184.54 11.53"/><polygon class="cls-1" points="143.77 50.8 143.77 50.8 143.77 50.8 143.77 50.8"/><polygon class="cls-1" points="179.6 0.7 179.61 0.7 179.6 0.7 179.6 0.7"/><path class="cls-1" d="M180.61.7h-1a9.61,9.61,0,0,1,5.74,8.78v43.9a9.6,9.6,0,0,1-5.74,8.78h1c9.65,0,14.4-5.35,14.4-15.19V15.89C195,6.06,190.26.7,180.61.7Z"/><path class="cls-1" d="M184.54,53.38v-2c-.82,1.46-2.23,2-4.11,2H175V9.48h5.44a4.28,4.28,0,0,1,4.11,2v-2A8.78,8.78,0,0,0,175.76.7H165.33V62.16h10.43A8.78,8.78,0,0,0,184.54,53.38Z"/><polygon class="cls-1" points="184.54 51.34 184.54 51.34 184.54 51.34 184.54 51.34"/></g></g></svg>