<svg xmlns="http://www.w3.org/2000/svg" viewBox="0 0 195.46 73.27"><defs><style>.cls-1{fill:#fff;}</style></defs><g id="Layer_2" data-name="Layer 2"><g id="Layer_1-2" data-name="Layer 1"><polygon class="cls-1" points="8.62 13.96 0.38 13.71 0 24.35 8.23 25.08 8.62 13.96"/><polygon class="cls-1" points="0.6 36.44 0.6 50.28 8.85 49.04 8.85 35.96 0.6 36.44"/><polygon class="cls-1" points="8.25 25.09 0 24.6 0 36.44 8.25 35.96 8.25 25.09"/><polygon class="cls-1" points="9 62.78 8.67 49.65 0.45 51.07 0.75 62.95 9 62.78"/><polygon class="cls-1" points="39.15 7.43 52.86 12.02 53.14 7.01 39.38 6.37 39.15 7.43"/><polygon class="cls-1" points="11.69 68.38 20.32 67.91 19.99 62.86 11.54 66.09 11.69 68.38"/><polygon class="cls-1" points="43.66 24.81 43.84 24.81 43.84 27.45 53.2 28.01 53.2 19.84 37.96 17.48 36.42 27.01 43.24 27.41 43.66 24.81"/><polygon class="cls-1" points="33.4 45.61 40.49 44.54 42.13 34.3 35.17 34.71 33.4 45.61"/><polygon class="cls-1" points="44.14 34.2 44.14 44.04 53.5 42.62 53.5 33.66 44.14 34.2"/><polygon class="cls-1" points="53.8 28.01 44.44 27.45 44.44 34.2 53.8 33.66 53.8 28.01"/><polygon class="cls-1" points="36.42 27.01 35.17 34.71 42.13 34.3 43.24 27.41 36.42 27.01"/><polygon class="cls-1" points="11.61 48.9 20.25 47.59 20.25 35.58 11.61 36.08 11.61 48.9"/><polygon class="cls-1" points="19.82 25.39 20 25.39 20.12 26.06 28.12 26.54 26.23 15.73 11.18 13.4 11.18 25.53 19.82 26.05 19.82 25.39"/><polygon class="cls-1" points="22.21 35.46 24.23 46.99 31.94 45.83 30.04 35 22.21 35.46"/><polygon class="cls-1" points="11.01 25.53 11.01 36.08 19.65 35.58 19.65 26.05 11.01 25.53"/><polygon class="cls-1" points="28.56 26.54 20.55 26.06 22.21 35.46 30.04 35 28.56 26.54"/><polygon class="cls-1" points="27.67 67.52 37.03 67.3 38.48 56.28 26.24 60.53 27.67 67.52"/><polygon class="cls-1" points="43.84 54.8 43.84 67.4 44.77 67.4 53.2 63.71 53.2 51.81 43.84 54.8"/><polygon class="cls-1" points="33.4 46.01 32.77 49.92 32.59 49.92 31.94 46.23 24.23 47.39 26.4 59.67 38.76 55.72 40.49 44.94 33.4 46.01"/><polygon class="cls-1" points="53.5 43.07 44.14 44.48 44.14 54.15 53.5 51.15 53.5 43.07"/><polygon class="cls-1" points="11.61 49.45 11.61 64.56 20.25 61.8 20.25 48.15 11.61 49.45"/><polygon class="cls-1" points="53.2 68.63 53.2 64.94 44.77 68.63 53.2 68.63"/><polygon class="cls-1" points="25.57 6.72 11.81 6.25 11.61 11.2 26.55 14.04 25.57 6.72"/><polygon class="cls-1" points="37.56 15.67 52.73 18.37 52.9 11.99 39.06 7.74 37.56 15.67"/><path class="cls-1" d="M79.59,22.77v4.38A22.86,22.86,0,0,1,81.19,23Z"/><path class="cls-1" d="M91.15,29.14c0-.43,0-.86,0-1.3V24.56L81.22,23a22.86,22.86,0,0,0-1.6,4.14v1.3Z"/><polygon class="cls-1" points="67.45 21.32 55.9 19.53 55.9 27.38 67.45 28.06 67.45 21.32"/><path class="cls-1" d="M78.42,33.1c-.89,1.73-2.55,2.37-4.91,2.37H68.05v-3.2L56.5,33v8.66L79,38.22l-.54-4.8C78.41,33.31,78.42,33.21,78.42,33.1Z"/><path class="cls-1" d="M91.16,30.89l-11.68.68A5.82,5.82,0,0,1,79,33c0,.11,0,.21,0,.31l.54,4.81,10.29-1.56A18.7,18.7,0,0,0,91.16,30.89Z"/><polygon class="cls-1" points="67.72 28.06 56.17 27.38 56.17 32.64 67.72 31.96 67.72 28.06"/><path class="cls-1" d="M79.76,28.77a11.78,11.78,0,0,1-.24,2.54l11.68-.68c0-.41.07-.82.08-1.24L79.76,28.7Z"/><path class="cls-1" d="M69,46.22h4.42A23.82,23.82,0,0,0,81,45.09a21.48,21.48,0,0,1-1.14-2.37Z"/><path class="cls-1" d="M87.79,40.13,80,42.75a23.61,23.61,0,0,0,1.18,2.36A13.08,13.08,0,0,0,87.79,40.13Z"/><polygon class="cls-1" points="56.8 61.75 68.35 56.69 68.35 46.54 56.8 50.24 56.8 61.75"/><path class="cls-1" d="M56.2,42.16v7.53L67.75,46v-.33h1l10.94-3.5a23.41,23.41,0,0,1-1.07-3.39Z"/><path class="cls-1" d="M89,37.46,78.7,38.91a22.25,22.25,0,0,0,1,3.4l7.9-2.44A13.81,13.81,0,0,0,89,37.46Z"/><polygon class="cls-1" points="56.98 73.27 68.53 73.01 68.31 64.73 56.96 72.54 56.98 73.27"/><polygon class="cls-1" points="56.95 72.58 68.3 64.77 68.12 58.17 56.71 63.49 56.95 72.58"/><path class="cls-1" d="M87.46,13.57l-22.61-12H55.9V12.47l11.55,3.27V11.2h5.46c3.68,0,5.67,1.55,5.67,6.37v1.32l3,.85A25.75,25.75,0,0,1,87.46,13.57Z"/><path class="cls-1" d="M90.14,18.25a27.64,27.64,0,0,0-.2-3.37l-2.47-1.31a25.79,25.79,0,0,0-5.86,6.18l8.53,2.41Z"/><path class="cls-1" d="M72.93.19,64.88,0,87.15,12.53c.63-.46,1.3-.89,2-1.3C87.46,4.24,82.11.4,72.93.19Z"/><path class="cls-1" d="M89.53,11.71c-.71.37-1.4.76-2.07,1.18l2.33,1.51A20.62,20.62,0,0,0,89.53,11.71Z"/><path class="cls-1" d="M80.1,19.47v3.05l1.6.25a24,24,0,0,1,1.42-2.45Z"/><path class="cls-1" d="M91.86,22.88l-8.53-2.41a21.31,21.31,0,0,0-1.43,2.44l10,1.54Z"/><polygon class="cls-1" points="55.9 18.48 67.45 20.27 67.45 15.8 55.9 12.53 55.9 18.48"/><path class="cls-1" d="M116.73,7.52,114.6,9.84c.74.3,1.45.63,2.15,1Z"/><path class="cls-1" d="M113.14,58.2l.36,1,1,0,1.29,6.23,2,5.56,10.46-.39L124.37,53Z"/><path class="cls-1" d="M112.5,23.15l0,0v0l5.5-4.29-1.38-8c-.75-.25-1.51-.47-2.28-.67l-6.8,10.29,1,6.45,4,2,2.44-.72-2.47-5.06Z"/><polygon class="cls-1" points="118.47 20.83 112.61 23.1 115.08 28.16 119.52 26.85 118.47 20.83"/><path class="cls-1" d="M119.87,28l-7.06.94a7.53,7.53,0,0,1,2.37,3.94l5.46-.46Z"/><path class="cls-1" d="M115.38,36.29l6.37,1.06-.54-3.09-5.67-.79a7,7,0,0,1,.08,1A6.74,6.74,0,0,1,115.38,36.29Z"/><path class="cls-1" d="M124.11,52.76,112.05,40.68l10.79,4.81-1.1-6.31-6.87-2.37L111,41.13l1.36,8.51h-2.2l2.47,7.89,11.45-4.75Z"/><path class="cls-1" d="M115,32.86a7.53,7.53,0,0,0-2.37-3.94l-.08,0h0L109,29.3l.58,3.6,2.93.17Z"/><path class="cls-1" d="M115,34.56a6.9,6.9,0,0,0-.08-1l-2.55-.36L109.43,33l1.32,8.23,3.83-4.32.18-.58A7,7,0,0,0,115,34.56Z"/><path class="cls-1" d="M112,28.75l-4-1.85.46,2.35,3.51-.48Z"/><path class="cls-1" d="M104.38,3.76l-4.94.07-.86,5.43,6.69-1.12Z"/><path class="cls-1" d="M87.37,70.48l5.72.1,6.48-12.95a30.09,30.09,0,0,1-9-3.69Z"/><path class="cls-1" d="M98.81,30.89l-4.65.27-.92,5.27,4.59-.7Z"/><polygon class="cls-1" points="92.05 45.38 94.44 44.33 92.82 40.97 92.05 45.38"/><path class="cls-1" d="M101.35,49.73l1.34-8.35a7.87,7.87,0,0,1-4.38-5.31l-4.9,1.57L92.83,41l1.62,3.36,4.08-1.79L91.79,47l-1.21,7a29.92,29.92,0,0,0,9,3.54l3.69-7.74Z"/><path class="cls-1" d="M105.33,8.55l-6.71,1-1.17,6.67L99.08,18l7.55-2.49Z"/><path class="cls-1" d="M99.08,18.2l4.29,4.49L97,19.29l-1,5.45,7.35,2.09.34.07a8.27,8.27,0,0,1,1.74-.48l1.46-9.18-.28-1.53Z"/><path class="cls-1" d="M102.67,27,95.15,25.8l-.71,4.08,4.65.28L103,27Z"/><path class="cls-1" d="M101.12,35.26l-2.66.85a6.83,6.83,0,0,0,3,4.49l1.35.81,1.09-6.81Z"/><path class="cls-1" d="M105.54,26.46a9.18,9.18,0,0,0-1.83.52l1.69.36Z"/><path class="cls-1" d="M101.26,30.46l3.46-.06.44-2.78-1.68-.36a46.15,46.15,0,0,0-3.83,3.09l1.78.1-1.91.12c-1,4.84-.73,3.57-1,4.84l2.74-.41,2.81-.66.63-3.94Z"/><path class="cls-1" d="M94.35,30.12l-.14.77,4.65-.26.14-.22Z"/><path class="cls-1" d="M99,30.42l-.13.21,1.91-.15Z"/><path class="cls-1" d="M92.93,36.71,92.7,38l4.89-1.57c0-.14,0-.29-.08-.43Z"/><path class="cls-1" d="M98.73,35.58a3.39,3.39,0,0,0,.08.44l2.66-.86Z"/><polygon class="cls-1" points="84.78 49.15 84.55 51.03 91.9 45.55 84.78 49.15"/><polygon class="cls-1" points="115.67 72.13 116.52 72.19 115.29 66.45 115.67 72.13"/><path class="cls-1" d="M100.11,58.39l-6,13.13,4.58-.06,1.76-11.92,12.82-.16-.33-1a32.23,32.23,0,0,1-12.81,0Z"/><path class="cls-1" d="M103.78,50.65l-3.69,7.74a32.68,32.68,0,0,0,6.78.71,32.28,32.28,0,0,0,6-.56l-2.48-7.89Z"/><polygon class="cls-1" points="123.04 45.61 112.82 41.06 124.24 52.49 123.04 45.61"/><path class="cls-1" d="M122.07,39.23l-.33-1.88-6.36-1.06a5.4,5.4,0,0,1-.18.57Z"/><path class="cls-1" d="M121.62,34.22l-.31-1.81-5.46.46a5.21,5.21,0,0,1,.1.57Z"/><path class="cls-1" d="M115.94,33.42c0-.19-.06-.37-.1-.56l-2.46.21Z"/><polygon class="cls-1" points="122.17 26.24 115.29 28.27 115.3 28.28 122.36 27.34 122.17 26.24"/><path class="cls-1" d="M113,28.92h0l-.07,0Z"/><polygon class="cls-1" points="112.54 23.13 118.4 20.76 118.01 18.74 112.54 23.13"/><path class="cls-1" d="M115.23,6.89l1.71-2.59-.48-2.74H105L105.8,6c.51,0,1,0,1.53,0A32,32,0,0,1,115.23,6.89Z"/><path class="cls-1" d="M107.38,7c-.52,0-1,0-1.53,0l1.58,8.44.2-1.22h.2l.64,4L115.27,8A31.82,31.82,0,0,0,107.38,7Z"/><polygon class="cls-1" points="96.45 19.03 102.76 22.41 97.13 16.61 96.45 19.03"/><polygon class="cls-1" points="95.4 24.55 95.24 25.47 102.75 26.63 95.4 24.55"/><path class="cls-1" d="M135.15,25.28l-2.55.34a21.6,21.6,0,0,1,1.21,5.06l1.34-.11Z"/><path class="cls-1" d="M125.25,26.6v4.79l8.56-.72a21.6,21.6,0,0,0-1.21-5.06Z"/><path class="cls-1" d="M155.72,52.73v-1.6l-9.36-3.22v5.4A8.22,8.22,0,0,1,146,56l8.47,3.78A17.86,17.86,0,0,0,155.72,52.73Z"/><path class="cls-1" d="M126.64,56c.3,7,4.12,11.48,11.29,12.65Z"/><path class="cls-1" d="M135.44,44.14,132.15,43a24,24,0,0,1-3.49,5.37l6.78,3Z"/><path class="cls-1" d="M125.55,40.74V47l3.11,1.39a23.66,23.66,0,0,0,3.5-5.36Z"/><path class="cls-1" d="M145.58,56.4c-.74,2.08-2.43,2.88-4.75,2.87-3.15,0-5.12-1.53-5.08-5.66V51.93L129,48.86a26.5,26.5,0,0,1-3.14,3V53a22.37,22.37,0,0,0,.1,2.35l11.92,12.14a24.1,24.1,0,0,0,2.62.16c6.87,0,11.42-2.56,13.53-7.37Z"/><path class="cls-1" d="M128.89,48.76l-3.1-1.41,0,4.44A25.73,25.73,0,0,0,128.89,48.76Z"/><path class="cls-1" d="M135.73,36.26l-1.34-.14-.51,3.3,2,.26Z"/><path class="cls-1" d="M125.7,34.9V38l7.92,1.33.64-3.28Z"/><path class="cls-1" d="M136.06,39.94l-2-.38-1.42,3.49,3.25,1.22Z"/><path class="cls-1" d="M125.85,38.16v2.57L132.46,43l1.31-3.53Z"/><polygon class="cls-1" points="155.35 43.78 146 44.21 146.16 47.07 155.69 49.86 155.35 43.78"/><path class="cls-1" d="M135.09,30.91l-1.34.12a21.72,21.72,0,0,1,.14,2.43,22.26,22.26,0,0,1-.14,2.46l1.34.19Z"/><path class="cls-1" d="M133.74,31l-8.57.72v3l8.57,1.2a22.26,22.26,0,0,0,.14-2.46A21.76,21.76,0,0,0,133.74,31Z"/><path class="cls-1" d="M148,8.42l-20.84,8.1a24.91,24.91,0,0,1,4.47,5.85l3.89-1.15v-.3c0-4.13,2-5.7,5.13-5.7,2.36,0,4.07.88,4.77,3.07l8.89-2.62A11.5,11.5,0,0,0,148,8.42Z"/><path class="cls-1" d="M126,16.94a20.41,20.41,0,0,0-.48,4.57v2.65l6-1.78a24.44,24.44,0,0,0-4.47-5.85Z"/><polygon class="cls-1" points="155.57 23.11 146.17 24.07 146.04 27.57 155.4 27.86 155.57 23.11"/><path class="cls-1" d="M135.75,21.29l-3.89,1.15a21.71,21.71,0,0,1,1.34,2.95l2.55-.34Z"/><path class="cls-1" d="M125.85,24.22v2.16l7.35-1a21.29,21.29,0,0,0-1.34-3Z"/><path class="cls-1" d="M155.36,21.75a18.78,18.78,0,0,0-.84-5.83l-8.88,2.63a8.65,8.65,0,0,1,.36,2.63v2.69l9.36-1.25Z"/><path class="cls-1" d="M127.17,16.21l20.38-9a18.26,18.26,0,0,0-7.69-1.11c-7.5.34-12,3.71-13.49,9.48Z"/><path class="cls-1" d="M126.26,16.52c-.25-.24-.5-.48-.76-.71-.11.36-.21.74-.3,1.12Z"/><polygon class="cls-1" points="156.81 10.09 157.03 13.82 169.43 9.48 156.81 10.09"/><polygon class="cls-1" points="175.49 41.83 166.58 40.59 166.58 44.87 175.49 46.36 175.49 41.83"/><polygon class="cls-1" points="175.22 59.11 166.52 55.58 165.93 65.07 174.83 65.54 175.22 59.11"/><polygon class="cls-1" points="175.54 46.92 166.72 45.04 166.21 54.78 174.95 58.23 175.54 46.92"/><polygon class="cls-1" points="175.54 19.71 166.63 20.91 166.63 27.71 175.54 26.96 175.54 19.71"/><polygon class="cls-1" points="175.24 27.79 166.33 28.54 166.33 40.57 175.24 41.81 175.24 27.79"/><polygon class="cls-1" points="184.56 18.92 184.56 18.74 183.24 18.92 184.56 18.92"/><polygon class="cls-1" points="183.27 17.97 184.58 17.78 184.5 10.52 169.59 10.66 157 14.53 157.04 18.23 166.36 18.14 166.38 20.4 175.28 19.12 175.27 18.05 183.27 17.97"/><polygon class="cls-1" points="186.87 64.48 186.86 64.92 188.13 64.95 186.87 64.48"/><polygon class="cls-1" points="194.83 64.42 195.04 57.13 187.1 56.93 186.9 63.79 188.16 64.26 194.83 64.42"/><polygon class="cls-1" points="195.16 16.5 186.91 17.6 186.91 25.43 195.16 24.73 195.16 16.5"/><polygon class="cls-1" points="194.48 49.27 194.78 44.24 187.73 43.26 188.03 48.18 194.48 49.27"/><polygon class="cls-1" points="194.06 51.79 194.18 49.81 187.73 48.74 187.91 51.79 194.06 51.79"/><polygon class="cls-1" points="194.83 44.22 195.46 33.79 195.46 25.83 187.21 26.53 187.21 33.79 187.78 43.24 194.83 44.22"/><polygon class="cls-1" points="194.67 11.42 186.44 11.95 186.82 16.96 194.97 15.33 194.67 11.42"/></g></g></svg>