<svg xmlns="http://www.w3.org/2000/svg" viewBox="0 0 195.26 73.19"><defs><style>.cls-1{fill:#231f20;}</style></defs><g id="Layer_2" data-name="Layer 2"><g id="Layer_1-2" data-name="Layer 1"><polygon class="cls-1" points="8.61 13.94 0.38 13.7 0 24.32 8.22 25.06 8.61 13.94"/><polygon class="cls-1" points="0.6 36.41 0.6 50.23 8.84 48.99 8.84 35.93 0.6 36.41"/><polygon class="cls-1" points="8.24 25.07 0 24.58 0 36.41 8.24 35.93 8.24 25.07"/><polygon class="cls-1" points="8.99 62.72 8.66 49.6 0.45 51.02 0.75 62.89 8.99 62.72"/><polygon class="cls-1" points="39.11 7.42 52.81 12 53.09 7 39.35 6.36 39.11 7.42"/><polygon class="cls-1" points="11.68 68.31 20.3 67.84 19.97 62.8 11.53 66.02 11.68 68.31"/><polygon class="cls-1" points="43.61 24.79 43.79 24.79 43.79 27.42 53.15 27.98 53.15 19.82 37.92 17.46 36.38 26.98 43.2 27.39 43.61 24.79"/><polygon class="cls-1" points="33.37 45.56 40.45 44.5 42.09 34.27 35.13 34.67 33.37 45.56"/><polygon class="cls-1" points="44.09 34.17 44.09 43.99 53.45 42.58 53.45 33.62 44.09 34.17"/><polygon class="cls-1" points="53.74 27.98 44.39 27.42 44.39 34.17 53.74 33.62 53.74 27.98"/><polygon class="cls-1" points="36.38 26.98 35.13 34.67 42.09 34.27 43.2 27.39 36.38 26.98"/><polygon class="cls-1" points="11.6 48.85 20.23 47.55 20.23 35.54 11.6 36.04 11.6 48.85"/><polygon class="cls-1" points="19.8 25.37 19.98 25.37 20.1 26.04 28.1 26.51 26.2 15.71 11.17 13.39 11.17 25.51 19.8 26.02 19.8 25.37"/><polygon class="cls-1" points="22.18 35.42 24.21 46.95 31.91 45.78 30.01 34.97 22.18 35.42"/><polygon class="cls-1" points="11 25.51 11 36.04 19.63 35.54 19.63 26.02 11 25.51"/><polygon class="cls-1" points="28.53 26.51 20.53 26.04 22.18 35.42 30.01 34.97 28.53 26.51"/><polygon class="cls-1" points="27.65 67.45 37 67.23 38.45 56.23 26.21 60.47 27.65 67.45"/><polygon class="cls-1" points="43.79 54.75 43.79 67.33 44.73 67.33 53.15 63.65 53.15 51.76 43.79 54.75"/><polygon class="cls-1" points="33.37 45.96 32.73 49.87 32.55 49.87 31.91 46.18 24.21 47.34 26.37 59.61 38.72 55.67 40.45 44.89 33.37 45.96"/><polygon class="cls-1" points="53.45 43.02 44.09 44.43 44.09 54.09 53.45 51.1 53.45 43.02"/><polygon class="cls-1" points="11.6 49.4 11.6 64.49 20.23 61.73 20.23 48.1 11.6 49.4"/><polygon class="cls-1" points="53.15 68.56 53.15 64.87 44.73 68.56 53.15 68.56"/><polygon class="cls-1" points="25.54 6.71 11.79 6.24 11.59 11.19 26.52 14.03 25.54 6.71"/><polygon class="cls-1" points="37.52 15.66 52.68 18.35 52.85 11.98 39.03 7.73 37.52 15.66"/><path class="cls-1" d="M79.51,22.74v4.38A22.49,22.49,0,0,1,81.11,23Z"/><path class="cls-1" d="M91.06,29.11q0-.64,0-1.29V24.53L81.14,23a21.76,21.76,0,0,0-1.59,4.13v1.3Z"/><polygon class="cls-1" points="67.38 21.3 55.84 19.51 55.84 27.35 67.38 28.04 67.38 21.3"/><path class="cls-1" d="M78.34,33.07c-.89,1.72-2.55,2.36-4.9,2.36H68V32.24l-11.54.67v8.66l22.44-3.39-.54-4.8C78.33,33.28,78.34,33.17,78.34,33.07Z"/><path class="cls-1" d="M91.07,30.85l-11.67.69A6.25,6.25,0,0,1,78.89,33a1.61,1.61,0,0,0,0,.31l.54,4.8L89.7,36.56A18.76,18.76,0,0,0,91.07,30.85Z"/><polygon class="cls-1" points="67.66 28.04 56.12 27.35 56.12 32.6 67.66 31.93 67.66 28.04"/><path class="cls-1" d="M79.68,28.74a11.78,11.78,0,0,1-.24,2.54l11.67-.68c0-.41.07-.82.08-1.24l-11.51-.68Z"/><path class="cls-1" d="M68.88,46.17H73.3A23.81,23.81,0,0,0,81,45.05a21.62,21.62,0,0,1-1.14-2.38Z"/><path class="cls-1" d="M87.7,40.08l-7.83,2.63A25.7,25.7,0,0,0,81,45.06,13,13,0,0,0,87.7,40.08Z"/><polygon class="cls-1" points="56.74 61.69 68.28 56.63 68.28 46.5 56.74 50.19 56.74 61.69"/><path class="cls-1" d="M56.14,42.12v7.52l11.54-3.7v-.33h1l10.92-3.49a23.41,23.41,0,0,1-1.07-3.39Z"/><path class="cls-1" d="M88.92,37.42l-10.3,1.45a22.25,22.25,0,0,0,1,3.4l7.9-2.44A14.44,14.44,0,0,0,88.92,37.42Z"/><polygon class="cls-1" points="56.92 73.19 68.46 72.94 68.24 64.67 56.91 72.47 56.92 73.19"/><polygon class="cls-1" points="56.89 72.5 68.23 64.71 68.05 58.12 56.65 63.42 56.89 72.5"/><path class="cls-1" d="M87.37,13.55l-22.58-12h-9v10.9l11.54,3.26V11.19h5.46c3.67,0,5.66,1.54,5.66,6.36v1.32l3,.85A25.9,25.9,0,0,1,87.37,13.55Z"/><path class="cls-1" d="M90.05,18.23a27.64,27.64,0,0,0-.2-3.37l-2.47-1.3a25.53,25.53,0,0,0-5.85,6.17l8.52,2.41Z"/><path class="cls-1" d="M72.86.19l-8-.19L87.06,12.51c.64-.45,1.3-.89,2-1.29C87.37,4.24,82,.4,72.86.19Z"/><path class="cls-1" d="M89.44,11.7c-.71.37-1.4.76-2.07,1.18l2.33,1.5A20.63,20.63,0,0,0,89.44,11.7Z"/><path class="cls-1" d="M80,19.45V22.5l1.59.24A23.92,23.92,0,0,1,83,20.3Z"/><path class="cls-1" d="M91.77,22.86l-8.53-2.41a22.8,22.8,0,0,0-1.42,2.44l10,1.54Z"/><polygon class="cls-1" points="55.84 18.46 67.38 20.25 67.38 15.78 55.84 12.51 55.84 18.46"/><path class="cls-1" d="M116.61,7.51l-2.12,2.32c.73.3,1.45.63,2.14,1Z"/><path class="cls-1" d="M113,58.14l.35,1,1,0,1.29,6.22,2,5.55,10.46-.39L124.25,53Z"/><path class="cls-1" d="M112.39,23.13l0,0,0,0,0,0,5.5-4.29-1.39-7.95c-.74-.25-1.5-.47-2.28-.67l-6.79,10.28,1,6.44,4,2,2.45-.73-2.47-5.05Z"/><polygon class="cls-1" points="118.35 20.8 112.5 23.08 114.97 28.13 119.4 26.82 118.35 20.8"/><path class="cls-1" d="M119.75,28l-7,.95a7.46,7.46,0,0,1,2.37,3.93l5.45-.46Z"/><path class="cls-1" d="M115.27,36.25l6.36,1.06-.54-3.08-5.66-.79a8.45,8.45,0,0,1,.07,1A7.14,7.14,0,0,1,115.27,36.25Z"/><path class="cls-1" d="M124,52.7l-12-12.06,10.78,4.81-1.1-6.31-6.86-2.36-3.84,4.31,1.36,8.5h-2.2l2.47,7.88L124,52.73Z"/><path class="cls-1" d="M114.88,32.83a7.46,7.46,0,0,0-2.37-3.93h-.07l-3.52.37.58,3.6,2.93.16Z"/><path class="cls-1" d="M114.88,34.53a6.8,6.8,0,0,0-.08-1l-2.55-.36L109.32,33l1.32,8.22,3.83-4.32.18-.57A7.14,7.14,0,0,0,114.88,34.53Z"/><path class="cls-1" d="M111.9,28.72l-4-1.85.46,2.35,3.51-.48Z"/><path class="cls-1" d="M104.27,3.76l-4.93.07-.86,5.42,6.69-1.12Z"/><path class="cls-1" d="M87.28,70.41l5.72.1,6.47-12.94a29.91,29.91,0,0,1-9-3.68Z"/><path class="cls-1" d="M98.71,30.85l-4.64.28-.92,5.26,4.58-.69Z"/><polygon class="cls-1" points="91.96 45.33 94.34 44.29 92.73 40.92 91.96 45.33"/><path class="cls-1" d="M101.25,49.68l1.34-8.34A7.87,7.87,0,0,1,98.21,36L93.32,37.6l-.58,3.32,1.62,3.37,4.07-1.79L91.7,46.9l-1.21,7a30,30,0,0,0,9,3.53l3.68-7.73Z"/><path class="cls-1" d="M105.22,8.54l-6.7,1-1.16,6.66L99,17.94l7.54-2.49Z"/><path class="cls-1" d="M99,18.18l4.29,4.49-6.4-3.4-1,5.45,7.35,2.08.34.07a9,9,0,0,1,1.73-.48l1.47-9.16-.29-1.53Z"/><path class="cls-1" d="M102.56,26.93l-7.5-1.16-.71,4.08,4.64.28L102.91,27Z"/><path class="cls-1" d="M101,35.22l-2.66.85a6.83,6.83,0,0,0,3,4.49l1.35.81,1.09-6.8Z"/><path class="cls-1" d="M105.43,26.43a9.27,9.27,0,0,0-1.82.52l1.68.36Z"/><path class="cls-1" d="M101.16,30.43l3.45-.06.45-2.77-1.68-.37a46.15,46.15,0,0,0-3.83,3.09l1.78.11-1.91.11c-1,4.84-.73,3.57-1,4.84l2.74-.42,2.8-.65.63-3.94Z"/><path class="cls-1" d="M94.26,30.09l-.14.76,4.64-.25.14-.22Z"/><path class="cls-1" d="M98.89,30.38a1.59,1.59,0,0,1-.13.22l1.91-.15Z"/><path class="cls-1" d="M92.83,36.67,92.6,38l4.9-1.56L97.41,36Z"/><path class="cls-1" d="M98.63,35.54c0,.15.05.3.08.44l2.66-.85Z"/><polygon class="cls-1" points="84.69 49.1 84.46 50.98 91.81 45.51 84.69 49.1"/><polygon class="cls-1" points="115.56 72.05 116.4 72.12 115.17 66.38 115.56 72.05"/><path class="cls-1" d="M100,58.33,94,71.45l4.57-.06,1.76-11.91,12.81-.16-.33-1a32.93,32.93,0,0,1-6,.64A32.16,32.16,0,0,1,100,58.33Z"/><path class="cls-1" d="M103.67,50.6,100,58.33a32.13,32.13,0,0,0,12.79.15l-2.47-7.88Z"/><polygon class="cls-1" points="122.92 45.57 112.71 41.02 124.12 52.44 122.92 45.57"/><path class="cls-1" d="M122,39.19l-.33-1.87-6.36-1.07c-.05.2-.11.39-.17.58Z"/><path class="cls-1" d="M121.5,34.19l-.31-1.81-5.46.46a5,5,0,0,1,.11.56Z"/><path class="cls-1" d="M115.82,33.39c0-.19-.06-.38-.1-.56l-2.45.2Z"/><path class="cls-1" d="M122.05,26.21l-6.87,2h0l7-.94Z"/><polygon class="cls-1" points="112.91 28.89 112.9 28.89 112.84 28.91 112.91 28.89"/><polygon class="cls-1" points="112.42 23.11 118.28 20.74 117.9 18.72 112.42 23.11"/><path class="cls-1" d="M115.11,6.89l1.71-2.59-.48-2.74H104.87l.83,4.38c.5,0,1,0,1.53,0A31.8,31.8,0,0,1,115.11,6.89Z"/><path class="cls-1" d="M107.27,7c-.51,0-1,0-1.53,0l1.59,8.44.19-1.22h.21l.64,4L115.15,8A32.21,32.21,0,0,0,107.27,7Z"/><polygon class="cls-1" points="96.36 19.01 102.65 22.39 97.03 16.6 96.36 19.01"/><polygon class="cls-1" points="95.31 24.53 95.15 25.44 102.65 26.61 95.31 24.53"/><path class="cls-1" d="M135,25.25l-2.55.35a21.4,21.4,0,0,1,1.21,5l1.34-.12Z"/><path class="cls-1" d="M125.12,26.57v4.79l8.55-.72a21.62,21.62,0,0,0-1.2-5.05Z"/><path class="cls-1" d="M155.57,52.68v-1.6l-9.35-3.22v5.4a8.22,8.22,0,0,1-.4,2.72l8.46,3.77A18,18,0,0,0,155.57,52.68Z"/><path class="cls-1" d="M126.51,56c.31,7,4.12,11.46,11.28,12.63Z"/><path class="cls-1" d="M135.31,44.1,132,43a24,24,0,0,1-3.49,5.36l6.78,3Z"/><path class="cls-1" d="M125.42,40.7V47l3.12,1.38A24,24,0,0,0,132,43Z"/><path class="cls-1" d="M145.44,56.35c-.74,2.07-2.43,2.87-4.75,2.86-3.15,0-5.12-1.53-5.08-5.66V51.88l-6.75-3.07a26.5,26.5,0,0,1-3.14,3V52.9c0,.82,0,1.6.1,2.36l11.92,12.12a21.48,21.48,0,0,0,2.6.16c6.87,0,11.42-2.56,13.53-7.36Z"/><path class="cls-1" d="M128.76,48.71l-3.1-1.41,0,4.44A25.73,25.73,0,0,0,128.76,48.71Z"/><path class="cls-1" d="M135.6,36.23l-1.35-.15-.51,3.3,2,.26Z"/><path class="cls-1" d="M125.57,34.87V38l7.91,1.32.64-3.27Z"/><path class="cls-1" d="M135.92,39.9l-2-.38L132.54,43l3.25,1.22Z"/><path class="cls-1" d="M125.72,38.12v2.57L132.33,43l1.31-3.53Z"/><polygon class="cls-1" points="155.2 43.73 145.86 44.17 146.01 47.02 155.53 49.81 155.2 43.73"/><path class="cls-1" d="M135,30.88l-1.33.11a21.9,21.9,0,0,1,.13,2.44,20.06,20.06,0,0,1-.14,2.46l1.34.18Z"/><path class="cls-1" d="M133.6,31l-8.55.72v3l8.55,1.19a22.26,22.26,0,0,0,.14-2.46A19.57,19.57,0,0,0,133.6,31Z"/><path class="cls-1" d="M147.82,8.41,127,16.51a24.65,24.65,0,0,1,4.47,5.84l3.88-1.15v-.3c0-4.13,2-5.7,5.13-5.7,2.36,0,4.06.89,4.77,3.07l8.87-2.62A11.46,11.46,0,0,0,147.82,8.41Z"/><path class="cls-1" d="M125.91,16.93a20.3,20.3,0,0,0-.49,4.56v2.65l6-1.78A24.19,24.19,0,0,0,127,16.51Z"/><polygon class="cls-1" points="155.41 23.08 146.02 24.04 145.89 27.54 155.24 27.83 155.41 23.08"/><path class="cls-1" d="M135.62,21.27l-3.89,1.15a21.17,21.17,0,0,1,1.34,2.95l2.55-.34Z"/><path class="cls-1" d="M125.72,24.19v2.17l7.35-1a21.71,21.71,0,0,0-1.34-2.95Z"/><path class="cls-1" d="M155.2,21.73a19.09,19.09,0,0,0-.83-5.83l-8.87,2.63a8.65,8.65,0,0,1,.35,2.62v2.7l9.35-1.26Z"/><path class="cls-1" d="M127,16.19l20.36-9A18.21,18.21,0,0,0,139.72,6c-7.49.34-12,3.71-13.47,9.48Z"/><path class="cls-1" d="M126.13,16.5c-.24-.24-.5-.47-.75-.71-.12.37-.22.74-.31,1.12Z"/><polygon class="cls-1" points="156.66 10.08 156.87 13.8 169.26 9.47 156.66 10.08"/><polygon class="cls-1" points="175.31 41.79 166.41 40.55 166.41 44.82 175.31 46.31 175.31 41.79"/><polygon class="cls-1" points="175.05 59.05 166.35 55.52 165.76 65 174.65 65.47 175.05 59.05"/><polygon class="cls-1" points="175.36 46.88 166.55 45 166.04 54.72 174.78 58.17 175.36 46.88"/><polygon class="cls-1" points="175.36 19.69 166.46 20.88 166.46 27.68 175.36 26.93 175.36 19.69"/><polygon class="cls-1" points="175.06 27.76 166.16 28.51 166.16 40.52 175.06 41.77 175.06 27.76"/><polygon class="cls-1" points="184.37 18.9 184.37 18.72 183.06 18.9 184.37 18.9"/><polygon class="cls-1" points="183.09 17.95 184.4 17.76 184.31 10.51 169.42 10.65 156.84 14.51 156.88 18.21 166.19 18.12 166.22 20.38 175.11 19.1 175.09 18.03 183.09 17.95"/><polygon class="cls-1" points="186.69 64.42 186.67 64.86 187.95 64.89 186.69 64.42"/><polygon class="cls-1" points="194.63 64.36 194.85 57.07 186.91 56.87 186.71 63.72 187.97 64.19 194.63 64.36"/><polygon class="cls-1" points="194.96 16.48 186.72 17.58 186.72 25.4 194.96 24.71 194.96 16.48"/><polygon class="cls-1" points="194.28 49.21 194.59 44.2 187.54 43.22 187.84 48.13 194.28 49.21"/><polygon class="cls-1" points="193.87 51.74 193.99 49.77 187.54 48.69 187.72 51.74 193.87 51.74"/><polygon class="cls-1" points="194.63 44.17 195.26 33.76 195.26 25.81 187.02 26.5 187.02 33.76 187.59 43.19 194.63 44.17"/><polygon class="cls-1" points="194.48 11.41 186.25 11.94 186.64 16.94 194.78 15.31 194.48 11.41"/></g></g></svg>