<svg xmlns="http://www.w3.org/2000/svg" viewBox="0 0 196.7 91.13"><defs><style>.cls-1{fill:#fff;}</style></defs><g id="Layer_2" data-name="Layer 2"><g id="Layer_1-2" data-name="Layer 1"><path class="cls-1" d="M18.67,40.41c-.94-2.09-2.75-2.95-5.56-2.95H9.74V62.71H0V.71H9.74A8.86,8.86,0,0,1,18.6,9.57V11.7h0c-.77-1.45-2.13-2.12-4.16-2.12H9.74V29.42a8.93,8.93,0,0,1,8.93,8.93v2.06Z"/><line class="cls-1" x1="11.61" y1="28.61" x2="11.61" y2="28.79"/><path class="cls-1" d="M11.61,28.61h1.94c3.63,0,5.85-1.6,5.85-6.56V9.57A9.66,9.66,0,0,0,13.59.71H14.7C24.8.71,29.14,5.4,29.14,15v4.87c0,6.38-2,10.45-6.38,12.49v.17c4.87,2,6.47,6.65,6.47,13.11v9.57c0,3,.09,5.22,1.06,7.53H20.37c-.53-1.6-.88-2.57-.88-7.62V38.35h0a9.74,9.74,0,0,0-7.88-9.56"/><path class="cls-1" d="M34.57,47.83V15.59C34.57,5.67,39.79,0,49.36,0a20.09,20.09,0,0,1,4.23.42h0V11h0a4.41,4.41,0,0,0-4.23-2.17c-3.1,0-5,1.68-5,6.11V48.45c0,4.43,1.95,6.11,5,6.11a4.65,4.65,0,0,0,3.76-1.49h0a14.11,14.11,0,0,1-9,9.67C37.91,61,34.57,55.76,34.57,47.83Z"/><polygon class="cls-1" points="179.56 62.71 179.56 62.7 179.56 62.7 179.56 62.71"/><path class="cls-1" d="M118.14,62.71h2.06a4.33,4.33,0,0,1-2.06-4.15"/><path class="cls-1" d="M192,62.83a7.34,7.34,0,0,0-1.41.31,24.49,24.49,0,0,0-2.92,1.26,13.4,13.4,0,0,1-2.95,1.1,8.11,8.11,0,0,1-1.12.15c-.69-.09-1.53-.16-2.52-.2-1.5,0-3.32,0-5.4.12s-4.4.32-6.94.36c-5.1.12-11.05,0-17.44-.24-5.6-.23-11.53-.56-17.53-.85h-.16l-2.39-.11c-3.43-.16-6.87-.3-10.27-.39-1.7,0-3.39-.07-5.07-.08s-3.36,0-5,.08c-3.25.1-6.38.25-9.32.32s-5.72.08-8.25-.05a52.34,52.34,0,0,1-6.81-.76c-.88-.17-1.71-.35-2.47-.55l-.53-.22a14.87,14.87,0,0,1-8.88-13.62V.63h0c-6.34,1.72-9.74,7-9.74,15V49.45a.38.38,0,0,1-.37.37.37.37,0,0,1-.37-.37V15.59c0-8-3.41-13.24-9.74-15h0V49.45a14.84,14.84,0,0,1-3,9l-.82.9c-.4.44-.83.89-1.28,1.33A14.85,14.85,0,0,1,42.7,64l-.51.07c-.82.11-1.68.19-2.58.27h0l-2.06.15-1.28.1-.61.06-.6,0c-.79.06-1.6.11-2.4.14-3.23.14-6.53,0-9.65-.06s-6.07-.13-8.59,0l-1.8.1c-.56,0-1.09.06-1.58.08-1,0-1.88,0-2.6,0H6.06S4.68,65,3.37,65s-2.62.14-2.62.14c-.28,0-.28,0,0,.06,0,0,1.3.07,2.61.18.78.06,1.56.14,2.07.19l.66.09L8.34,66l1.43.19-.62.16c-.88.21-1.76.41-2.42.59s-1.09.32-1.09.32c-.37.12-.35.16,0,.09,0,0,.44-.08,1.11-.16s1.56-.16,2.47-.26a16.38,16.38,0,0,0,2.53-.43l.3-.07.5,0c.58,0,1.15.08,1.76.14,2.45.22,5.28.65,8.35,1.17l1.18.2a41,41,0,0,1-4.87.45,23.59,23.59,0,0,0-5.24.72,7.26,7.26,0,0,0-2.17,1c-.34.24-.48.4-.46.43s.21-.07.56-.26a7,7,0,0,1,2.19-.67,22.84,22.84,0,0,1,5.11,0,43.26,43.26,0,0,0,5,.23,39,39,0,0,1-3.61,2.57,14.66,14.66,0,0,1-1.84,1c-.66.28-.65.36.06.17a14.18,14.18,0,0,0,2-.7,37.16,37.16,0,0,0,4.12-2.16c.73-.42,1.46-.82,2.15-1.17a20,20,0,0,1,1.92-.82h0c1.24.17,2.49.33,3.77.45.85.09,1.71.16,2.58.2l.64,0,.63,0,1.2.07,2,.12c-.74.65-1.44,1.29-2.09,1.92h0a22.87,22.87,0,0,1-2.22,1,13.22,13.22,0,0,1-2.24.67l-.62.1-.66.05c-.42,0-.89,0-1.38-.05a9.9,9.9,0,0,0-1.54,0,7.38,7.38,0,0,0-.74.1l-.7.14a14.91,14.91,0,0,0-2.42.72,16.74,16.74,0,0,0-2.21,1c-.73.41-.68.49.09.19a17.15,17.15,0,0,1,2.28-.71,14.14,14.14,0,0,1,2.39-.37c.22,0,.44,0,.67,0s.47,0,.67,0a8.15,8.15,0,0,1,1.34.19c.47.09,1,.2,1.49.26l.77,0a6.4,6.4,0,0,0,.76,0c.38,0,.74-.06,1.08-.11-.5.5-1,1-1.4,1.33a12.34,12.34,0,0,1-1.33,1,12.69,12.69,0,0,1-1.27.74c-.84.41-1.27.65-1.23.8s.54.17,1.5,0a11.36,11.36,0,0,0,1.52-.46,15.06,15.06,0,0,0,1.68-.76c.63-.33,1.31-.73,2-1.18s1.46-1,2.27-1.46c.32-.2.64-.4,1-.59,0,.34,0,.69,0,1A15.91,15.91,0,0,1,38.76,78a7.55,7.55,0,0,1-.34,1.21c-.17.41-.11.46.16.09a6.12,6.12,0,0,0,.64-1.15,15.77,15.77,0,0,0,.87-2.78c.2-.8.4-1.57.62-2.18a33.75,33.75,0,0,1,5.5-2.51,24.89,24.89,0,0,1,2.94-.83l.76-.16.85-.2c.55-.13,1.11-.27,1.66-.42s1.41-.42,2.1-.68l-.52.54a50.08,50.08,0,0,0-4,4.44,25,25,0,0,0-1.55,2.29l0,0a26.8,26.8,0,0,1-2.67,1.55l-1.27.61-1.27.59a12.89,12.89,0,0,0-2.14,1.31A7.68,7.68,0,0,0,39.83,81c-.28.32-.42.52-.42.51-.25.34-.34.52-.31.55s.18-.12.47-.41a8.16,8.16,0,0,1,1.84-1.42,11.14,11.14,0,0,1,2.18-.94c.42-.14.85-.28,1.3-.41s.93-.28,1.39-.44l.94-.35a23.75,23.75,0,0,0-1,3.23c-.21.82-.35,1.28-.35,1.28-.23.79-.31,1.21-.2,1.27s.42-.26.85-1c0,0,.24-.43.64-1.18a18.84,18.84,0,0,1,1.76-2.9c.19-.25.44-.54.68-.82s.52-.57.79-.86a21.75,21.75,0,0,1,1.78-1.64l.12-.1A37.8,37.8,0,0,1,55.59,73V73a11.91,11.91,0,0,0,.14,2.22c.09.67.2,1.29.26,1.87,0,.28,0,.63.07.9a8.42,8.42,0,0,1,0,.87,15,15,0,0,1-.4,3.15c-.21.93-.44,1.71-.6,2.25l-.26.85c-.33,1.08-.14,1.16.43.19l.45-.78c.28-.49.69-1.2,1.13-2.11A16.15,16.15,0,0,0,58,79.14c.08-.32.15-.64.21-1s.1-.64.15-1c.09-.7.13-1.38.18-2a9,9,0,0,1,.27-1.67,6.17,6.17,0,0,1,.6-1.36,9.52,9.52,0,0,1,.58-.88,1,1,0,0,1,0,.17,22,22,0,0,0,.31,5.15,15.17,15.17,0,0,0,.76,2.56c.08.2.17.39.25.57l.24.5c.16.34.32.67.49,1,.65,1.28,1.28,2.35,1.7,3.28a11.77,11.77,0,0,1,.81,2.35c.13.6.18,1,.19,1,.1.62.23.94.4,1s.37-.28.53-.91c0,0,.1-.36.23-1A13.91,13.91,0,0,0,66.15,84c0-1.2-.19-2.53-.27-3.85,0-.34,0-.67,0-1l0-.52v-.46a10,10,0,0,1,.24-1.74,16.37,16.37,0,0,1,1.27-3.32c.54-1.12,1.14-2.3,1.64-3.45l.13-.31c.23.35.46.71.72,1.07s.65.88,1,1.32a15.08,15.08,0,0,1,.77,1.94,12.37,12.37,0,0,1,.63,3.55,3.53,3.53,0,0,1,0,.46c0,.17,0,.36,0,.5a7.16,7.16,0,0,1-.09.92,13.76,13.76,0,0,1-.42,1.88c-.35,1.25-.77,2.47-1,3.56a12.31,12.31,0,0,0-.44,2.69c0,.66,0,1,0,1,.06.64.21.94.32.94s.19-.32.3-.91a6,6,0,0,1,.24-.91,11.54,11.54,0,0,1,1-2.24c.52-.9,1.23-1.91,2-3.11.2-.32.4-.66.59-1a16.12,16.12,0,0,0,.82,1.42,11.33,11.33,0,0,0,1.83,2.18c.56.52,1,.83,1,.83.34.27.37.23.07-.08a13.19,13.19,0,0,1-2.28-3.25,22.75,22.75,0,0,1-.86-2.22c.14-.31.27-.63.39-1l.18-.55c.06-.19.13-.4.18-.6.14-.52.24-1,.33-1.57.13.08.27.15.41.22a25.73,25.73,0,0,0,3,1.25,29.82,29.82,0,0,0,3.23.93,6.2,6.2,0,0,1,.87.7A5.55,5.55,0,0,1,85,80.91a7.55,7.55,0,0,1,.62,2.4c.11.88.15,1.81.21,2.67a20.63,20.63,0,0,0,.28,2.37,14,14,0,0,0,.61,2.24c.14.37.25.55.28.53s0-.2-.09-.58a13.15,13.15,0,0,1-.29-2.25A20.62,20.62,0,0,1,86.65,86c0-.85.14-1.77.16-2.73a11.15,11.15,0,0,0-.12-1.9c1,.84,2.24,1.74,3.48,2.56A14.77,14.77,0,0,1,92.75,86a25.85,25.85,0,0,1,2,2.23l1.82,2.29c.65.79.74.71.21-.14l-1.49-2.53a29.47,29.47,0,0,0-1.67-2.55,16.7,16.7,0,0,0-2.46-2.61c-1.25-1.1-2.42-2.3-3.44-3.38,1.6.16,3.19.24,4.77.29,2,0,3.88,0,5.77.08a12.13,12.13,0,0,1,2.67,1.08,17.49,17.49,0,0,1,1.59,1c.08.13.16.27.23.41a7.51,7.51,0,0,1,.7,2.13,5.59,5.59,0,0,1,.09,1.14,4,4,0,0,1-.19,1.07,16.64,16.64,0,0,1-.78,1.92,9.68,9.68,0,0,0-.52,1.43,5.2,5.2,0,0,0-.1.57c0,.37,0,.55.06.55s.05-.18.12-.52a3.22,3.22,0,0,1,.17-.52,7.92,7.92,0,0,1,.68-1.3A18.17,18.17,0,0,0,104,86.74a4.86,4.86,0,0,0,.39-1.24,7,7,0,0,0,0-2.38l1.92,1.52c.69.55,1.41,1.07,2.11,1.56l0,0a6.34,6.34,0,0,1,.77,1.69c.19.67.31,1.37.44,1.88s.23.85.23.85c.1.29.13.28.08,0,0,0-.07-.34-.12-.86s-.08-1.23-.18-1.94a5.69,5.69,0,0,0-.2-.93c.93.6,1.82,1.11,2.6,1.53.42.23.79.4,1.11.58s.6.35.82.5c.43.3.66.5.66.5.4.34.58.53.62.5s-.07-.29-.43-.69c0,0-.21-.24-.62-.61a9.78,9.78,0,0,0-.76-.63c-.3-.24-.68-.47-1-.74-.73-.54-1.58-1.2-2.44-1.94s-1.75-1.59-2.59-2.47-1.71-1.81-2.57-2.64c-.32-.31-.64-.61-.95-.89.24,0,.49,0,.73.06a32.53,32.53,0,0,1,5.36.93,22.68,22.68,0,0,1,2.37.77,20.55,20.55,0,0,1,2.11,1c1.34.71,2.52,1.49,3.57,2.18s2,1.31,2.75,1.8c1.55,1,2.49,1.45,2.49,1.46,1.61.84,2.51,1,2.54,1a13.56,13.56,0,0,0-2.24-1.47s-.87-.54-2.29-1.64c-.72-.55-1.57-1.25-2.56-2s-2.12-1.7-3.46-2.58A22.37,22.37,0,0,0,113.06,80,24.56,24.56,0,0,0,110.57,79,34.87,34.87,0,0,0,105,77.45c-3.94-.75-8.17-1-12.25-1.51a57.87,57.87,0,0,1-6-1,27.45,27.45,0,0,1-5.32-1.77A22.46,22.46,0,0,1,79.14,72a13.35,13.35,0,0,1-1.86-1.41,12.57,12.57,0,0,1-.89-.9,69.75,69.75,0,0,0,9.81,3.44,81.15,81.15,0,0,0,14,2.45c1.29.11,2.58.2,3.9.27l2,.08,1,0,1,0h.53c.39.11.79.24,1.22.38,1.73.58,3.72,1.38,5.83,2.33,1.05.47,2.14,1,3.25,1.5l.84.39.41.19.43.21a17.4,17.4,0,0,0,1.85.74c.26.09.52.16.78.23a9.68,9.68,0,0,0,1,.31A13.55,13.55,0,0,1,128,83.57a4.5,4.5,0,0,1,.42.3l.39.35c.25.25.5.52.73.78.46.53.9,1,1.31,1.45a6.94,6.94,0,0,0,1.51,1.17c.29.17.45.21.46.19s-.11-.13-.37-.32a6.85,6.85,0,0,1-1.28-1.32c-.34-.44-.69-1-1.08-1.59-.2-.3-.41-.61-.65-.91s-.24-.3-.38-.47a6.17,6.17,0,0,0-.46-.43l-.14-.11,1.49.07c1.16,0,2.27.07,3.31.15.52,0,1,.1,1.51.16s1,.09,1.43.16a23.08,23.08,0,0,1,4.29,1c1,.34,1.56.61,1.56.6a7.29,7.29,0,0,0,1.46.64s-.36-.42-1.3-1a15.84,15.84,0,0,0-1.53-.77,24.1,24.1,0,0,0-4.31-1.41c-.46-.11-1-.19-1.42-.29s-1-.22-1.54-.31c-1.07-.18-2.19-.32-3.34-.47a23.94,23.94,0,0,1-6.81-1.57,14.82,14.82,0,0,1-1.54-.78l-.38-.24-.41-.24-.8-.46c-1-.63-2.11-1.24-3.14-1.82q-.6-.35-1.2-.66l.52-.06c2.66-.32,5.26-.69,7.79-1,1-.1,2-.18,3-.24a6.67,6.67,0,0,1,.33.7c.12.26.24.54.4.85a5.05,5.05,0,0,0,.58.89,5.18,5.18,0,0,0,1.51,1.3,6,6,0,0,0,1.54.55l1.45.32c.49.13.55,0,.1-.23,0,0-.53-.3-1.31-.71a5.12,5.12,0,0,1-1.15-.81,3.88,3.88,0,0,1-.82-1.25,6.51,6.51,0,0,1-.37-1.68h.29l.87,0,.88.06A66,66,0,0,1,144.32,77l2.4.69a9.88,9.88,0,0,1,2.13,2.59c.49.81.77,1.37.78,1.37.25.48.29.46.08,0,0,0-.23-.59-.65-1.45A11.14,11.14,0,0,0,147.71,78l1.81.48,1.13.29,1.06.26q1,.24,1.89.39l3.56.61c2.22.37,3.32.61,3.37.47s-1-.63-3.21-1.21c0,0-1.28-.33-3.48-.93-.54-.16-1.14-.33-1.79-.55l-1-.35L150,77c-1.49-.54-3.16-1.19-5-1.91s-3.84-1.51-6-2.24a47.44,47.44,0,0,0-7.1-1.85l-1-.15-1-.13-1-.08-1-.07c-1.32-.06-2.64-.08-4-.07-2.66,0-5.31.17-7.92.23a63.34,63.34,0,0,1-7.59-.17l-.91-.1-.94-.12-1.87-.25-1.91-.29c3.8-.24,8.07-.53,12.32-.83,6.28-.45,12.53-.9,17.21-1.2l1.4-.09h1.53a9.89,9.89,0,0,1,2.37.91c1,.53,2,1.19,2.76,1.67s1.26.81,1.26.8c.44.27.51.18.16-.19l-1-1.11c-.47-.54-1.08-1.24-1.77-1.94a31.19,31.19,0,0,1,5.38,1c.53.15,1,.3,1.53.49s1,.39,1.55.61c1,.44,2.14.92,3.29,1.31a16,16,0,0,0,1.78.5c.61.11,1.2.17,1.79.22s1,.06,1.53.07l.07.18a5.09,5.09,0,0,1,.17,1.56,8.86,8.86,0,0,0,.09,1.61,2.58,2.58,0,0,0,.22.7c.13.22.14.21,0,0a2.07,2.07,0,0,1-.15-.7,8.72,8.72,0,0,1,.05-1.58,5.2,5.2,0,0,0,0-1.68l0,0,1.41,0a20.78,20.78,0,0,1,3.06.29,9.58,9.58,0,0,1,2.57.84,12.88,12.88,0,0,1,3.34,2.37,13.64,13.64,0,0,1,1.07,1.16A11.59,11.59,0,0,0,168.7,78a3.92,3.92,0,0,0-.74-1.31,12.34,12.34,0,0,0-1-1.26,13.12,13.12,0,0,0-3.3-2.7A10.58,10.58,0,0,0,161,71.62a24,24,0,0,0-3.16-.52c-1.1-.11-2.21-.2-3.32-.36a16,16,0,0,1-1.62-.31,14.41,14.41,0,0,1-1.55-.55c-1-.43-2-1-3.09-1.49-.42-.21-.85-.42-1.28-.61h4.31c3.17,0,6.23-.07,9.14-.16l.28.07a3.15,3.15,0,0,1,1.1.55c.37.28.75.63,1.15,1a8.73,8.73,0,0,0,1.36,1.05,6.74,6.74,0,0,0,1.61.6c.53.14,1,.24,1.54.33,1,.19,1.91.36,2.67.58a6.32,6.32,0,0,1,1.74.75,2.55,2.55,0,0,1,.53.47c.29.34.37.57.4.55s0-.25-.28-.65a3.22,3.22,0,0,0-.52-.54,6.18,6.18,0,0,0-1.74-1c-.76-.3-1.68-.55-2.64-.83-.48-.14-1-.29-1.47-.46a5.93,5.93,0,0,1-1.34-.64,8.69,8.69,0,0,1-1.1-1c-.28-.3-.56-.61-.87-.9,2.1-.09,4.1-.19,6-.32l1.83-.14.31.09a3.33,3.33,0,0,1,.77.36,7.38,7.38,0,0,1,.74.5,32.81,32.81,0,0,0,2.83,2.34,6.85,6.85,0,0,0,1.55.74,9.15,9.15,0,0,0,1.48.34c.93.14,1.69.23,2.21.37s.81.25.81.24c.5.19.73.32.74.3a2.52,2.52,0,0,0-.71-.38,6.12,6.12,0,0,0-.8-.28c-.53-.16-1.3-.3-2.2-.48a7.37,7.37,0,0,1-2.87-1.16,34.55,34.55,0,0,1-2.69-2.45,7.25,7.25,0,0,0-.89-.65l3.86-.42a52.37,52.37,0,0,1,5.32-.37,22.53,22.53,0,0,1,4.6.35,19.45,19.45,0,0,1,3.16.83,3.93,3.93,0,0,0,1,.33,3.08,3.08,0,0,0-.95-.57A14.93,14.93,0,0,0,185.78,66s-.29-.07-.84-.17a13.86,13.86,0,0,0,2.85-1.23,23.3,23.3,0,0,1,2.84-1.38,7.54,7.54,0,0,1,1.37-.37C192.49,62.8,192.49,62.78,192,62.83Z"/><path class="cls-1" d="M119.75,62.71H110V9.57H99.82V.71h11.07a8.86,8.86,0,0,1,8.86,8.86V62.71m-5-62h15.16V9.57h-9.37A9.69,9.69,0,0,0,114.77.71Z"/><path class="cls-1" d="M153.59,62.71h7.16V53.85h-16A8.86,8.86,0,0,0,153.59,62.71Zm-9.67-8.86a9.7,9.7,0,0,0,5.79,8.86H134.18V.71h15.53a9.69,9.69,0,0,0-5.79,8.86V26.84h13.37v8.85H143.92Z"/><path class="cls-1" d="M144.73,9.57A8.86,8.86,0,0,1,153.59.71h7.16V9.57Z"/><path class="cls-1" d="M85,62.74a14.1,14.1,0,0,1-9-9.67h0a4.63,4.63,0,0,0,3.76,1.49c3.1,0,5-1.68,5-6.11V15c0-4.43-2-6.11-5-6.11A4.43,4.43,0,0,0,75.51,11h0V.43h0A20.18,20.18,0,0,1,79.75,0c9.57,0,14.79,5.67,14.79,15.59V47.83C94.54,55.76,91.2,61,85,62.74Z"/><polygon class="cls-1" points="145.06 11.63 145.06 11.63 145.06 11.63 145.06 11.63"/><path class="cls-1" d="M144.73,9.57v2.06a4.33,4.33,0,0,1,4.15-2.06"/><path class="cls-1" d="M148.88,53.85a4.33,4.33,0,0,1-4.15-2.06v2.06"/><polygon class="cls-1" points="186.15 11.63 186.15 11.63 186.15 11.63 186.15 11.63"/><polygon class="cls-1" points="145.02 51.24 145.02 51.24 145.02 51.24 145.02 51.24"/><polygon class="cls-1" points="181.17 0.71 181.17 0.71 181.17 0.71 181.17 0.71"/><path class="cls-1" d="M182.18.71h-1A9.68,9.68,0,0,1,187,9.57V53.85a9.69,9.69,0,0,1-5.79,8.86h1c9.74,0,14.52-5.41,14.52-15.33V16C196.7,6.11,191.92.71,182.18.71Z"/><path class="cls-1" d="M186.15,53.85V51.79A4.33,4.33,0,0,1,182,53.85h-5.49V9.57H182a4.33,4.33,0,0,1,4.15,2.06V9.57A8.86,8.86,0,0,0,177.29.71H166.77v62h10.52A8.86,8.86,0,0,0,186.15,53.85Z"/><polygon class="cls-1" points="186.15 51.79 186.15 51.79 186.15 51.79 186.15 51.79"/></g></g></svg>