<svg xmlns="http://www.w3.org/2000/svg" viewBox="0 0 197.12 82.62"><defs><style>.cls-1{fill:#fff;}</style></defs><g id="Layer_2" data-name="Layer 2"><g id="Layer_1-2" data-name="Layer 1"><path class="cls-1" d="M30.26,4.87V12H7.12v16.1H24.47v7.08H7.12v16.1H30.26v7.08H0V4.87Z"/><path class="cls-1" d="M139.42,4.87V37.71a21.23,21.23,0,0,1-1.51,8.12,21.35,21.35,0,0,1-4.67,6.82v0a21,21,0,0,1-6.86,4.63,20.79,20.79,0,0,1-8.09,1.55,21.35,21.35,0,0,1-8.15-1.51,20,20,0,0,1-6.86-4.71,20.58,20.58,0,0,1-4.67-6.82,21.23,21.23,0,0,1-1.51-8.12V4.87h7.22v32.8a13.86,13.86,0,0,0,1,5.32,14,14,0,0,0,3.06,4.49,13.1,13.1,0,0,0,4.52,3.05,13.33,13.33,0,0,0,5.32,1,13.74,13.74,0,0,0,5.28-1A13.41,13.41,0,0,0,128,47.48,13.68,13.68,0,0,0,131.16,43a13.86,13.86,0,0,0,1-5.32V4.87Z"/><path class="cls-1" d="M146.61,4.87h7.14V58.29h-7.14Z"/><path class="cls-1" d="M160.94,43.17V4.87H179A17.66,17.66,0,0,1,186,6.2a18.26,18.26,0,0,1,5.85,4,18.42,18.42,0,0,1,4,5.82,18.34,18.34,0,0,1,1.29,6.93,18.21,18.21,0,0,1-1.29,6.94,18.42,18.42,0,0,1-4,5.78,18.63,18.63,0,0,1-5.89,4A18.43,18.43,0,0,1,179,40.94H168.09V58.29h-7.15Zm7.15-9.31h2.23l8.69,0a10.76,10.76,0,0,0,4.2-.79,11,11,0,0,0,3.56-2.41,11.79,11.79,0,0,0,2.37-3.56,10.12,10.12,0,0,0,.83-4.2,10.25,10.25,0,0,0-.83-4.17,11.59,11.59,0,0,0-2.37-3.55,11,11,0,0,0-3.52-2.45A10.72,10.72,0,0,0,179,12H168.09V33.86Z"/><path class="cls-1" d="M64.86,46.14a14.13,14.13,0,0,1-1.46.07,14.68,14.68,0,1,1,11.89-6.1l-.57-1a13.63,13.63,0,1,0-11.32,6l.91,0Zm5.87,10.47a26.19,26.19,0,1,1,10.69-6.19l1,1.69,8.29-4.78V15.78L63.4,0,36.08,15.78V47.33L63.4,63.1l8.28-4.78Zm-1.68-3a22.83,22.83,0,1,1,10.62-6.15l.82,1.38A24.33,24.33,0,1,0,69.83,55ZM94.5,75.44l-21.43-36a.6.6,0,0,1,0-.72A12,12,0,0,0,63,19.54l4.46,7.74A5.65,5.65,0,0,1,65.38,35a5.72,5.72,0,0,1-2.82.75,5.64,5.64,0,0,1-4.89-2.82L53.2,25.19A12,12,0,0,0,63.4,43.57c.45,0,.9,0,1.35-.07a.59.59,0,0,1,.63.39L85.88,80.5a5.6,5.6,0,0,0,4,2.12,5.1,5.1,0,0,0,2.54-.74C96.18,79.73,94.67,75.85,94.5,75.44ZM92.6,78a2.93,2.93,0,0,1-2.83,2.17A2.94,2.94,0,1,1,92.6,78Z"/></g></g></svg>