<svg xmlns="http://www.w3.org/2000/svg" viewBox="0 0 197.41 94.82"><defs><style>.cls-1,.cls-2,.cls-4,.cls-5,.cls-6,.cls-7{fill:none;stroke:#231f20;}.cls-1,.cls-4,.cls-5,.cls-6,.cls-7{stroke-miterlimit:10;}.cls-1,.cls-2,.cls-4{stroke-width:0.94px;}.cls-2{stroke-miterlimit:9;}.cls-3{fill:#231f20;}.cls-4,.cls-6,.cls-7{fill-rule:evenodd;}.cls-5,.cls-6,.cls-7{stroke-width:0.31px;}.cls-7{stroke-linecap:round;}</style></defs><g id="Layer_2" data-name="Layer 2"><g id="Layer_1-2" data-name="Layer 1"><path class="cls-1" d="M63.16,22.74c-.75-1.6-1.84-3.65-2.72-5.68-1.61-3.71-2.95-7.32-3.1-7.69a11.8,11.8,0,0,0-.58-1.53C55.92,6.46,54,5.35,54,3.86a7.59,7.59,0,0,1,1.27-2.68c.26-.08.26-.69.59-.71a5.28,5.28,0,0,1,2.38,1.11,6.12,6.12,0,0,1,.4,1.84c.39.4.54-.5.92-.11a2.59,2.59,0,0,1-.23,3.18c.54,1.7,1.11,2.14,2,3.67s1.93,2.45,2.45,3.91c.13.37.08.76.23,1.1.77,1.69,1.38,1.38,2.05,3.35C64.7,19.27,63.78,21.08,63.16,22.74Z"/><path class="cls-1" d="M73.55,25.87a21.92,21.92,0,0,1,1.66,2.92,5.89,5.89,0,0,0,1.63-1.57,5.75,5.75,0,0,1,2.15-2,10.63,10.63,0,0,1,1.49-.29,38.25,38.25,0,0,0,2.33-3.35,10.2,10.2,0,0,0,2-3.18c1.09-4.46-3.84-7.85-7.29-8.13-2.47-.21-5,.6-5.7,2.19-.15.36,0,.81-.11,1.21s-.62.86-.7,1.31,0,1.26-.12,1.72c-.21.86-1,1.3-1.16,2.4a6.18,6.18,0,0,0,1.41,4.26A9.51,9.51,0,0,1,73.55,25.87Z"/><path class="cls-1" d="M89.39,36.84c1.72,1,3.43,4.13,6,3.95,1.27-.09,1.88-1.31,3-2.07.39.25.12,1.12.69,1.2s.35-.77.58-1.09c.08.62,2.32.88,2.67.54.41,0,.52.32.93.33.43-.73,1.1-1.08,1-2.08,0-.36-.34-.55-.46-1-.33-1.12-.25-2.6-1.39-2.84-2.09-.44-5,0-6,1.75a5.61,5.61,0,0,0-1.46.76c-.45-.59-1.66-1.42-2.08-2.05A20.64,20.64,0,0,0,89.39,36.84Z"/><path class="cls-1" d="M69.2,44.23l.52-11.35,2.6-1.76h6.42l2.14,1s.84,5.26.91,5.52S83.6,49,83.6,49l.87.67c0,1.07,1.17,3.08.86,4.28,0,.3.43.1.46.32-.15.7.26,1.44,0,1.86a21.86,21.86,0,0,1,2.15,8.75c0,.53-.07,1,0,1.53.12,1,.55,1.3,1,2.3A23,23,0,0,1,89.77,72c.38,1.14.91,1.72,1.34,2.87,1.37,3.62.94,4,2.14,7.77,0,.38.43-.28.46.11.41,1,0,2.26.53,3.16.26.3.58-.15.81.11,1.38.89,1.28,2.13,2.81,3.49,1.33,1.18,4.51,1.55,4,3.93a3.11,3.11,0,0,1-2.08.88,18.41,18.41,0,0,1-4.38-.5c-.41-.23-.63-.79-1.54-1.22a4.57,4.57,0,0,0-2.17-.25c-2.57-.06-6.15-1.31-3.62-3.48.35-1.06,0-2.81,1-3.18-1.15-2.25-1.47-3.48-2.93-5.42A8.46,8.46,0,0,1,84.7,78c-.59-1.59-.43-2.34-1.31-3.85-.44-.75-.9-.84-1.34-1.67-.68-1.29-1-2.39-1.62-3.75s-.35-.92-.93-2.24c-1-.56-1-1.41-2.12-1.84.78-2.83-2-2.78-1.49-5.75-1,.06-1.81.7-2.74.74-1.26,0-2.37-.62-3.59-.66a24.82,24.82,0,0,0-3,.22c-1.15.14-2.18.92-3.13.88-1.23-.06-2.17-1.1-3.28-1.54-2.08-.83-1.87-.69-4.06-.34-.46,2.36.07,3.72-.79,6-.61,1.63-1.8,3.42-1.91,5,0,.57,0,.69,0,1.38,0,.34.06.1.11.4.09.55.64,1.06.69,1.63s-.21.59-.11,1.06c.15.77,1.14,1.31.93,2.41-1.11,1.13-3.16,1.11-5,1.31-2.23.24-3.15.66-5.63.78a10.9,10.9,0,0,1-3.24-.28c-.82-.39-1.28-1.1-.35-1.87.53-.45,1.59-.38,2.44-.77.41-.19.4-.6.85-.93a6.72,6.72,0,0,0,2.69-2.91c.26-.21.87-.09,1.16,0,.34-1.92.82-2.66,1-4.76.29-4.34,0-8.11,1-11.77.3-1.13.94-2.77,1.73-3.28,1.77-1.14,4.12-.93,6.73-1.48,2-.41,3.09-.68,4.77-1,1.25-.21,2.71.33,3.59.11.69-.17-.39-1,.7-.93a4.32,4.32,0,0,1,1.34-3.1Z"/><path class="cls-2" d="M88.55,28.33A10.47,10.47,0,0,0,85.24,26a23,23,0,0,0-3.43-.57h0A4.16,4.16,0,0,1,83.91,28c.32,1,1.08,6.46,1.08,6.46.71.66,1.75,1.66,2,1.85a.55.55,0,0,0-.24.28,5.49,5.49,0,0,0,1.1.94c.37,0,.73-.35.95-.35,1.49-1.06,2.89-2.44,4.05-2.93.31-.21.51-.06.53-.55A32.47,32.47,0,0,0,88.55,28.33Z"/><path class="cls-2" d="M68.16,24.38a4.65,4.65,0,0,1,1.61-1.44,2.55,2.55,0,0,1,.46-.16,2.42,2.42,0,0,1-1-1.39,1.4,1.4,0,0,1-.1-.16c-1.27-.68-2-1.9-3.08-2.71-1.39.79-2.36,2.71-3,4.48a6.16,6.16,0,0,0-.49,3.36c1,.75,2.73,1.18,3.2,2.43C65.76,29,66,30,66,30a24.74,24.74,0,0,1,1-3.67A9.54,9.54,0,0,1,68.16,24.38Z"/><path class="cls-3" d="M84.67,48.63A20.49,20.49,0,0,1,84.09,45c.2-1.46.24-2.29.33-3.69,0-.56.22-2.52.32-3A11.7,11.7,0,0,0,85,35.78V34.47S84.23,29,83.91,28a4.16,4.16,0,0,0-2.09-2.57h0l-.92-.19c-.59,0-1.52.06-1.68-.28a5.94,5.94,0,0,0-2.27,2.15,6.43,6.43,0,0,1-1.73,1.67,22.19,22.19,0,0,0-1.76-3.09A9.94,9.94,0,0,0,70.86,23l-.31-.08a1.92,1.92,0,0,1-.32-.14,2.55,2.55,0,0,0-.46.16,4.65,4.65,0,0,0-1.61,1.44A9.54,9.54,0,0,0,67,26.29,23.84,23.84,0,0,0,65.8,30c0,.2,0,.4,0,.61,0,1.36-.08,3.06,0,3.7.11.95.39,4.75.51,5.6.05.38.51,2.1.61,2.55.35,1.49.18,2.94.61,4.26,1,0,1.95,0,2.36.07a3.26,3.26,0,0,0,2.21-.56A2.2,2.2,0,0,0,73,44.36c0-.52-.25-4-.25-4.36,0-.56-.31-7.43-.23-8,.78,3.31,1.34,10,2.27,11.18a1.56,1.56,0,0,0,1.14.72,2,2,0,0,0,1.37-.82,10.6,10.6,0,0,0,1.11-3.05c.25-1.13.83-5.63,1.65-7.29,0,0-.79,8.26-.9,9.49A15.7,15.7,0,0,0,79,44.49a6.7,6.7,0,0,0,.32,2.66,2.94,2.94,0,0,0,1.42,1.61c1.12.59,1.73.9,2.47,1.37.57.36,1.45,1.18,2.18,1.78a2.63,2.63,0,0,1,.23-1.08C84.63,50.45,85,49.75,84.67,48.63Z"/><path class="cls-3" d="M49.28,52.36a6.67,6.67,0,0,0,3.27-1.91,12.61,12.61,0,0,0,1.69-4.19v-.12a12.93,12.93,0,0,0-.41-3.34,3.8,3.8,0,0,0-2.1-2.51,2.44,2.44,0,0,0-1-.23,10.86,10.86,0,0,0-5,.66q-.28-.34.46-5.19,1.11-7,1.34-10.3a40.2,40.2,0,0,0-.3-8.87,7.2,7.2,0,0,0-1.4-2.58,5.23,5.23,0,0,0-3.19-1.16,11.25,11.25,0,0,0-1.27,0,7,7,0,0,0-3.88.95A8.23,8.23,0,0,0,35,17.06,87.08,87.08,0,0,0,33,34c0,.28-.06.73-.14,1.36-.09.8-.15,1.39-.18,1.78l-.21,3.1q-.81,12,10.31,12.77A26.8,26.8,0,0,0,49.28,52.36Z"/><path class="cls-3" d="M32,39.88v.06c0,.21,0,.5-.05.87s0,.7,0,.87q-.48,9-7.51,11.87a19.1,19.1,0,0,1-8.31,1.36,13.94,13.94,0,0,1-9.41-3.78Q-.65,43.86.06,31.44A68.68,68.68,0,0,1,2,19.15a24.11,24.11,0,0,1,4.78-9.6,11.41,11.41,0,0,1,4.86-3.37,15.66,15.66,0,0,1,6.66-1,14.64,14.64,0,0,1,7.52,2.53,15.17,15.17,0,0,1,5.23,6,10.57,10.57,0,0,1,1,4.88,8.24,8.24,0,0,1-1.48,4.57,6,6,0,0,1-4.62,2.92q-4.35.21-7.46-4.3c0-.12-.09-.62-.17-1.49,0-.66-.34-1-.87-1l-.68,1.08c-.87,8.72-1.31,13.17-1.32,13.38-.07,1.2-.09,2.37-.07,3.53a2.4,2.4,0,0,0,1.37,2.36q1.43,0,5.08-2.89c2.43-1.94,4.08-2.88,4.95-2.84a5.49,5.49,0,0,1,2,.54Q32.26,35.69,32,39.88Z"/><path class="cls-3" d="M138.76,26.21A5.78,5.78,0,0,1,139,28a6.62,6.62,0,0,1-2.34,5.33,6.28,6.28,0,0,1-4.87,1.88,4.78,4.78,0,0,0-1.76,0,17.08,17.08,0,0,1-.28,3.77,2.31,2.31,0,0,0,1.31,2.07,6,6,0,0,1,3.94-.14A3.71,3.71,0,0,1,137.77,44a7.55,7.55,0,0,1-1.28,5.2,14.09,14.09,0,0,1-4.71,4.55,12.82,12.82,0,0,1-6.47,1.83,14,14,0,0,1-6-1,12.94,12.94,0,0,1-3.46-3.17q-2.57-3.91-3.09-16.77a118.65,118.65,0,0,1,.61-17q.56-5.55,2.91-7.28L126.07,9a23.42,23.42,0,0,1,4.8-.71q4.57-.16,5.49,2.09a6,6,0,0,1,.43,2.11,5.16,5.16,0,0,1-1.73,4.18,7.93,7.93,0,0,1-5.17,1.78l-1.29,0a7.39,7.39,0,0,0-.37,2.82c0,1.63,0,2.56-.07,2.8a1.4,1.4,0,0,0,1.27,1,6.73,6.73,0,0,1,4.24-1.51A6,6,0,0,1,138.76,26.21Z"/><path class="cls-3" d="M175.82,48.61l-.06.16a13.4,13.4,0,0,1-3.06,4,10.25,10.25,0,0,1-5.65,2.86q-5.53.58-11.31-11.24a25.38,25.38,0,0,1,.2,2.89,9.45,9.45,0,0,1-2,6.29,10.48,10.48,0,0,1-6,2.06,9.79,9.79,0,0,1-2.34-.26q-3.84-1-5-2.46c-1-1.3-1.56-3.63-1.56-7v-2.6q-.21-.18.13-11.6A160,160,0,0,1,140.73,12q.84-4.86,6.89-6.67a72.75,72.75,0,0,1,11.24-1.69q9.94.33,13.65,6.63a27.82,27.82,0,0,1,2.72,11.56,14.44,14.44,0,0,1-2.92,9,46.34,46.34,0,0,1-3.7,3.44q7.33,7.94,7.34,13.26A5.93,5.93,0,0,1,175.82,48.61ZM157.23,18.49h-.06a2.12,2.12,0,0,0-.65-.14,10,10,0,0,0-2,.92c-.18.17-.24,1.27-.2,3.31,0,2.38.07,4.64.07,6.76a11.81,11.81,0,0,0,4.19-2.44,4.61,4.61,0,0,0,1.72-3.35Q160.29,21.15,157.23,18.49Z"/><path class="cls-3" d="M183.5,41.23h0c1-.26,1.58-.78,1.61-1.56a1.16,1.16,0,0,0-.37-.82A20.29,20.29,0,0,0,182,37a19.76,19.76,0,0,1-2.9-2.12,12.1,12.1,0,0,1-2.3-3.3A12.48,12.48,0,0,1,175.49,26a10,10,0,0,1,3.21-7.28,11.55,11.55,0,0,1,8.49-3.55,10.06,10.06,0,0,1,5.15,1.34,11.46,11.46,0,0,1,3.08,3.21,3.9,3.9,0,0,1,.73,1.95,4.63,4.63,0,0,1-1,2.64l0,0q-1.4,1.95-2.91,1.95a6.38,6.38,0,0,1-1.43-.22c-.92-.23-1.46-1-1.6-2.42-.06-.55-.48-.83-1.25-.83a2,2,0,0,0-1.09.31,3.55,3.55,0,0,0-.47,1.73,3,3,0,0,0,1.38,2.47q5.11,3.64,6,4.51a9.84,9.84,0,0,1,3.47,6.45c0,.55.07,1.29.13,2.21q.09,5.6-6.73,8.71a11.73,11.73,0,0,1-4.86,1.17,7.08,7.08,0,0,1-1-.09l-.08,0q-8.34-1.35-9-6.28c-.11-.76-.19-1.28-.24-1.59s-.06-.39-.06-.28a3.14,3.14,0,0,1,.69-2,2,2,0,0,1,1.57-.87,8.87,8.87,0,0,1,2.31,1,7.22,7.22,0,0,0,2.65,1,3.69,3.69,0,0,0,.74-.09Z"/><path class="cls-3" d="M111.42,35.38a7.8,7.8,0,0,0-5.23-3.1,18.37,18.37,0,0,0,3.3-2.24,7.21,7.21,0,0,0,2-4.42,11.3,11.3,0,0,0-3.06-7.41c-1.85-1.9-4.59-3.14-8.25-3.72a17.91,17.91,0,0,0-3.07-.1q-7,.24-10.35,3.31c-.3.7-.45,4.25-.42,8.86a2.56,2.56,0,0,1,.48.33c.93.75,1.21,1,2.33,2A20.65,20.65,0,0,1,93,33.17l.23.32.17.22c-.25.45-.06.33-.53.55A26,26,0,0,1,95,36.38a6.32,6.32,0,0,1,1.46-.84c1-1.73,3.94-2.18,6-1.74,1.14.24,1.06,1.72,1.39,2.84.12.43.44.62.46,1,.06,1-.61,1.35-1,2.08-.41,0-.52-.31-.93-.33a3.33,3.33,0,0,1-2.3-.17c0,.07,0,.14,0,.21a13.15,13.15,0,0,1-.29,1.9,8.65,8.65,0,0,1-.83,1.81,3.46,3.46,0,0,1-2.24,1.21q-.14-1.23-.15-1.53c0-.3.06-1.14.21-2.54a.31.31,0,0,0,0-.1,2.35,2.35,0,0,1-1.38.63c-2.15.15-4.61-2.73-6-3.95-.08.06-.48.3-.57.35l-.95.35a3.16,3.16,0,0,0-.38-.26l-.72-.68c0,.41,0,1.1,0,1.75,0,.18,0,.64,0,1.39q.27,6.82.66,9.54s.08.58.17.92a5.53,5.53,0,0,0,.26.81c2.6,2.19,5.49,2.74,10.14,2.59a25.38,25.38,0,0,0,4.59-.55,28.08,28.08,0,0,0,6.87-3.54,11,11,0,0,0,3.84-8.35A8.65,8.65,0,0,0,111.42,35.38ZM98.91,29.2l-2.13,1.45a32.42,32.42,0,0,0-.27-6.53q.28-.6.63-.66c.06-.07.31-.11.74-.12,1.28-.05,2,.36,2.22,1.21l0-.05a4.44,4.44,0,0,1,.13.74A9,9,0,0,1,98.91,29.2Z"/><path class="cls-3" d="M63.82,36.35a2.44,2.44,0,0,1,0-.66c0-.26,0-.53,0-.79,0-.56-.05-1-.07-1.26a10.56,10.56,0,0,1,0-1.27c0-.7-.06-1.41-.1-2.14,0-.34-.2-2.3-.29-3.33a4.87,4.87,0,0,0-.89-.54c-.4-.23-.2-.77-.06-1.67a5.61,5.61,0,0,1,.33-1c.19-.37.3-.77.39-1-.25-.66-1.14-2.28-1.45-3-.31,0-1.57,0-1.94,0a6.26,6.26,0,0,0-5.32,3.09l-.86,2.54a50.38,50.38,0,0,0-.28,9A73,73,0,0,0,54.74,45q.67,3.42,4.42,3.21a10.72,10.72,0,0,0,1.11-.14q2.7-.89,3.16-4.68a66,66,0,0,0,.42-6.86A1.38,1.38,0,0,1,63.82,36.35Z"/><path class="cls-4" d="M77.37,64.6s3,1.4,4.62,1.91a40.35,40.35,0,0,0,5.13,1.26l1.35.15"/><line class="cls-5" x1="79.87" y1="66.59" x2="79.45" y2="65.51"/><path class="cls-6" d="M94.71,86.12a17.93,17.93,0,0,1-2,.22,9.73,9.73,0,0,1-1.68-.11c-.53-.07-1.87-.38-1.87-.38"/><path class="cls-6" d="M47.88,71.59a9.47,9.47,0,0,0,2,.4,6.16,6.16,0,0,0,2.2-.5,15.92,15.92,0,0,0,1.61-.72"/><path class="cls-6" d="M93.29,82.61s-1,.31-1.66.47-1.31.27-1.78.33-1.75.13-1.75.13"/><path class="cls-6" d="M53.58,68.74a6.88,6.88,0,0,1-1.19.2,5,5,0,0,1-1.76-.1,10.45,10.45,0,0,1-1.75-.54"/><path class="cls-7" d="M75.92,58.59A5.39,5.39,0,0,0,78,58.16a5.72,5.72,0,0,0,1.52-1.84"/><path class="cls-4" d="M61.33,59.13A11.06,11.06,0,0,1,59,55.39a6.7,6.7,0,0,1-.36-3.08A10.26,10.26,0,0,1,59.33,50"/></g></g></svg>