<svg xmlns="http://www.w3.org/2000/svg" viewBox="0 0 201.77 87.74"><defs><style>.cls-1{fill:#231f20;}</style></defs><g id="Layer_2" data-name="Layer 2"><g id="Layer_1-2" data-name="Layer 1"><path class="cls-1" d="M201.61,75c-2.22-12.47-26.76-10.72-28.31,1.26C171.15,92.79,204.4,90.68,201.61,75ZM173.88,54.63c.46,11.12,25.19,10.53,23.54-2C196,41.46,173.4,43.21,173.88,54.63Zm-7.16-17.55c1.77,9.11,23.63,8.32,21-3.82C185.51,23.23,164.52,25.82,166.72,37.08ZM155.2,20.53c.73,9.21,22.32,8.94,20-2.54C173.3,9,154.41,10.5,155.2,20.53Zm3.07-15c-1.64-8.28-17.42-6.81-17.66,1.53C140.35,16.47,160.39,16.24,158.27,5.52Zm9.91,54.28c2.76,7.24-.57,17.32-8.74,22.69a29.54,29.54,0,0,1-16.27,5,28.68,28.68,0,0,1-12.61-2.92c-9.57-4.67-19-12.41-19.44-12.74l-1.55-1.27.34-2.12c0-.25,4-24.9,4-32.69,0-8.18-2.82-22.93-2.85-23.08l-.75-3.84,3.52-.34a45.83,45.83,0,0,1,8,.07,52.23,52.23,0,0,1,9.15,2l-1.57,6a79.09,79.09,0,0,0-8.5-1.54c-1.2-.12-2.35-.17-3.36-.18.89,5.22,2.64,14.7,2.62,20.88,0,.33,0,.69,0,1.07l5.63.81s-.31,2.26-.45,3.41-.31,2.81-.31,2.81l-5.4-.47c-.85,8.32-1.23,17-1.8,21.8,3,2.7,9.23,8.88,15.4,12.08,7.37,3.83,17.11,1.91,21.49-1.72,3.33-2.76,5.75-5.37,5.09-10.11-.43-3.12-2.94-6.18-4.56-8-2.28-2.6-3.74-4.24-5.95-7.12-2.69-3.49-3.54-7.49-2.06-11,1.27-3,3.63-4.86,6.55-4.76,4.8.15,9,5.58,9.78,6.77l-3.61,4.31c-3.92-4.49-5.48-4.75-6.53-3.93-.78.62-1.21,2.12.44,4.12a21,21,0,0,0,5,4.31C162.35,52.53,166.6,55.66,168.18,59.8Zm-41.61-18a208.44,208.44,0,0,1,4.87-27.11l.93-3.59,3.15,1.3a37.1,37.1,0,0,1,5.89,3.06c1.39,1,4.76,3.64,5.86,6.94a20.54,20.54,0,0,1,.22,10.44c0,.23-.09.46-.13.7-.6,3.15-.79,7-5.46,10.16a5.5,5.5,0,0,1,.36.57,26.65,26.65,0,0,1,3,10.2,31.82,31.82,0,0,0,.9,5.61c1.19,4,6.24,11.6,7.73,14.48a12.88,12.88,0,0,1-3.06,2,25.19,25.19,0,0,1-4.74,1.22c-.23-.44-4.2-10-5.83-15.48a38.76,38.76,0,0,1-1.18-7c-.3-2.8-.43-6.21-1.72-7.65-1.09-1.21-2.41-1.33-4.92-1.83-1,12-1.64,28.49-1.64,28.66a36.85,36.85,0,0,1-3.13-2.09c-2.4-1.71-3.46-2.66-3.46-2.66C124.26,68.91,125.35,54.34,126.57,41.76ZM133,38.62c2.38.17,4.88,0,5.79-.49,1.44-.82,2-3.73,2.45-6.07,0-.25.09-.5.14-.74.53-2.73,1.14-6.27.3-7.65-1.36-2.25-5.16-4.09-5.75-4.4C134.5,25.68,133.7,33.69,133,38.62ZM51,47.8c-1,.13-2.33.25-3.5.33A47.94,47.94,0,0,0,51.69,59.5C52.6,61.44,54,64.2,54,64.2L50.6,66.43A65.87,65.87,0,0,1,38.07,73a28.91,28.91,0,0,1-9.38,1.53,32.92,32.92,0,0,1-6.32-.62A28.32,28.32,0,0,1,3.11,59.62C-4.7,44.35,4,31.78,9.66,27.26a27.71,27.71,0,0,1,11.89-5.43l1.75,5.06a23.59,23.59,0,0,0-11.27,6,18.67,18.67,0,0,0-5.3,10.95L26.58,42.4,23.8,48.78,7.19,51.36C8.82,57.18,15.32,65,23.8,66,36.2,67.49,42.4,63.57,45.07,62c-1.59-4.44-4.37-13-4.59-19.52a71.74,71.74,0,0,1,2.37-18.69l.64-2.36,2.21-.09c.12,0,3.07-.13,5.82,0A10.65,10.65,0,0,1,60,26.25c1.8,3,1.78,6.36,1.57,9-.18,2.15-.5,6.14-2.87,8.85A11.9,11.9,0,0,1,51,47.8Zm-.76-6.87a6.48,6.48,0,0,0,4-1.7c.84-1,1-3.36,1.14-4.66.18-2.23.1-4.15-.47-5.11a5.84,5.84,0,0,0-4-2.32c-1-.06-2.41-.21-3.32-.2-.64,2.93-1,9.36-.94,14.31C47.84,41.17,49.34,41.06,50.27,40.93Zm19.45-6.34c0-9.72,5.13-17.33,11.67-17.33s11.4,7.45,11.4,17.33-4.9,17.34-11.4,17.34S69.72,44.31,69.72,34.59ZM76.09,34c0,6,2.79,10.25,5.3,10.25,2.73,0,5-4.7,5-10.25s-2.3-10.87-5-10.87C78.88,23.09,76.09,27.93,76.09,34Zm34.09,20.57c-.59,4.72-1.51,11.24-2.11,15.4-1.89-1.22-4.6-2.85-6.59-4,.7-4,2.81-14.34,2.94-15.24.47-3.23,1-6.2.31-8-1.23-1.89-2.41-1.89-4.57-2.6-.15,1-.36,2.29-.63,3.32-2,7.85-7,18.29-7,18.29s-12.57-2.66-19.41-2.51a48.2,48.2,0,0,0-9,1.09c-1.69.42-4.52,1.39-4.52,1.39s2.93-15.06,3-23.59c0-6.84-1.78-16.83-1.79-16.93l5.87-.77c0,.43,1.95,10.43,2.06,17.74a112.16,112.16,0,0,1-.3,13.59c3.84.22,5.93.48,9.32.95,3.88.54,8.71,1.76,11.13,2.27a63,63,0,0,0,4.62-13.13,33.41,33.41,0,0,0,.2-15,34,34,0,0,0-3.08-8.15l-2.09-3.82,3.85-1.3c2.29-.76,6.34-2.06,7.83-2.14A9.74,9.74,0,0,1,106.8,13c1.81,1.36,3.19,3.9,4.22,7.74.92,3.44,1.7,7.42.48,10.75A11.81,11.81,0,0,1,107.58,37a9.06,9.06,0,0,1,2.76,3.74c1.31,3.62.78,7.25.21,11.09C110.43,52.72,110.3,53.61,110.18,54.53Zm-5.12-31.79c-.88-3.31-1.74-4-1.74-4a4.16,4.16,0,0,0-2.9-1.33,20.12,20.12,0,0,0-3.56.74,71.7,71.7,0,0,1,2.52,7,31.34,31.34,0,0,1,1.25,7.61,12,12,0,0,0,2.54-.87,5.07,5.07,0,0,0,2.57-3C106.12,27.88,105.89,25.81,105.06,22.74ZM18.76,62.89A12.31,12.31,0,0,0,22,64.27a18.75,18.75,0,0,0,4.06.67l6.14-16.19,5,15.33a25,25,0,0,0,3.39-1.34,29.1,29.1,0,0,0,3-1.61L35.7,39.6l7-18.24-2.38-.06c-1.46-.05-2.27-.12-3.68-.14l-4.07,10-3.63-10a54,54,0,0,0-6.21.53L29,39.55Z"/></g></g></svg>