<svg xmlns="http://www.w3.org/2000/svg" viewBox="0 0 196.33 65.68"><defs><style>.cls-1{fill:#fff;fill-rule:evenodd;}</style></defs><g id="Layer_2" data-name="Layer 2"><g id="Layer_1-2" data-name="Layer 1"><path class="cls-1" d="M171.27,53.4c0-6.12,0-12.72,0-18.93,0-3-.33-6.66.61-8.49.82-1.28,2.76-1.6,4.35-2.13l3-.93c2.08-.65,4.1-1.52,5.89-1.89a4.69,4.69,0,0,1,1.06-.06,7,7,0,0,1,.7.4,3.83,3.83,0,0,1-1.68,5.35c-1.38.63-3.11,1-4.69,1.51s-3.32,1-4.76,1.53c-.08,2.15-.08,4.44,0,6.58l4.12-1.3a22,22,0,0,1,5.09-1.38,7.74,7.74,0,0,1,.67.44,4,4,0,0,1-.65,4.8c-2.88,1.5-6.18,2.09-9.23,3.21-.09,2.13-.08,4.46,0,6.6,2.48-.79,5.05-1.6,7.44-2.38a11.15,11.15,0,0,1,3.6-.85c.21.14.45.26.67.42a3.76,3.76,0,0,1-.67,4.79c-1,.83-2.76,1.14-4.1,1.57-2,.65-4.2,1.35-6.2,2a14.52,14.52,0,0,1-4,1,2,2,0,0,1-1.2-1.87m-34-5.72c0,1.67,1.35,3.52,3.15,3.34.79-.26,1.07-1.17,1.15-2.07.25-2.88-.21-6.93,0-9.65,3.55,1.1,7.08,2.26,10.61,3.38.3,2.47-.23,6.83.06,9.8.15,1.58,1.15,3.4,3,3.32.85-.38,1.12-1,1.22-2.09.15-1.92,0-4.08,0-6.27V34.86c0-2.13.15-4.25,0-6.22a3.61,3.61,0,0,0-2-3.31,5.14,5.14,0,0,0-.88-.07c-.23.12-.46.2-.67.33a2.6,2.6,0,0,0-.68,1.59c-.32,3,.28,6.81-.05,9.74l-10.6-3.4c-.23-2.6.17-6.64,0-9.61a3.66,3.66,0,0,0-2-3.35c-.34,0-.68-.09-1-.12-.92.21-1.23,1-1.32,2-.17,2,0,4.18,0,6.32,0,6.12,0,13,0,18.93M105,42.06c-.25-5.64,1.65-12.8,6.23-16.92A12.38,12.38,0,0,1,118,21.92a7.52,7.52,0,0,1,5.29,1.85c1.38,1.5.52,4.78-1.37,5.28-1.23.32-1.67-.77-2.43-1.2a4.37,4.37,0,0,0-2.18-.39,8.62,8.62,0,0,0-4.52,2.17c-3.81,3.57-5.16,10.92-3,15.45a5.89,5.89,0,0,0,1.82,2.22,5.59,5.59,0,0,0,4.42.38c2.48-.8,4-3.17,5.73-5a6,6,0,0,1,.81-.28c.27,0,.54.08.8.13,1,.71,1,2.13.77,3.25-1.64,4-6.33,7.25-10.78,7.56a8.19,8.19,0,0,1-4.24-1c-3.19-2.35-4-6.49-4.18-10.27M74,48.35A4.15,4.15,0,0,0,75.22,51a50.44,50.44,0,0,0,7,2.46l3.09,1a14.92,14.92,0,0,0,4.12,1c.24-.12.47-.26.7-.4,1.06-1.5.44-3.65-.77-4.87a34.75,34.75,0,0,0-6-2.15c-1.7-.54-3.37-1.06-5-1.61,0-2.17-.06-4.42,0-6.57,1.37.4,2.73.86,4.12,1.29a22,22,0,0,0,5.08,1.37c.23-.12.46-.28.68-.42a3.83,3.83,0,0,0-1.65-5.4,39.76,39.76,0,0,0-4.11-1.31c-1.45-.46-2.87-.91-4.11-1.32-.07-2.17,0-4.41,0-6.58,1.54.46,3.08,1,4.65,1.46a27.39,27.39,0,0,0,5.77,1.59c.22-.16.47-.27.68-.43a3.91,3.91,0,0,0-.67-4.78,43,43,0,0,0-6.9-2.46L79,21.94a13.82,13.82,0,0,0-3.79-1c-.22.09-.42.22-.63.33s-.29.5-.44.75A68.19,68.19,0,0,0,74,29.38c0,6.3,0,12.68,0,19M58.33,45.77C56.88,43.88,55.41,42,54,40.07c3.22-2.7,4.7-7.78,4.15-12.09-.35-2.75-2.11-6.21-5.79-5.87-1.8.16-3.74,1.05-5.8,1.69a27.56,27.56,0,0,0-5.17,1.85c-1.7,1.57-1.19,5.64-1.19,9.16,0,6.07,0,12.91,0,18.78a2.79,2.79,0,0,0,.69,1.79l.65.28c4.42,0,2.6-7.53,3-11.67,1.7-.52,3.38-1.11,5.09-1.6,1.26,1.91,2.48,3.92,3.73,5.92a8.35,8.35,0,0,0,2,2.66c.28.05.55.1.82.13C58.47,50.55,59.37,47.66,58.33,45.77Zm-6-9.68c-1.76,1.58-5.44,1.8-7.63,2.85-.15-3-.07-6.19,0-9.22,2.61-.64,5.06-2,7.8-2.06.32.26.67.45,1,.7C54.76,30.45,54.21,34.37,52.29,36.09Zm-44.81-.9c.16-3.5.58-7.41,2.87-9.95a7.11,7.11,0,0,1,5.72-2.37c4,.29,7.79,3.27,9.79,6.57.74,1.21,1,3.12.08,4.19-.23.09-.45.21-.69.31l-.81-.11c-1.15-.54-1.63-1.82-2.35-2.68a7.67,7.67,0,0,0-5.15-2.68c-2.89-.21-4.48,2-5.12,4.27-1.09,3.88-.15,9.58,2.35,12.77,1.29,1.65,3.56,3.35,5.76,3.46,1.95.1,2.85-1.14,4.45-1.62,2.33.43,3.37,3.94,1.73,5.56A6.34,6.34,0,0,1,24.36,54a7.28,7.28,0,0,1-3.81.27A15.3,15.3,0,0,1,16,52.65C10,49.31,7.41,41.42,7.48,35.19m188.85-24V54.67a.79.79,0,0,1-.13.43.76.76,0,0,1-.38.3L163.65,65.67V20.81l29.42-9.63c-6-1.94-12-3.87-17.9-5.74L163.11,1.59,149.06,6.08c-5.31,1.69-10.77,3.43-16.17,5.18l29.72,9.55V65.68l-31.43-10V11.87l-.09,0-.14-.05-.26-.09-.29.1-.19.06-.07,0V55.64l-31.43,10V20.81l29.71-9.53c-6.19-2-12.48-4-18.58-6C106,4.07,102.06,2.84,98.19,1.59,94.65,2.73,91.11,3.85,87.56,5,81.12,7,74.49,9.15,67.94,11.27l29.73,9.54V65.68l-31.43-10V11.9l-.12,0-.14,0-.23-.08-.27.08-.18.07-.1,0V55.64l-31.46,10,0-44.87,29.71-9.53C57.2,9.22,50.81,7.19,44.6,5.22,40.81,4,37,2.81,33.25,1.59L21.44,5.36C15.39,7.29,9.15,9.28,3,11.27l29.73,9.54V65.68L.54,55.36a.9.9,0,0,1-.39-.29A.84.84,0,0,1,0,54.62V11.14a.71.71,0,0,1,.21-.47l0,0,0-.13.4-.13C7.42,8.2,14.31,6,21,3.88L33,0h0l.09,0h.26l.11,0h0L45.08,3.73c6.77,2.15,13.77,4.38,20.6,6.63C72.8,8.05,80.07,5.74,87.09,3.5L98,0h0l.1,0h.27l.09,0h0l11.88,3.79C117,6,123.88,8.15,130.63,10.36c6-1.95,12.07-3.89,18-5.76Q155.72,2.32,162.84,0a.52.52,0,0,1,.21,0h.1a.6.6,0,0,1,.22,0L175.64,4c6.57,2.09,13.35,4.25,20,6.43a.76.76,0,0,1,.35.12.88.88,0,0,1,.27.3A1.16,1.16,0,0,1,196.33,11.15ZM4,21.84c0,9.39,0,18.76,0,27.91.23,2.08,2.31,2.38,4.25,3C14.2,54.62,20,56.5,26.17,58.44c1.46.46,3.18,1.44,3.73-.15A15.92,15.92,0,0,0,30,54.45V30.34c0-2.5.34-5-1.36-5.9a20.78,20.78,0,0,0-2.91-.93c-6-1.91-11.65-3.69-17.69-5.66C6.7,17.41,4.7,16.3,4.14,18A15.35,15.35,0,0,0,4,21.84ZM62.48,45.76V21.41c0-1.73.35-4.05-1-4.39-.71-.19-2.36.58-3.07.81-6.16,2-11.61,3.74-17.84,5.7-2,.62-3.77.85-4.06,3.12a30.4,30.4,0,0,0,0,3.83V57.57a1.74,1.74,0,0,0,.83,1.53c.73.33,2.42-.5,3.06-.71,6.18-2,12-3.78,18-5.74,1.92-.63,3.68-.83,4.05-2.91A23.67,23.67,0,0,0,62.48,45.76ZM69,20.64V49.41c.06,2.31,2,2.6,4,3.26,6,1.93,11.86,3.82,18,5.75,1.41.44,3.14,1.42,3.75,0,.34-.79.17-2.51.17-3.77v-24c0-2.58.37-5.19-1.31-6.14a17,17,0,0,0-2.92-1c-6.5-2.08-13-4.16-19.41-6.19-.66-.21-1.19-.49-1.73-.11C68.75,17.82,69,19.54,69,20.64Zm58.46,25.07V21.79c0-1.81.36-4.24-.85-4.72-.7-.28-2.16.41-3,.68-6,2-11.81,3.83-17.79,5.7-2,.62-3.89.82-4.3,3a23,23,0,0,0,0,3.83V57.67a1.68,1.68,0,0,0,.8,1.41c.71.34,2.3-.44,3-.67,6.07-2,11.87-3.82,17.91-5.71,2-.64,3.87-.84,4.21-3.1A27.83,27.83,0,0,0,127.42,45.71Zm6.48-24.83V49.5c.09,2.25,2.18,2.57,4.15,3.2,6,1.93,11.83,3.82,18.07,5.77,1.39.44,3.11,1.38,3.65-.2.35-1,.09-2.73.09-3.91V30.15c0-2.5.32-4.67-1.23-5.62a15.17,15.17,0,0,0-2.93-1c-5.91-2-11.81-3.8-17.91-5.72-.91-.29-2.66-1.18-3.4-.48S133.9,19.74,133.9,20.88Zm58.43,24.88V21.26c0-1.64.29-3.7-.82-4.19-.75-.33-2.24.45-3.06.71-6.07,1.93-11.74,3.77-17.81,5.68-2,.62-3.75.83-4.2,2.85a20.16,20.16,0,0,0-.07,3.84V57.77a1.63,1.63,0,0,0,.76,1.3c.77.38,2.28-.41,3.06-.66,6-1.94,11.9-3.84,18-5.75,2-.61,3.72-.82,4.08-2.91A25,25,0,0,0,192.33,45.76Z"/></g></g></svg>