<?xml version="1.0" encoding="UTF-8"?>
<svg id="Layer_2" data-name="Layer 2" xmlns="http://www.w3.org/2000/svg" viewBox="0 0 119.39 81.56">
  <defs>
    <style>
      .cls-1 {
        fill: #fff;
        stroke-width: 0px;
      }
    </style>
  </defs>
  <g id="Layer_1-2" data-name="Layer 1">
    <g>
      <path class="cls-1" d="m59.05,40.01c0-.66-.12-1.62-.54-1.62-.36,0-1.5,2.46-1.98,5.58,1.2-.96,2.52-2.64,2.52-3.96Z"/>
      <path class="cls-1" d="m92.23,40.13c-1.08,1.86-2.52,6.12-2.52,9.42,0,2.82.48,4.2.78,4.2.24,0,3.3-5.1,3.3-9.54,0-2.82-.72-3.78-1.56-4.08Z"/>
      <path class="cls-1" d="m119.35,38.84c-.03-.72-.08-1.44-.14-2.16-.09-.73-.14-1.46-.28-2.18-.91-5.79-3.44-11.29-7.01-16-1.78-2.37-3.84-4.53-6.1-6.46-2.26-1.94-4.73-3.64-7.33-5.1-5.22-2.9-10.94-4.9-16.78-5.92l-1.1-.2-1.1-.15c-.73-.09-1.47-.22-2.2-.29l-2.21-.2c-.74-.07-1.47-.08-2.21-.12-1.48-.09-2.94-.04-4.42-.05-.73.02-1.47.05-2.2.09-.73.03-1.47.07-2.19.14l-2.19.19c-.73.07-1.45.18-2.18.27-1.45.17-2.89.43-4.34.67-.72.11-1.44.29-2.16.43-.72.16-1.44.28-2.16.47l-2.15.55c-.71.18-1.42.42-2.13.62-.71.21-1.42.42-2.12.68l-2.1.74c-1.39.56-2.77,1.1-4.13,1.76-2.72,1.27-5.37,2.73-7.85,4.52l-.47.32-.46.35-.91.7c-.3.24-.61.46-.9.71l-.87.76-.86.76c-.28.26-.55.54-.82.81-.54.55-1.1,1.08-1.6,1.68-2.08,2.3-3.85,4.9-5.22,7.7-1.37,2.81-2.3,5.83-2.74,8.89-.1.77-.16,1.53-.24,2.3-.06.77-.05,1.53-.08,2.29.02,1.53.12,3.04.34,4.53.43,2.98,1.24,5.85,2.31,8.57,1.03,2.55,2.31,4.96,3.73,7.25-.93,2.03-2.01,4.06-3.16,6.01-1.27,2.11-2.63,4.17-4.15,6.1-1.51,1.94-3.17,3.76-5.01,5.36-.93.79-1.89,1.55-2.91,2.2-1.02.65-2.1,1.22-3.21,1.68l-3.35,1.36,3.57-.25h0c2.62-.04,5.2-.28,7.78-.66,2.58-.38,5.14-.94,7.68-1.68,1.27-.38,2.52-.81,3.77-1.3,1.24-.49,2.47-1.05,3.67-1.68,1.2-.64,2.37-1.35,3.5-2.14.47-.35.94-.7,1.39-1.07.55.52,1.14.98,1.71,1.44.61.46,1.25.86,1.87,1.29l1.95,1.11c1.33.65,2.66,1.29,4.04,1.77,1.35.57,2.76.91,4.14,1.33.17.05.35.1.52.15l.53.11,1.05.22,2.1.46,4.24.59,4.25.32c.35.04.71.03,1.06.04h1.06s2.12.04,2.12.04c1.41.06,2.82-.08,4.23-.12,1.41-.07,2.82-.08,4.21-.26l4.2-.42c.7-.06,1.4-.16,2.09-.26l2.09-.29,2.08-.37c.35-.06.69-.12,1.04-.19l1.03-.22c.69-.15,1.38-.29,2.06-.46l2.05-.53c2.72-.76,5.39-1.67,8-2.77,2.6-1.12,5.11-2.45,7.48-3.99,2.37-1.55,4.59-3.35,6.59-5.39,1.99-2.04,3.75-4.32,5.21-6.78.36-.61.69-1.25,1.03-1.88.3-.65.63-1.29.91-1.95.27-.66.57-1.32.8-2l.36-1.01c.11-.34.21-.69.31-1.03.83-2.75,1.33-5.6,1.5-8.48l.06-1.08.02-1.08c.03-.72-.02-1.44-.03-2.16Zm-29.46,16.41c-1.73,0-4.9-.18-4.92-6-1.33,2.95-3.02,6-4.32,6-2.63,0-4.06-3.54-4.7-8.65-1.35,3.37-3.73,8.65-5.44,8.65-2.67,0-4.11-3.67-4.73-8.93-1.56,3.35-4.61,8.93-7.63,8.93-3.78,0-7.08-3.12-7.08-8.22s2.82-10.14,6.66-10.14c.9,0,4.14.48,4.14,3.18,0,2.4-2.52,4.74-5.46,5.4-.06.3-.06.6-.06.96,0,4.2,1.68,5.82,2.64,5.82,2.96,0,6.12-7.68,6.55-8.75-.08-1.4-.13-2.87-.13-4.39,0-7.86,1.02-16.38,1.38-16.92.36-.48,1.5-.66,2.28-.66,1.02,0,2.34.36,2.34,1.38,0,.96-1.08,9.78-1.08,17.52,0,5.04.18,11.46.96,11.46,1.28,0,3.99-7.3,4.39-8.38-.08-1.4-.13-2.88-.13-4.4,0-7.86,1.02-16.38,1.38-16.92.36-.48,1.5-.66,2.28-.66,1.02,0,2.34.36,2.34,1.38,0,.96-1.08,9.78-1.08,17.52,0,5.04.18,11.46.96,11.46,1.27,0,3.95-7.19,4.38-8.35.93-2.99,2.49-4.97,3.84-4.97,1.68,0,2.94.3,3.12.6,1.5.18,2.64,1.68,2.64,5.04s-2.22,11.04-5.52,11.04ZM33.55,22.07c.54-.48,1.14-.54,1.86-.54,1.02.12,2.28.42,2.46,1.14.12.36-.36,10.8-.78,19.98,3.12-.54,5.22-.78,6.48-.9,0-8.58.42-17.52,1.26-19.5.3-.36.36-.72,1.32-.72,1.44,0,2.1.48,2.28,1.32.66,3.24-1.08,33.06-1.86,35.58-.06.3-.66.54-1.2.54-.48,0-.9-.18-1.02-.54-.48-1.86-.78-7.98-.78-14.7-4.5.42-6.12.84-6.6,1.02-.3,6.18-.54,11.28-.54,11.76s-.54.66-1.2.66c-.9,0-2.1-.42-2.22-.96-2.04-14.28.06-33.72.54-34.14Zm66.72,30.06c2.04,0,2.76.9,2.76,2.1,0,.96-.9,3.06-2.94,3.06s-2.64-2.04-2.64-3.06c0-.96.78-2.1,2.82-2.1Zm1.2-2.16c-.12.24-.66.42-1.2.42-.48,0-.9-.12-1.02-.42-1.14-3.42-1.14-25.02.48-27.9.3-.3.3-.54,1.32-.54,1.44,0,2.04.36,2.22,1.02.72,2.52-1.02,25.5-1.8,27.42Zm-71.59,21.16s0,0,0,0l.04.04s-.03-.03-.04-.04Zm2.26.91h-.02s0,.02,0,.02h0s.02-.02.02-.02h0Z"/>
    </g>
  </g>
</svg>