<?xml version="1.0" encoding="UTF-8"?><svg id="Layer_2" xmlns="http://www.w3.org/2000/svg" xmlns:xlink="http://www.w3.org/1999/xlink" viewBox="0 0 2005.91 1397.54"><defs><style>.cls-1{fill:none;}.cls-2{clip-path:url(#clippath);}.cls-3{fill:#365b6d;}.cls-4{clip-path:url(#clippath-1);}.cls-5{clip-path:url(#clippath-3);}.cls-6{clip-path:url(#clippath-2);}</style><clipPath id="clippath"><rect class="cls-1" x="210.67" y="661.77" width="766.67" height="354.23"/></clipPath><clipPath id="clippath-1"><rect class="cls-1" x="1016" y="661.77" width="766.67" height="354.23"/></clipPath><clipPath id="clippath-2"><rect class="cls-1" x="1098.67" width="496.61" height="673.33"/></clipPath><clipPath id="clippath-3"><rect class="cls-1" x="406.28" width="493.72" height="673.33"/></clipPath></defs><g id="Layer_1-2"><g class="cls-2"><path class="cls-3" d="M211.06,722.71l171.96-60.94s429.9,7.81,594.04,260.94v92.19s-250.12-292.19-765.99-292.19Z"/></g><path class="cls-3" d="M171.97,777.4l93.8-31.25s437.71,0,687.83,260.94c0,1.56-328.29-214.06-781.63-229.69Z"/><path class="cls-3" d="M125.08,914.9l46.9-92.19s500.24,15.63,765.99,184.38c0,1.56-625.3-137.5-812.89-92.19Z"/><path class="cls-3" d="M93.81,993.02s281.39-92.19,844.16,46.88c0,0-578.41-60.94-859.79,0l15.64-46.88Z"/><g class="cls-4"><path class="cls-3" d="M1782.13,722.71l-171.96-60.94s-429.9,7.81-594.04,260.94v92.19s250.13-292.19,766-292.19Z"/></g><path class="cls-3" d="M1821.21,777.4l-93.79-31.25s-437.71,0-687.83,260.94c0,1.56,328.28-214.06,781.63-229.69Z"/><path class="cls-3" d="M1868.11,914.9l-46.9-92.19s-500.24,15.63-765.99,184.38c0,1.56,625.3-137.5,812.9-92.19Z"/><path class="cls-3" d="M1899.38,993.02s-281.39-92.19-844.16,46.88c0,0,578.41-60.94,859.79,0l-15.63-46.88Z"/><path class="cls-3" d="M1321.89,811.63c-10.79,0-20.56,.11-30.31,0-5.14-.07-10.27-.62-17.62-1.1-5.16-90.79-41.79-165.16-115.52-219.06-51.74-37.83-110.47-55.06-174.16-51.3-113.93,6.76-247.41,94.47-258.16,269.93h-45.93c-11.28-33.64,13.02-126.92,53.21-182.63,39.06-54.09,89.35-93.77,154.21-120.07-64.08-48.88-94.17-110.71-88.41-188.2,3.94-52.98,26.9-97.03,66.34-132.33,77.04-69.03,195.41-71.45,275.38,5.38,45.6,43.84,65.4,98.79,60.49,162.42-4.9,63.63-36.43,112.47-88.29,152.88,82.94,34.38,144.33,88.49,181.07,167.71,23.11,49.77,32.12,98.09,27.68,136.36Zm-323.05-325.07c70.95,4.85,150.73-55.83,151.63-148.54,.8-81.83-68.53-151.5-150.77-150.48-85.02,1.06-149.66,68.71-149.74,149.63-.07,95.4,83.18,154.07,148.88,149.4Z"/><g class="cls-6"><path class="cls-3" d="M1384.31,371.82c131.46,58.68,202.28,156.35,210.91,301.03-15.49,0-29.1,.39-42.67-.15-7.88-.32-8.4-6.75-8.69-13.03-2.04-43.6-14.86-84.17-37.42-121.22-43.37-71.25-105.91-115.73-188.6-130.07-20.51-3.51-41.55-4.07-64.91-6.22,2.07-13.84,3.89-27.82,6.33-41.7,1.57-8.96,9.09-7.97,15.65-8.06,7.41-.05,14.76-.69,22.07-1.9s14.47-2.99,21.5-5.34,13.82-5.23,20.4-8.65c6.57-3.42,12.83-7.33,18.78-11.74,40.69-29.73,61.78-68.97,64.31-120.41,2.89-58.54-39.02-134.08-120.84-149.82-56.13-10.79-105.33,6.05-143.99,49.61-4.32,4.88-8.35,10.01-13.53,16.22l-43.92-22.95c37.33-59.07,89.45-91.77,156.07-96.08,86.82-5.61,155.68,30.5,194,108.93,49.66,101.56,20.46,188.51-65.45,261.54Z"/></g><g class="cls-5"><path class="cls-3" d="M857.83,119.92c-61.65-78.44-140.88-79.33-194.3-53.48-62.7,30.39-89.8,93.33-85.53,145.91,2.14,26.38,10.35,51.26,25.92,73.48,7.52,10.85,16.28,20.61,26.26,29.26,9.98,8.65,20.88,15.93,32.7,21.83,23.93,12.09,49.51,16.27,77.42,16.03,2.59,17.31,4.98,33.14,7.56,50.27-7.79,.36-13.56,.92-19.34,.87-129.47-1.17-246.37,94.95-269.36,229.12-1.32,7.74-.86,15.76-1.8,23.58-1.52,12.86-4.76,15.88-17.4,16.3-10.36,.35-20.73,.07-33.73,.07,.62-68.77,20.79-128.35,58.17-182.36,37.6-54.42,88.99-92.01,153.17-118.71-72.22-57.28-102.65-128.13-84.48-215.58,11.83-57.04,45.54-100.25,95.82-129.42,101.51-58.89,223.53-14.99,270.89,70.8-6.82,3.51-13.7,6.84-20.47,10.41-6.77,3.57-13.77,7.43-21.49,11.63Z"/></g><path class="cls-3" d="M1662.57,1144.33h-37.91v73.04l37.91,.13c22.93,.13,41.63-16.17,41.63-36.19s-18.69-36.99-41.63-36.99Zm-625.59,0h-33.67v69.86h33.67c20.15,.13,36.99-16.17,36.99-35.26s-17.1-34.6-36.99-34.6Zm214.1-3.18c-42.16,0-76.49,34.47-76.49,76.76s34.33,76.36,76.49,76.36,76.76-34.34,76.76-76.36-34.6-76.76-76.76-76.76Zm-196.22-77.34l-32.48-31.72c-12.51-12.5-31.27-12.5-43.77,0l-32.48,31.72H0v299H2005.91v-299h-951.05ZM238.93,1324.76H110.07v-213.7h33.54v180.29h95.32v33.41Zm60.32,0h-33.54v-213.7h33.54v213.7Zm168.36-180.82h-93.73v57.14h80.87v33.41h-80.87v90.54h-33.54v-214.5h127.27v33.41Zm153.91,.13h-93.73v54.75h80.87v33.41h-80.87v59.13h93.73v33.41h-127.27v-213.7h127.27v33.01Zm215.69,184.27c-62.17,0-111.49-49.58-111.49-110.16s49.58-110.69,110.3-110.69c26.91,.13,57.67,13.12,77.82,32.74l-18.69,27.84c-16.7-16.44-39.24-26.78-59.52-26.78-38.97,0-75.83,32.61-75.83,76.89,0,41.89,33.27,76.36,78.88,76.36,36.72,0,64.3-22.4,64.3-55.02v-.66h-66.15v-30.76h101.15c.53,4.91,.93,10.74,.93,16.7,0,63.5-46.13,103.54-101.68,103.54Zm250.02-3.58l-57.54-82.72h-26.25v82.72h-33.54l-.13-213.7h66.42c39.77,0,72.38,30.62,72.38,68.67,0,27.57-17.76,51.57-42.29,59.52l62.17,85.51h-41.23Zm163.85,3.45c-60.72,0-110.3-49.58-110.3-110.03s49.58-110.83,110.43-110.83,110.56,49.85,110.56,110.83-49.85,110.03-110.7,110.03Zm301.06-84.45c0,49.05-35.4,84.98-80.87,84.98s-80.73-35.93-80.73-84.98v-132.7h33.67v132.57c0,29.56,20.81,51.17,46.93,51.17s47.19-21.61,47.19-51.17v-132.57h33.8v132.7Zm110.43,6.89h-37.91v74.11h-33.54v-213.7h71.45c41.36,0,75.17,31.68,75.17,70.53s-33.81,69.07-75.17,69.07Zm163.46,77.68c-35.13,0-61.78-16.44-73.97-41.1l26.51-18.96c9.54,16.7,27.31,26.25,47.86,26.25,24,0,42.16-11.53,42.16-27.84,0-19.75-28.1-31.68-53.03-42.42-25.06-11.14-52.9-24.13-52.9-57.67s30.36-59.39,68.8-59.39c30.49,0,53.29,14.71,62.04,38.18l-24.92,17.23c-6.63-14.45-21.34-22.54-36.85-22.54-19.62,0-35.26,12.2-35.26,27.31,0,16.7,19.75,22.67,45.74,33.8,33.81,14.85,60.05,31.15,60.05,64.83,0,37.91-32.88,62.31-76.23,62.31Z"/></g></svg>