<?xml version="1.0" encoding="utf-8"?>
<!-- Generator: Adobe Illustrator 26.4.1, SVG Export Plug-In . SVG Version: 6.00 Build 0)  -->
<svg version="1.1" id="Layer_1" xmlns="http://www.w3.org/2000/svg" xmlns:xlink="http://www.w3.org/1999/xlink" x="0px" y="0px"
	 viewBox="0 0 275.8 303.2" style="enable-background:new 0 0 275.8 303.2;" xml:space="preserve">
<style type="text/css">
	.st0{fill:#0B6830;}
	.st1{clip-path:url(#SVGID_00000106849758110462577980000011213209477898161041_);}
	.st2{fill:#1D70B7;}
	.st3{clip-path:url(#SVGID_00000155146529743914166000000001819374268082601859_);}
	.st4{clip-path:url(#SVGID_00000136387180337976464310000007360334659229176217_);}
	.st5{clip-path:url(#SVGID_00000062180161765459295000000008302304133669388730_);}
	.st6{clip-path:url(#SVGID_00000000925571892747929190000005074155086241739416_);}
	.st7{clip-path:url(#SVGID_00000002354702977844591590000010999370155155889321_);}
	.st8{clip-path:url(#SVGID_00000070083927471427120570000010490121946953495455_);}
	.st9{clip-path:url(#SVGID_00000060744387349909643850000007707670600605889471_);}
	.st10{fill:#0A3E6A;}
	.st11{font-family:'ShreeDev0714';}
	.st12{font-size:29.1316px;}
</style>
<path class="st0" d="M185.3,85.7h-65.6c-1,0-1.7-0.8-1.7-1.7c0-1,0.8-1.7,1.7-1.7l0,0h65.6c1,0,1.7,0.8,1.7,1.7
	C187.1,84.9,186.3,85.7,185.3,85.7"/>
<path class="st0" d="M86.7,85.7H20.9c-1,0-1.7-0.8-1.7-1.7c0-1,0.8-1.7,1.7-1.7l0,0h65.8c1,0,1.7,0.8,1.7,1.7
	C88.4,84.9,87.7,85.7,86.7,85.7"/>
<path class="st0" d="M103.1,69.4c-1,0-1.7-0.8-1.7-1.7V1.7c0-1,0.8-1.7,1.7-1.7c1,0,1.7,0.8,1.7,1.7v65.9
	C104.8,68.6,104,69.4,103.1,69.4"/>
<g>
	<defs>
		<rect id="SVGID_1_" x="23.1" y="56.8" width="66.1" height="23.8"/>
	</defs>
	<clipPath id="SVGID_00000065042401718631182740000016971934027745132729_">
		<use xlink:href="#SVGID_1_"  style="overflow:visible;"/>
	</clipPath>
	<g style="clip-path:url(#SVGID_00000065042401718631182740000016971934027745132729_);">
		<path class="st2" d="M87.5,80.6c-0.2,0-0.4,0-0.5-0.1L24.3,60.2c-0.9-0.3-1.4-1.3-1.1-2.2c0.3-0.9,1.3-1.4,2.2-1.1l0,0L88,77.2
			c0.9,0.3,1.4,1.3,1.1,2.2C88.9,80.2,88.2,80.6,87.5,80.6"/>
	</g>
</g>
<g>
	<defs>
		<rect id="SVGID_00000059310896206872689290000005028372993796138901_" x="116.9" y="56.8" width="66.1" height="23.8"/>
	</defs>
	<clipPath id="SVGID_00000101806395689259366310000016465127064536666294_">
		<use xlink:href="#SVGID_00000059310896206872689290000005028372993796138901_"  style="overflow:visible;"/>
	</clipPath>
	<g style="clip-path:url(#SVGID_00000101806395689259366310000016465127064536666294_);">
		<path class="st2" d="M118.7,80.6c-1,0-1.7-0.8-1.8-1.7c0-0.8,0.5-1.4,1.2-1.7l62.6-20.3c0.9-0.3,1.9,0.2,2.2,1.1
			c0.3,0.9-0.2,1.9-1.1,2.2l-62.6,20.3C119,80.6,118.9,80.6,118.7,80.6"/>
	</g>
</g>
<g>
	<defs>
		<rect id="SVGID_00000036216267025112353270000016398572577680111005_" x="115" y="33.9" width="56.4" height="41.9"/>
	</defs>
	<clipPath id="SVGID_00000108992283526572047140000012008391234286392246_">
		<use xlink:href="#SVGID_00000036216267025112353270000016398572577680111005_"  style="overflow:visible;"/>
	</clipPath>
	<g style="clip-path:url(#SVGID_00000108992283526572047140000012008391234286392246_);">
		<path class="st2" d="M116.7,75.8c-1,0-1.7-0.8-1.7-1.8c0-0.6,0.3-1.1,0.7-1.4l52.9-38.4c0.7-0.7,1.8-0.6,2.5,0.1
			c0.7,0.7,0.6,1.8-0.1,2.5c-0.1,0.1-0.2,0.2-0.4,0.3l-52.9,38.4C117.4,75.7,117.1,75.8,116.7,75.8"/>
	</g>
</g>
<g>
	<defs>
		<rect id="SVGID_00000153689197693167999480000001495347064860077715_" x="111.3" y="15.7" width="41.9" height="56.3"/>
	</defs>
	<clipPath id="SVGID_00000147194130667868518490000013635472987170112671_">
		<use xlink:href="#SVGID_00000153689197693167999480000001495347064860077715_"  style="overflow:visible;"/>
	</clipPath>
	<g style="clip-path:url(#SVGID_00000147194130667868518490000013635472987170112671_);">
		<path class="st2" d="M113,72.1c-1,0-1.7-0.8-1.7-1.7c0-0.4,0.1-0.7,0.3-1L150,16.4c0.5-0.8,1.5-1.1,2.4-0.7s1.1,1.5,0.7,2.4
			c-0.1,0.1-0.1,0.2-0.2,0.3l-38.4,52.9C114.1,71.8,113.6,72,113,72.1"/>
	</g>
</g>
<g>
	<defs>
		<rect id="SVGID_00000183933709377531296080000011051173307339416981_" x="106.3" y="4" width="24" height="66.5"/>
	</defs>
	<clipPath id="SVGID_00000017497453430785513530000005998771952288089255_">
		<use xlink:href="#SVGID_00000183933709377531296080000011051173307339416981_"  style="overflow:visible;"/>
	</clipPath>
	<g style="clip-path:url(#SVGID_00000017497453430785513530000005998771952288089255_);">
		<path class="st2" d="M108,70.5c-0.2,0-0.4,0-0.5-0.1c-0.9-0.3-1.4-1.3-1.1-2.2l20.5-63c0.3-0.9,1.2-1.5,2.2-1.2
			c0.9,0.3,1.5,1.2,1.2,2.2c0,0,0,0.1,0,0.1l-20.5,63C109.4,70,108.8,70.5,108,70.5"/>
	</g>
</g>
<g>
	<defs>
		<rect id="SVGID_00000023275075256428617410000011766649144227830445_" x="34.8" y="33.9" width="56.7" height="42.2"/>
	</defs>
	<clipPath id="SVGID_00000001658980269466690300000008672093887407413433_">
		<use xlink:href="#SVGID_00000023275075256428617410000011766649144227830445_"  style="overflow:visible;"/>
	</clipPath>
	<g style="clip-path:url(#SVGID_00000001658980269466690300000008672093887407413433_);">
		<path class="st2" d="M89.8,76.1c-0.4,0-0.7-0.1-1-0.3L35.5,37c-0.9-0.4-1.2-1.5-0.7-2.4s1.5-1.2,2.4-0.7c0.1,0.1,0.3,0.2,0.4,0.3
			l53.3,38.7c0.8,0.6,1,1.7,0.4,2.4C90.9,75.8,90.4,76.1,89.8,76.1"/>
	</g>
</g>
<g>
	<defs>
		<rect id="SVGID_00000139277812712123094330000011792619454197737605_" x="53" y="15.7" width="42.2" height="56.7"/>
	</defs>
	<clipPath id="SVGID_00000121998480686226537210000014187479084596635831_">
		<use xlink:href="#SVGID_00000139277812712123094330000011792619454197737605_"  style="overflow:visible;"/>
	</clipPath>
	<g style="clip-path:url(#SVGID_00000121998480686226537210000014187479084596635831_);">
		<path class="st2" d="M93.5,72.5c-0.6,0-1.1-0.3-1.4-0.7L53.3,18.5c-0.5-0.8-0.2-1.9,0.7-2.4c0.7-0.4,1.6-0.2,2.1,0.4l38.7,53.3
			c0.6,0.8,0.4,1.9-0.4,2.4c0,0,0,0,0,0C94.2,72.4,93.8,72.5,93.5,72.5"/>
	</g>
</g>
<g>
	<defs>
		<rect id="SVGID_00000037669374674065448980000004210355909894629774_" x="75.9" y="4" width="23.8" height="66.1"/>
	</defs>
	<clipPath id="SVGID_00000003103255710600187090000007375373461395479211_">
		<use xlink:href="#SVGID_00000037669374674065448980000004210355909894629774_"  style="overflow:visible;"/>
	</clipPath>
	<g style="clip-path:url(#SVGID_00000003103255710600187090000007375373461395479211_);">
		<path class="st2" d="M98,70.1c-0.8,0-1.4-0.5-1.7-1.2L76,6.3c-0.3-0.9,0.2-1.9,1.1-2.2C78,3.8,79,4.2,79.3,5.1c0,0,0,0.1,0,0.1
			l20.4,62.6c0.3,0.9-0.2,1.9-1.1,2.2C98.4,70.1,98.2,70.1,98,70.1"/>
	</g>
</g>
<text transform="matrix(1 0 0 1 19.1201 122.6957)" class="st10 st11 st12">Life Groups</text>
</svg>
