<?xml version="1.0" encoding="UTF-8"?><svg id="Layer_2" xmlns="http://www.w3.org/2000/svg" xmlns:xlink="http://www.w3.org/1999/xlink" viewBox="0 0 85.7 85.7"><defs><style>.cls-1{fill:none;}.cls-2{clip-path:url(#clippath);}.cls-3{fill:#1d70b7;}.cls-4{fill:#0a3e6a;}.cls-5{clip-path:url(#clippath-1);}.cls-6{clip-path:url(#clippath-3);}.cls-7{clip-path:url(#clippath-2);}.cls-8{opacity:.4;}</style><clipPath id="clippath"><rect class="cls-1" x="4.02" y="56.82" width="66.09" height="23.82"/></clipPath><clipPath id="clippath-1"><rect class="cls-1" x="15.7" y="33.89" width="56.74" height="42.18"/></clipPath><clipPath id="clippath-2"><rect class="cls-1" x="33.89" y="15.7" width="42.19" height="56.75"/></clipPath><clipPath id="clippath-3"><rect class="cls-1" x="56.81" y="4.02" width="23.82" height="66.09"/></clipPath></defs><g id="Layer_1-2"><path class="cls-4" d="M67.57,85.7H1.74c-.96,0-1.74-.78-1.74-1.74s.78-1.74,1.74-1.74H67.57c.96,0,1.74,.78,1.74,1.74s-.78,1.74-1.74,1.74"/><path class="cls-4" d="M83.96,69.35c-.96,0-1.74-.78-1.74-1.74V1.74C82.22,.78,83,0,83.96,0s1.74,.78,1.74,1.74V67.61c0,.96-.78,1.74-1.74,1.74"/><g class="cls-8"><g class="cls-2"><path class="cls-3" d="M68.37,80.64c-.18,0-.37-.03-.54-.09L5.22,60.21c-.91-.3-1.41-1.28-1.11-2.19,.3-.91,1.28-1.41,2.19-1.12h0l62.58,20.34c.92,.29,1.43,1.26,1.14,2.18-.23,.73-.91,1.23-1.68,1.22"/></g></g><g class="cls-8"><g class="cls-5"><path class="cls-3" d="M70.7,76.07c-.36,0-.71-.12-1-.33L16.42,37c-.85-.45-1.18-1.5-.73-2.35s1.5-1.18,2.35-.73c.14,.07,.26,.16,.38,.27l53.3,38.73c.78,.56,.95,1.65,.39,2.43-.32,.45-.84,.71-1.39,.72"/></g></g><g class="cls-8"><g class="cls-7"><path class="cls-3" d="M74.34,72.46c-.56,0-1.08-.27-1.41-.72L34.22,18.47c-.46-.84-.16-1.9,.69-2.36,.71-.39,1.59-.24,2.13,.36l38.7,53.27c.57,.77,.4,1.85-.37,2.42h-.01c-.29,.23-.64,.35-1,.35"/></g></g><g class="cls-8"><g class="cls-6"><path class="cls-3" d="M78.88,70.11c-.75,0-1.42-.48-1.65-1.2L56.88,6.3c-.32-.91,.15-1.9,1.06-2.22,.91-.32,1.9,.15,2.22,1.06,0,.03,.02,.06,.03,.09l20.36,62.61c.28,.9-.22,1.86-1.12,2.16-.17,.06-.36,.08-.54,.08"/></g></g></g></svg>