<?xml version="1.0" encoding="utf-8"?>
<!-- Generator: Adobe Illustrator 27.4.1, SVG Export Plug-In . SVG Version: 6.00 Build 0)  -->
<svg version="1.1" id="Layer_2_00000047032717937110098970000011539382062574472106_"
	 xmlns="http://www.w3.org/2000/svg" xmlns:xlink="http://www.w3.org/1999/xlink" x="0px" y="0px" viewBox="0 0 85.7 85.7"
	 style="enable-background:new 0 0 85.7 85.7;" xml:space="preserve">
<style type="text/css">
	.st0{fill:#FFFFFF;}
	.st1{opacity:0.4;}
	.st2{clip-path:url(#SVGID_00000066510652284193215550000014014871126816295552_);}
	.st3{clip-path:url(#SVGID_00000081644499495567603030000015148807075466262155_);}
	.st4{clip-path:url(#SVGID_00000065784727884550022820000013094945738729371528_);}
	.st5{clip-path:url(#SVGID_00000129894317779852180690000009870783479713819777_);}
</style>
<g id="Layer_1-2">
	<path class="st0" d="M67.6,85.7H1.7c-1,0-1.7-0.8-1.7-1.7s0.8-1.7,1.7-1.7h65.8c1,0,1.7,0.8,1.7,1.7S68.5,85.7,67.6,85.7"/>
	<path class="st0" d="M84,69.3c-1,0-1.7-0.8-1.7-1.7V1.7C82.2,0.8,83,0,84,0s1.7,0.8,1.7,1.7v65.9C85.7,68.6,84.9,69.3,84,69.3"/>
	<g class="st1">
		<g>
			<defs>
				<rect id="SVGID_1_" x="4" y="56.8" width="66.1" height="23.8"/>
			</defs>
			<clipPath id="SVGID_00000156577999882531691930000005129598011954058648_">
				<use xlink:href="#SVGID_1_"  style="overflow:visible;"/>
			</clipPath>
			<g style="clip-path:url(#SVGID_00000156577999882531691930000005129598011954058648_);">
				<path class="st0" d="M68.4,80.6c-0.2,0-0.4,0-0.5-0.1L5.2,60.2c-0.9-0.3-1.4-1.3-1.1-2.2c0.3-0.9,1.3-1.4,2.2-1.1l0,0l62.6,20.3
					c0.9,0.3,1.4,1.3,1.1,2.2C69.8,80.2,69.1,80.7,68.4,80.6"/>
			</g>
		</g>
	</g>
	<g class="st1">
		<g>
			<defs>
				<rect id="SVGID_00000012473804832970428740000015934336203538165938_" x="15.7" y="33.9" width="56.7" height="42.2"/>
			</defs>
			<clipPath id="SVGID_00000120540326503034672900000010034096614059212711_">
				<use xlink:href="#SVGID_00000012473804832970428740000015934336203538165938_"  style="overflow:visible;"/>
			</clipPath>
			<g style="clip-path:url(#SVGID_00000120540326503034672900000010034096614059212711_);">
				<path class="st0" d="M70.7,76.1c-0.4,0-0.7-0.1-1-0.3L16.4,37c-0.9-0.5-1.2-1.5-0.7-2.3s1.5-1.2,2.4-0.7
					c0.1,0.1,0.3,0.2,0.4,0.3l53.3,38.7c0.8,0.6,0.9,1.7,0.4,2.4C71.8,75.8,71.3,76.1,70.7,76.1"/>
			</g>
		</g>
	</g>
	<g class="st1">
		<g>
			<defs>
				<rect id="SVGID_00000050637055968460954330000013291374221180416915_" x="33.9" y="15.7" width="42.2" height="56.7"/>
			</defs>
			<clipPath id="SVGID_00000052818853903655807180000004630484760416648117_">
				<use xlink:href="#SVGID_00000050637055968460954330000013291374221180416915_"  style="overflow:visible;"/>
			</clipPath>
			<g style="clip-path:url(#SVGID_00000052818853903655807180000004630484760416648117_);">
				<path class="st0" d="M74.3,72.5c-0.6,0-1.1-0.3-1.4-0.7L34.2,18.5c-0.5-0.8-0.2-1.9,0.7-2.4c0.7-0.4,1.6-0.2,2.1,0.4l38.7,53.3
					c0.6,0.8,0.4,1.8-0.4,2.4h0C75.1,72.4,74.7,72.5,74.3,72.5"/>
			</g>
		</g>
	</g>
	<g class="st1">
		<g>
			<defs>
				<rect id="SVGID_00000175284844495404621500000005703867034819689368_" x="56.8" y="4" width="23.8" height="66.1"/>
			</defs>
			<clipPath id="SVGID_00000097483385745736194440000011971996075009138080_">
				<use xlink:href="#SVGID_00000175284844495404621500000005703867034819689368_"  style="overflow:visible;"/>
			</clipPath>
			<g style="clip-path:url(#SVGID_00000097483385745736194440000011971996075009138080_);">
				<path class="st0" d="M78.9,70.1c-0.8,0-1.4-0.5-1.7-1.2L56.9,6.3c-0.3-0.9,0.2-1.9,1.1-2.2s1.9,0.2,2.2,1.1c0,0,0,0.1,0,0.1
					l20.4,62.6c0.3,0.9-0.2,1.9-1.1,2.2C79.3,70.1,79.1,70.1,78.9,70.1"/>
			</g>
		</g>
	</g>
</g>
</svg>
