<?xml version="1.0" encoding="UTF-8"?><svg id="Layer_2" xmlns="http://www.w3.org/2000/svg" viewBox="0 0 1836.83 1362.68"><defs><style>.cls-1{fill:#fff;}</style></defs><g id="Layer_2-2"><g id="Layer_1-2"><path class="cls-1" d="M1243.71,811.51c-10.79,0-20.56,.11-30.31,0-5.14-.07-10.27-.62-17.62-1.1-5.16-90.79-41.79-165.16-115.52-219.06-51.74-37.83-110.47-55.06-174.16-51.3-113.93,6.76-247.41,94.47-258.16,269.93h-45.93c-11.28-33.64,13.02-126.92,53.21-182.63,39.06-54.09,89.35-93.77,154.21-120.07-64.08-48.88-94.17-110.71-88.41-188.2,3.94-52.98,26.9-97.03,66.34-132.33,77.04-69.03,195.41-71.45,275.38,5.38,45.6,43.84,65.4,98.79,60.49,162.42-4.9,63.63-36.43,112.47-88.29,152.88,82.94,34.38,144.33,88.49,181.07,167.71,23.11,49.77,32.12,98.09,27.68,136.36h.02Zm-323.05-325.06c70.95,4.85,150.73-55.83,151.63-148.54,.8-81.83-68.53-151.5-150.77-150.48-85.02,1.06-149.66,68.71-149.74,149.63-.07,95.4,83.18,154.07,148.88,149.4h0Z"/><path class="cls-1" d="M1336.44,372.21c131.46,58.68,202.28,156.35,210.91,301.03-15.49,0-29.1,.39-42.67-.15-7.88-.32-8.4-6.75-8.69-13.03-2.04-43.6-14.86-84.17-37.42-121.22-43.37-71.25-105.91-115.73-188.6-130.07-20.51-3.51-41.55-4.07-64.91-6.22,2.07-13.84,3.89-27.82,6.33-41.7,1.57-8.96,9.09-7.97,15.65-8.06,7.41-.05,14.76-.69,22.07-1.9s14.47-2.99,21.5-5.34,13.82-5.23,20.4-8.65c6.57-3.42,12.83-7.33,18.78-11.74,40.69-29.73,61.78-68.97,64.31-120.41,2.89-58.54-39.02-134.08-120.84-149.82-56.13-10.79-105.33,6.05-143.99,49.61-4.32,4.88-8.35,10.01-13.53,16.22l-43.92-22.95c37.33-59.07,89.45-91.77,156.07-96.08,86.82-5.61,155.68,30.5,194,108.93,49.66,101.56,20.46,188.51-65.45,261.54h0Z"/><path class="cls-1" d="M754.86,119.79c-61.65-78.44-140.88-79.33-194.3-53.48-62.7,30.39-89.8,93.33-85.53,145.91,2.14,26.38,10.35,51.26,25.92,73.48,7.52,10.85,16.28,20.61,26.26,29.26,9.98,8.65,20.88,15.93,32.7,21.83,23.93,12.09,49.51,16.27,77.42,16.03,2.59,17.31,4.98,33.14,7.56,50.27-7.79,.36-13.56,.92-19.34,.87-129.47-1.17-246.37,94.95-269.36,229.12-1.32,7.74-.86,15.76-1.8,23.58-1.52,12.86-4.76,15.88-17.4,16.3-10.36,.35-20.73,.07-33.73,.07,.62-68.77,20.79-128.35,58.17-182.36,37.6-54.42,88.99-92.01,153.17-118.71-72.22-57.28-102.65-128.13-84.48-215.58,11.83-57.04,45.54-100.25,95.82-129.42,101.51-58.89,223.53-14.99,270.89,70.8-6.82,3.51-13.7,6.84-20.47,10.41-6.77,3.57-13.77,7.43-21.49,11.63h-.01Z"/><path class="cls-1" d="M132.88,722.58l171.96-60.94s429.9,7.81,594.04,260.94v92.19s-250.12-292.19-765.99-292.19h-.01Zm-39.08,54.69l93.8-31.25s437.71,0,687.83,260.94c0,1.56-328.29-214.06-781.63-229.69h0Zm-46.9,137.5l46.9-92.19s500.24,15.63,765.99,184.38c0,1.56-625.3-137.5-812.89-92.19h0Zm-31.27,78.13s281.39-92.19,844.16,46.88c0,0-578.41-60.94-859.79,0l15.64-46.88h0Zm1688.32-270.31l-171.96-60.94s-429.9,7.81-594.04,260.94v92.19s250.13-292.19,766-292.19Zm39.08,54.69l-93.79-31.25s-437.71,0-687.83,260.94c0,1.56,328.28-214.06,781.63-229.69h0Zm46.9,137.5l-46.9-92.19s-500.24,15.63-765.99,184.38c0,1.56,625.3-137.5,812.9-92.19h-.01Zm31.27,78.13s-281.39-92.19-844.16,46.88c0,0,578.41-60.94,859.79,0l-15.63-46.88Z"/><path class="cls-1" d="M1154.45,1145.14c-39.87,0-72.34,32.6-72.34,72.6s32.47,72.22,72.34,72.22,72.6-32.47,72.6-72.22-32.72-72.6-72.6-72.6Zm-202.48,3.01h-31.85v66.08h31.85c19.06,.13,34.98-15.3,34.98-33.35s-16.17-32.72-34.98-32.72h0Zm591.65-.01h-35.86v69.09l35.86,.12c21.69,.12,39.37-15.3,39.37-34.23s-17.68-34.98-39.37-34.98Zm-575.29-84.47l-29.81-31.72c-11.48-12.5-28.7-12.5-40.18,0l-29.81,31.72H0v299H1836.83v-299H968.33Zm-771.12,255.11H75.34v-202.12h31.72v170.52h90.15v31.6h0Zm57.04,0h-31.72v-202.12h31.72v202.12Zm159.23-171.02h-88.64v54.04h76.48v31.6h-76.48v85.64h-31.72v-202.87h120.37v31.6h0Zm145.56,.12h-88.64v51.78h76.48v31.6h-76.48v55.92h88.64v31.6h-120.37v-202.12h120.37v31.22h0Zm203.98,174.28c-58.8,0-105.45-46.89-105.45-104.19s46.89-104.69,104.32-104.69c25.45,.12,54.54,12.41,73.6,30.97l-17.68,26.33c-15.8-15.55-37.11-25.33-56.3-25.33-36.86,0-71.72,30.84-71.72,72.72,0,39.62,31.47,72.22,74.6,72.22,34.73,0,60.81-21.19,60.81-52.03v-.63h-62.56v-29.09h95.67c.5,4.64,.88,10.16,.88,15.8,0,60.06-43.63,97.92-96.17,97.92Zm236.46-3.39l-54.42-78.24h-24.83v78.24h-31.72l-.12-202.12h62.82c37.61,0,68.46,28.96,68.46,64.95,0,26.08-16.8,48.77-40,56.3l58.8,80.87h-38.99Zm154.96,3.26c-57.42,0-104.32-46.89-104.32-104.07s46.89-104.82,104.44-104.82,104.57,47.14,104.57,104.82-47.14,104.07-104.69,104.07h0Zm284.73-79.87c0,46.39-33.48,80.37-76.48,80.37s-76.36-33.98-76.36-80.37v-125.51h31.85v125.38c0,27.96,19.68,48.4,44.38,48.4s44.64-20.44,44.64-48.4v-125.38h31.97v125.51Zm104.43,6.52h-35.86v70.09h-31.72v-202.12h67.58c39.12,0,71.09,29.97,71.09,66.7s-31.97,65.32-71.09,65.32h0Zm154.59,73.48c-33.23,0-58.43-15.55-69.96-38.87l25.08-17.93c9.03,15.8,25.83,24.83,45.26,24.83,22.69,0,39.87-10.91,39.87-26.33,0-18.68-26.58-29.97-50.15-40.12-23.7-10.53-50.03-22.82-50.03-54.54s28.71-56.17,65.07-56.17c28.84,0,50.4,13.92,58.68,36.11l-23.57,16.3c-6.27-13.67-20.19-21.31-34.86-21.31-18.56,0-33.35,11.54-33.35,25.83,0,15.8,18.68,21.44,43.26,31.97,31.97,14.04,56.8,29.46,56.8,61.31,0,35.86-31.09,58.93-72.09,58.93h-.01Z"/></g></g></svg>