<?xml version="1.0" encoding="UTF-8"?><svg id="Layer_2" xmlns="http://www.w3.org/2000/svg" xmlns:xlink="http://www.w3.org/1999/xlink" viewBox="0 0 1836.8 1362.66"><defs><style>.cls-1{fill:url(#linear-gradient);}.cls-2{fill:url(#linear-gradient-3);}.cls-3{fill:url(#linear-gradient-4);}.cls-4{fill:url(#linear-gradient-2);}.cls-5{fill:url(#linear-gradient-5);}</style><linearGradient id="linear-gradient" x1="922" y1="552.46" x2="922" y2="1229.28" gradientTransform="translate(0 1363.96) scale(1 -1)" gradientUnits="userSpaceOnUse"><stop offset="0" stop-color="#fff"/><stop offset=".29" stop-color="#fff"/><stop offset="1" stop-color="#f5f5f5"/></linearGradient><linearGradient id="linear-gradient-2" x1="1299.55" y1="690.67" x2="1299.55" y2="1362.76" gradientTransform="translate(0 1363.96) scale(1 -1)" gradientUnits="userSpaceOnUse"><stop offset=".13" stop-color="#fff"/><stop offset="1" stop-color="#f8f8f8"/></linearGradient><linearGradient id="linear-gradient-3" x1="550.1" y1="690.83" x2="550.1" y2="1363.96" gradientTransform="translate(0 1363.96) scale(1 -1)" gradientUnits="userSpaceOnUse"><stop offset=".17" stop-color="#fff"/><stop offset="1" stop-color="#f8f8f8"/></linearGradient><linearGradient id="linear-gradient-4" x1="918.4" y1="324.2" x2="918.4" y2="702.3" gradientTransform="translate(0 1363.96) scale(1 -1)" gradientUnits="userSpaceOnUse"><stop offset="0" stop-color="#f6f6f6"/><stop offset=".77" stop-color="#fff"/></linearGradient><linearGradient id="linear-gradient-5" x1="918.4" y1="341.37" x2="918.4" y2="-23.67" gradientTransform="translate(0 1363.96) scale(1 -1)" gradientUnits="userSpaceOnUse"><stop offset="0" stop-color="#f5f5f5"/><stop offset="1" stop-color="#fafafa"/></linearGradient></defs><g id="Layer_1-2"><g id="Layer_1-3"><path class="cls-1" d="M1243.7,811.46c-10.8,0-20.6,.1-30.3,0-5.1-.1-10.3-.6-17.6-1.1-5.2-90.8-41.8-165.2-115.5-219.1-51.7-37.8-110.5-55.1-174.2-51.3-113.9,6.8-247.4,94.5-258.2,269.9h-45.9c-11.3-33.6,13-126.9,53.2-182.6,39.1-54.1,89.4-93.8,154.2-120.1-64.1-48.9-94.2-110.7-88.4-188.2,3.9-53,26.9-97,66.3-132.3,77-69,195.4-71.4,275.4,5.4,45.6,43.8,65.4,98.8,60.5,162.4s-36.4,112.5-88.3,152.9c82.9,34.4,144.3,88.5,181.1,167.7,23.1,49.8,32.1,98.2,27.7,136.4Zm-323.1-325c70.9,4.9,150.7-55.8,151.6-148.5,.8-81.8-68.5-151.5-150.8-150.5-85,1.1-149.7,68.7-149.7,149.6,0,95.4,83.2,154,148.9,149.4Z"/><path class="cls-4" d="M1336.4,372.16c131.5,58.7,202.3,156.3,210.9,301-15.5,0-29.1,.4-42.7-.2-7.9-.3-8.4-6.8-8.7-13-2-43.6-14.9-84.2-37.4-121.2-43.4-71.2-105.9-115.7-188.6-130.1-20.5-3.5-41.6-4.1-64.9-6.2,2.1-13.8,3.9-27.8,6.3-41.7,1.6-9,9.1-8,15.6-8.1,7.4-.1,14.8-.7,22.1-1.9,7.3-1.2,14.5-3,21.5-5.3s13.8-5.2,20.4-8.6,12.8-7.3,18.8-11.7c40.7-29.7,61.8-69,64.3-120.4,2.9-58.5-39-134.1-120.8-149.8-56.1-10.8-105.3,6-144,49.6-4.3,4.9-8.3,10-13.5,16.2l-43.9-22.9c37.3-59.1,89.4-91.8,156.1-96.1,86.8-5.6,155.7,30.5,194,108.9,49.6,101.6,20.4,188.5-65.5,261.5Z"/><path class="cls-2" d="M754.8,119.76c-61.7-78.4-140.9-79.3-194.3-53.5-62.7,30.4-89.8,93.3-85.5,145.9,2.1,26.4,10.3,51.3,25.9,73.5,7.5,10.9,16.3,20.6,26.3,29.3,10,8.7,20.9,15.9,32.7,21.8,23.9,12.1,49.5,16.3,77.4,16,2.6,17.3,5,33.1,7.6,50.3-7.8,.4-13.6,.9-19.3,.9-129.5-1.2-246.4,95-269.4,229.1-1.3,7.7-.9,15.8-1.8,23.6-1.5,12.9-4.8,15.9-17.4,16.3-10.4,.3-20.7,.1-33.7,.1,.6-68.8,20.8-128.4,58.2-182.4,37.6-54.4,89-92,153.2-118.7-72.2-57.3-102.6-128.1-84.5-215.6,11.8-57,45.5-100.2,95.8-129.4,101.5-58.9,223.5-15,270.9,70.8-6.8,3.5-13.7,6.8-20.5,10.4-6.8,3.6-13.8,7.4-21.6,11.6Z"/><path class="cls-3" d="M132.9,722.56l172-60.9s429.9,7.8,594,260.9v92.2s-250.2-292.2-766-292.2Zm-39.1,54.7l93.8-31.2s437.7,0,687.8,260.9c0,1.5-328.3-214.1-781.6-229.7Zm-46.9,137.5l46.9-92.2s500.2,15.6,766,184.4c0,1.5-625.3-137.5-812.9-92.2Zm-31.3,78.1s281.4-92.2,844.2,46.9c0,0-578.4-60.9-859.8,0l15.6-46.9Zm1688.3-270.3l-172-60.9s-429.9,7.8-594,260.9v92.2s250.2-292.2,766-292.2Zm39.1,54.7l-93.8-31.2s-437.7,0-687.8,260.9c0,1.5,328.3-214.1,781.6-229.7Zm46.9,137.5l-46.9-92.2s-500.2,15.6-766,184.4c0,1.5,625.3-137.5,812.9-92.2Zm31.3,78.1s-281.4-92.2-844.2,46.9c0,0,578.4-60.9,859.8,0l-15.6-46.9Z"/><path class="cls-5" d="M1154.4,1145.16c-39.9,0-72.3,32.6-72.3,72.6s32.5,72.2,72.3,72.2,72.6-32.5,72.6-72.2-32.7-72.6-72.6-72.6Zm-202.5,3h-31.8v66.1h31.8c19.1,.1,35-15.3,35-33.4s-16.2-32.7-35-32.7Zm591.7,0h-35.9v69.1l35.9,.1c21.7,.1,39.4-15.3,39.4-34.2,0-19.4-17.7-35-39.4-35Zm-575.3-84.5l-29.8-31.7c-11.5-12.5-28.7-12.5-40.2,0l-29.8,31.7H0v299H1836.8v-299H968.3Zm-771.1,255.1H75.3v-202.1h31.7v170.5h90.1v31.6h.1Zm57,0h-31.7v-202.1h31.7v202.1Zm159.3-171h-88.7v54h76.5v31.6h-76.5v85.6h-31.7v-202.9h120.4v31.7h0Zm145.5,.1h-88.6v51.8h76.5v31.6h-76.5v55.9h88.6v31.6h-120.3v-202.1h120.4v31.2h-.1Zm204,174.3c-58.8,0-105.4-46.9-105.4-104.2s46.9-104.7,104.3-104.7c25.5,.1,54.5,12.4,73.6,31l-17.7,26.3c-15.8-15.5-37.1-25.3-56.3-25.3-36.9,0-71.7,30.8-71.7,72.7,0,39.6,31.5,72.2,74.6,72.2,34.7,0,60.8-21.2,60.8-52v-.6h-62.6v-29.1h95.7c.5,4.6,.9,10.2,.9,15.8,0,60-43.7,97.9-96.2,97.9Zm236.5-3.4l-54.4-78.2h-24.8v78.2h-31.7l-.1-202.1h62.8c37.6,0,68.5,29,68.5,64.9,0,26.1-16.8,48.8-40,56.3l58.8,80.9h-39.1Zm154.9,3.3c-57.4,0-104.3-46.9-104.3-104.1s46.9-104.8,104.4-104.8,104.6,47.1,104.6,104.8c0,57.2-47.1,104.1-104.7,104.1Zm284.8-79.9c0,46.4-33.5,80.4-76.5,80.4s-76.4-34-76.4-80.4v-125.5h31.8v125.4c0,28,19.7,48.4,44.4,48.4s44.6-20.4,44.6-48.4v-125.4h32v125.5h.1Zm104.4,6.5h-35.9v70.1h-31.7v-202.1h67.6c39.1,0,71.1,30,71.1,66.7s-32,65.3-71.1,65.3Zm154.6,73.5c-33.2,0-58.4-15.5-70-38.9l25.1-17.9c9,15.8,25.8,24.8,45.3,24.8,22.7,0,39.9-10.9,39.9-26.3,0-18.7-26.6-30-50.2-40.1-23.7-10.5-50-22.8-50-54.5s28.7-56.2,65.1-56.2c28.8,0,50.4,13.9,58.7,36.1l-23.6,16.3c-6.3-13.7-20.2-21.3-34.9-21.3-18.6,0-33.4,11.5-33.4,25.8,0,15.8,18.7,21.4,43.3,32,32,14,56.8,29.5,56.8,61.3,0,35.8-31.1,58.9-72.1,58.9Z"/></g></g></svg>