<svg xmlns="http://www.w3.org/2000/svg" xmlns:xlink="http://www.w3.org/1999/xlink" viewBox="0 0 275.79 303.16"><defs><style>.cls-1{fill:none;}.cls-2{fill:#fff;}.cls-3{clip-path:url(#clip-path);}.cls-4{clip-path:url(#clip-path-2);}.cls-5{clip-path:url(#clip-path-3);}.cls-6{clip-path:url(#clip-path-4);}.cls-7{clip-path:url(#clip-path-5);}.cls-8{clip-path:url(#clip-path-6);}.cls-9{clip-path:url(#clip-path-7);}.cls-10{clip-path:url(#clip-path-8);}</style><clipPath id="clip-path"><polyline class="cls-1" points="23.14 56.82 89.23 56.82 89.23 80.64 23.14 80.64 23.14 56.82"/></clipPath><clipPath id="clip-path-2"><polyline class="cls-1" points="116.93 56.81 183.02 56.81 183.02 80.63 116.93 80.63 116.93 56.81"/></clipPath><clipPath id="clip-path-3"><polyline class="cls-1" points="114.97 33.89 171.34 33.89 171.34 75.79 114.97 75.79 114.97 33.89"/></clipPath><clipPath id="clip-path-4"><polyline class="cls-1" points="111.26 15.7 153.15 15.7 153.15 72.05 111.26 72.05 111.26 15.7"/></clipPath><clipPath id="clip-path-5"><polyline class="cls-1" points="106.27 4.02 130.23 4.02 130.23 70.52 106.27 70.52 106.27 4.02"/></clipPath><clipPath id="clip-path-6"><polyline class="cls-1" points="34.82 33.89 91.56 33.89 91.56 76.07 34.82 76.07 34.82 33.89"/></clipPath><clipPath id="clip-path-7"><polyline class="cls-1" points="53.01 15.7 95.2 15.7 95.2 72.45 53.01 72.45 53.01 15.7"/></clipPath><clipPath id="clip-path-8"><polyline class="cls-1" points="75.93 4.02 99.75 4.02 99.75 70.11 75.93 70.11 75.93 4.02"/></clipPath></defs><g id="Layer_2" data-name="Layer 2"><g id="Layer_1-2" data-name="Layer 1"><path class="cls-2" d="M127.16,104.65a2.69,2.69,0,0,0-1.77.67l-19.72,16.13,0,6.32,5.1-4.1,14.79,19a2.9,2.9,0,0,0,2.33,1.25H128a2.64,2.64,0,0,0,2.61-2.67,2.34,2.34,0,0,0-.59-1.67l-14.89-19.14,13.7-10.94a2.73,2.73,0,0,0,1.09-2.17v-.07a2.64,2.64,0,0,0-2.64-2.61h-.1"/><path class="cls-2" d="M143.08,104.49h-.17a2.68,2.68,0,0,0-2.51,2.84v33.92a2.68,2.68,0,0,0,2.51,2.51h.17a2.69,2.69,0,0,0,2.67-2.52V107.33a1.82,1.82,0,0,0,0-.33,2.68,2.68,0,0,0-2.67-2.51"/><path class="cls-2" d="M233.32,91.08a2.69,2.69,0,0,0-2.67,2.52v10.52a2.68,2.68,0,0,0,2.51,2.51h.17a2.69,2.69,0,0,0,2.67-2.52V93.6a2.68,2.68,0,0,0-2.51-2.51h-.17"/><path class="cls-2" d="M173.1,104.15c-5.43,0-9.52,2.68-11.11,5.85v-2.67a1.82,1.82,0,0,0,0-.33,2.68,2.68,0,0,0-2.67-2.51h-.17a2.68,2.68,0,0,0-2.51,2.84v33.89a2.68,2.68,0,0,0,2.51,2.51h.17a2.69,2.69,0,0,0,2.67-2.52V120.58c0-6.69,2.84-11.69,11.11-11.69,8.07,0,10,4.51,10,11.11v21.25h0a2.67,2.67,0,0,0,2.67,2.66h0a2.67,2.67,0,0,0,2.67-2.67V118.94h0c0-7.1-2.51-14.79-15.37-14.79"/><path class="cls-2" d="M213.2,139.52c-7.69,0-11.95-4.93-11.95-15.2,0-10.45,4.26-15.29,11.95-15.29,6.28,0,11.28,3.76,11.28,11.69v12s-3.43,6.77-11.28,6.77m.05-35.32c-10.86,0-17.29,6.49-17.29,20.14s6.43,20,17.29,20h.44a14.06,14.06,0,0,0,10.84-5.11V144l-.05,0c0,7.58-4.84,11-11.7,11l-.67,0a12.7,12.7,0,0,1-9.19-3.94,2.55,2.55,0,0,0-2-.92h0a2.6,2.6,0,0,0-2.59,2.59,2.53,2.53,0,0,0,.5,1.5c2.81,3.34,7.49,5.77,14,5.77,9.36,0,17.13-4.68,17.13-16.05V120.74c0-11-7.18-16.54-16.71-16.54"/><path class="cls-2" d="M251.67,104.23c-7.1,0-12.78,3.17-12.78,10.1,0,13.71,22,10.28,22,18.89,0,4.34-4.09,5.93-8.86,5.93h-.64a14.16,14.16,0,0,1-10-4.11,2.53,2.53,0,0,0-1.84-.83,2.44,2.44,0,0,0-2.42,2.42,2.52,2.52,0,0,0,.59,1.59c2.17,2.74,7.43,6,14.28,6,7.94,0,14.21-3.4,14.21-11,0-13.37-22-10.11-22-18.89v0c0-3.83,3.68-5,7.44-5l.66,0a11.87,11.87,0,0,1,8.44,3.53,2.36,2.36,0,0,0,1.73.75h0a2.42,2.42,0,0,0,2.42-2.42,2.57,2.57,0,0,0-.58-1.59c-2.59-3.42-7-5.34-12.7-5.34"/><path class="cls-2" d="M79.14,175.73c-10.78,0-17.21,6.35-17.21,20.05s6.43,20.13,17.21,20.13h.32a19,19,0,0,0,12.29-4.51,2.59,2.59,0,0,0,1.09-2.09,2.42,2.42,0,0,0-4-1.83,15.22,15.22,0,0,1-9.69,3.59c-7.69,0-11.78-4.85-11.78-15.29,0-10.28,4.09-15.21,11.78-15.21,5.49,0,7.75,2.51,9,3.93a2.49,2.49,0,0,0,2,1h.11a2.37,2.37,0,0,0,2.32-2.42,2.58,2.58,0,0,0-.59-1.59c-1.33-1.83-5.43-5.76-12.86-5.76h0"/><path class="cls-2" d="M116.87,175.73c-5.43,0-9.53,2.67-11.12,5.85l0,10.61c0-6.7,2.85-11.7,11.12-11.7,8.08,0,10,4.51,10,11.11v21.22a1.82,1.82,0,0,0,0,.33,2.68,2.68,0,0,0,2.67,2.51h.17a2.68,2.68,0,0,0,2.51-2.84v-22.3c0-7.1-2.51-14.79-15.37-14.79"/><path class="cls-2" d="M169.87,176.23a2.71,2.71,0,0,0-2.71,2.67v21.81c0,5.43-1.75,10.11-10.19,10.11s-10.2-4.68-10.2-10.11V178.9a2.69,2.69,0,0,0-2.67-2.67H144a2.64,2.64,0,0,0-2.61,2.67v21.81c0,7.94,2.61,15.2,15.55,15.2s15.53-7.26,15.53-15.2V178.88a2.62,2.62,0,0,0-2.59-2.65h0"/><path class="cls-2" d="M199.49,175.89c-5.77,0-10,2.85-11.62,6.69V178.9a2.67,2.67,0,0,0-2.67-2.67h0a2.68,2.68,0,0,0-2.67,2.67v33.89h0a2.67,2.67,0,0,0,2.67,2.66h0a2.67,2.67,0,0,0,2.67-2.67V194.08c0-7.66,3.93-13,11.62-13a2.6,2.6,0,0,0,0-5.19"/><path class="cls-2" d="M222.65,175.73c-10.78,0-17.21,6.35-17.21,20.05s6.43,20.13,17.21,20.13H223a19,19,0,0,0,12.29-4.51,2.59,2.59,0,0,0,1.09-2.09,2.43,2.43,0,0,0-2.43-2.42,2.47,2.47,0,0,0-1.58.59,15.22,15.22,0,0,1-9.69,3.59c-7.69,0-11.78-4.85-11.78-15.29,0-10.28,4.09-15.21,11.78-15.21,5.49,0,7.75,2.51,9,3.93a2.49,2.49,0,0,0,2,1h.12a2.37,2.37,0,0,0,2.32-2.42,2.58,2.58,0,0,0-.59-1.59c-1.33-1.83-5.43-5.76-12.86-5.76h0"/><path class="cls-2" d="M246.63,155.33h0A2.67,2.67,0,0,0,244,158v54.82h0a2.67,2.67,0,0,0,2.67,2.66h0a2.67,2.67,0,0,0,2.67-2.67V192.19c0-6.7,3-11.7,11.11-11.7s10,4.51,10,11.11v21.22a1.82,1.82,0,0,0,0,.33,2.68,2.68,0,0,0,2.67,2.51h.17a2.68,2.68,0,0,0,2.51-2.84v-22.3l0,0c0-7.1-2.51-14.79-15.38-14.79-5.42,0-9.52,2.67-11.11,5.85V158h0a2.67,2.67,0,0,0-2.67-2.66"/><path class="cls-2" d="M17.32,282.67c-7.73,0-12-4.92-12-15.2,0-10.44,4.27-15.29,12-15.29,6.28,0,11.28,3.76,11.28,11.7l.05,12s-3.43,6.76-11.28,6.76m0-35.37C6.43,247.3,0,253.74,0,267.44s6.43,20.05,17.29,20.05h.44a14.06,14.06,0,0,0,10.84-5.11v4.77l0,0c0,7.57-4.85,11-11.7,11l-.67,0A12.65,12.65,0,0,1,7,294.26a2.6,2.6,0,0,0-1.89-.9H5a2.61,2.61,0,0,0-2.61,2.53,2.46,2.46,0,0,0,.5,1.5c2.76,3.35,7.44,5.77,14,5.77,9.36,0,17.13-4.64,17.13-16V263.85c0-11-7.18-16.55-16.71-16.55"/><path class="cls-2" d="M71.47,247.81a2.73,2.73,0,0,0-2.72,2.67v21.81c0,5.43-1.75,10.1-10.19,10.1s-10.19-4.67-10.19-10.1V250.48h0a2.7,2.7,0,0,0-2.68-2.67h-.06A2.64,2.64,0,0,0,43,250.48v21.81c0,7.93,2.61,15.2,15.56,15.2s15.54-7.27,15.54-15.2V250.46a2.62,2.62,0,0,0-2.59-2.65h0"/><path class="cls-2" d="M86.71,247.81A2.68,2.68,0,0,0,84,250.48V284.4a2.67,2.67,0,0,0,5.34,0V250.48a2.67,2.67,0,0,0-2.67-2.67h0"/><path class="cls-2" d="M129.32,282.61c-7.69,0-11.79-4.84-11.79-15.28,0-10.28,4.18-15.21,11.79-15.21,7.83,0,11,7.35,11,7.35V271c0,7.94-4.57,11.61-11,11.61M143,227.07a2.69,2.69,0,0,0-2.67,2.52v23.12a14.11,14.11,0,0,0-11.14-5.44H129c-10.79,0-16.79,6.36-16.79,20.06s6.35,20.13,17.13,20.13c9.52,0,16.37-5.46,16.37-16.46V229.59a2.68,2.68,0,0,0-2.51-2.51H143"/><path class="cls-2" d="M172.88,229.19h-.23c-10.19,0-14.45,6.85-14.45,14.37v4.92h-3.29a2.51,2.51,0,0,0,.22,5h3.07V284.4a2.67,2.67,0,0,0,2.67,2.67h0a2.68,2.68,0,0,0,2.67-2.67V253.48h7.61a2.51,2.51,0,0,0,0-5h-7.61v-4.92c0-5.43,2.59-9.36,9.11-9.36h.45a2.51,2.51,0,0,0-.22-5"/><path class="cls-2" d="M195.29,282.64c-7.69,0-12.11-4.59-12.11-15.28,0-10.53,4.42-15.21,12.11-15.21s12.12,4.68,12.12,15.21c0,10.69-4.43,15.28-12.12,15.28m0-35.34c-10.78,0-17.54,6.36-17.54,20.06s6.68,20.13,17.54,20.13,17.54-6.43,17.54-20.13-6.76-20.06-17.54-20.06"/><path class="cls-2" d="M237,247.47h0c-5.76,0-9.94,2.84-11.61,6.69v-3.68a2.67,2.67,0,0,0-2.67-2.67h0a2.68,2.68,0,0,0-2.67,2.67V284.4a2.67,2.67,0,0,0,2.67,2.67h0a2.68,2.68,0,0,0,2.67-2.67V265.65c0-7.65,3.93-13,11.61-13h0a2.59,2.59,0,0,0,0-5.18"/><path class="cls-2" d="M259.41,282.61c-7.68,0-11.77-4.84-11.77-15.28,0-10.28,4.17-15.21,11.77-15.21,7.83,0,11,7.35,11,7.35V271c0,7.94-4.56,11.61-11,11.61m13.67-55.54a2.69,2.69,0,0,0-2.67,2.52v23.12a14.11,14.11,0,0,0-11.14-5.44h-.22c-10.79,0-16.79,6.36-16.79,20.06s6.35,20.13,17.12,20.13c9.53,0,16.38-5.46,16.38-16.46V229.59a2.68,2.68,0,0,0-2.51-2.51h-.17"/><path class="cls-2" d="M185.31,85.7H119.75a1.74,1.74,0,1,1,0-3.48h65.56a1.74,1.74,0,1,1,0,3.48"/><path class="cls-2" d="M86.69,85.7H20.86a1.74,1.74,0,1,1,0-3.48H86.69a1.74,1.74,0,1,1,0,3.48"/><path class="cls-2" d="M103.08,69.35a1.74,1.74,0,0,1-1.74-1.74V1.74a1.74,1.74,0,1,1,3.48,0V67.61a1.74,1.74,0,0,1-1.74,1.74"/><g class="cls-3"><path class="cls-2" d="M25,56.82h-.3a1.74,1.74,0,0,0-1.5,1.2,1.51,1.51,0,0,0-.09.47v.13a1.75,1.75,0,0,0,1.2,1.59L87,80.55a1.65,1.65,0,0,0,.54.09h0a1.74,1.74,0,0,0,.5-3.4L25.42,56.9a1.8,1.8,0,0,0-.39-.08"/></g><g class="cls-4"><path class="cls-2" d="M181.28,56.81a1.7,1.7,0,0,0-.54.09L118.13,77.24a1.74,1.74,0,0,0-1.2,1.4v.52a1.74,1.74,0,0,0,1.53,1.47h.39a1.55,1.55,0,0,0,.36-.08l62.61-20.34a1.75,1.75,0,0,0,1.2-1.59v-.13a1.51,1.51,0,0,0-.09-.47,1.73,1.73,0,0,0-1.65-1.21"/></g><g class="cls-5"><path class="cls-2" d="M170.45,33.89h-1.32a1.77,1.77,0,0,0-.53.34L115.71,72.65a1.74,1.74,0,0,0,.83,3.14h.36a1.73,1.73,0,0,0,.84-.32L170.6,37a1.65,1.65,0,0,0,.38-.27,1.68,1.68,0,0,0,.36-.48V34.71a1.8,1.8,0,0,0-.28-.4,1.76,1.76,0,0,0-.61-.42"/></g><g class="cls-6"><path class="cls-2" d="M152.3,15.7h-1.55a1.73,1.73,0,0,0-.75.72L111.59,69.29a1.75,1.75,0,0,0-.33,1v.06A1.74,1.74,0,0,0,113,72.05h0a1.75,1.75,0,0,0,1.41-.72l38.41-52.91a1.72,1.72,0,0,0,.23-.32,2.14,2.14,0,0,0,.1-.22V16.64a1.71,1.71,0,0,0-.79-.91l-.06,0"/></g><g class="cls-7"><path class="cls-2" d="M128.76,4h-.54a1.73,1.73,0,0,0-1.4,1.23l-20.47,63a1.89,1.89,0,0,0-.08.4v.28a1.73,1.73,0,0,0,1.19,1.51,1.62,1.62,0,0,0,.49.08H108a1.74,1.74,0,0,0,1.63-1.2l20.47-63,0-.09a1.83,1.83,0,0,0,.07-.46V5.7A1.74,1.74,0,0,0,129,4.07L128.76,4"/></g><g class="cls-8"><path class="cls-2" d="M37.1,33.89H35.6a1.74,1.74,0,0,0-.78.74v1.66a1.76,1.76,0,0,0,.72.71L88.82,75.74a1.78,1.78,0,0,0,1,.33h0a1.74,1.74,0,0,0,1.72-1.69v-.1a1.74,1.74,0,0,0-.72-1.36L37.54,34.19a1.46,1.46,0,0,0-.38-.27l-.06,0"/></g><g class="cls-9"><path class="cls-2" d="M54.86,15.89a1.66,1.66,0,0,0-.83.22,1.73,1.73,0,0,0-.69,2.36L92.05,71.74a1.72,1.72,0,0,0,1.22.71h.64a1.78,1.78,0,0,0,.57-.28h0a1.73,1.73,0,0,0,.37-2.42L56.16,16.47a1.73,1.73,0,0,0-1.3-.58"/></g><g class="cls-10"><path class="cls-2" d="M78,4h-.76l-.2.06A1.72,1.72,0,0,0,75.93,5.4V6A2.5,2.5,0,0,0,76,6.3L96.35,68.91A1.74,1.74,0,0,0,98,70.11h0v0h0a1.81,1.81,0,0,0,.51-.08,1.74,1.74,0,0,0,1.12-2.16L79.31,5.23l0-.09A1.75,1.75,0,0,0,78,4"/></g><path class="cls-2" d="M103,287.07a2.76,2.76,0,0,1-2.76-2.75V229.68a2.76,2.76,0,1,1,5.51-.33,1.82,1.82,0,0,1,0,.33v54.64a2.75,2.75,0,0,1-2.75,2.75"/><path class="cls-2" d="M103,215.5a2.78,2.78,0,0,1-2.76-2.76V158.1a2.76,2.76,0,1,1,5.51-.33,1.82,1.82,0,0,1,0,.33v54.64A2.76,2.76,0,0,1,103,215.5"/><path class="cls-2" d="M103,143.92a2.77,2.77,0,0,1-2.76-2.76V86.52a2.76,2.76,0,0,1,5.51,0v54.64a2.75,2.75,0,0,1-2.74,2.76h0"/></g></g></svg>