<?xml version='1.0' encoding='utf-8'?>
<svg xmlns="http://www.w3.org/2000/svg" width="300" height="800"><rect x="10" y="10" width="40" height="30" fill="#0a3e6a" /><text x="60" y="30" fill="#000">primary (#0a3e6a)</text><rect x="10" y="50" width="40" height="30" fill="#1d70b7" /><text x="60" y="70" fill="#000">secondary (#1d70b7)</text><rect x="10" y="90" width="40" height="30" fill="#a6bfd1" /><text x="60" y="110" fill="#000">accent-1 (#a6bfd1)</text><rect x="10" y="130" width="40" height="30" fill="#0094ff" /><text x="60" y="150" fill="#000">accent-2 (#0094ff)</text><rect x="10" y="170" width="40" height="30" fill="#003994" /><text x="60" y="190" fill="#000">accent-3 (#003994)</text><rect x="10" y="210" width="40" height="30" fill="#eeeeee" /><text x="60" y="230" fill="#000">light (#eeeeee)</text><rect x="10" y="250" width="40" height="30" fill="#333333" /><text x="60" y="270" fill="#000">dark (#333333)</text><rect x="10" y="290" width="40" height="30" fill="#E6323B" /><text x="60" y="310" fill="#000">little-lights-1 (#E6323B)</text><rect x="10" y="330" width="40" height="30" fill="#EA6B12" /><text x="60" y="350" fill="#000">little-lights-2 (#EA6B12)</text><rect x="10" y="370" width="40" height="30" fill="#FFF2D3" /><text x="60" y="390" fill="#000">little-lights-3 (#FFF2D3)</text><rect x="10" y="410" width="40" height="30" fill="#CE168D" /><text x="60" y="430" fill="#000">creche-1 (#CE168D)</text><rect x="10" y="450" width="40" height="30" fill="#ED3427" /><text x="60" y="470" fill="#000">explorers-1 (#ED3427)</text><rect x="10" y="490" width="40" height="30" fill="#F48C25" /><text x="60" y="510" fill="#000">explorers-2 (#F48C25)</text><rect x="10" y="530" width="40" height="30" fill="#FBD313" /><text x="60" y="550" fill="#000">explorers-3 (#FBD313)</text><rect x="10" y="570" width="40" height="30" fill="#0B6D3B" /><text x="60" y="590" fill="#000">rooted-1 (#0B6D3B)</text><rect x="10" y="610" width="40" height="30" fill="#2FAC90" /><text x="60" y="630" fill="#000">rooted-2 (#2FAC90)</text><rect x="10" y="650" width="40" height="30" fill="#89C444" /><text x="60" y="670" fill="#000">rooted-3 (#89C444)</text><rect x="10" y="690" width="40" height="30" fill="#2F2560" /><text x="60" y="710" fill="#000">equip-1 (#2F2560)</text><rect x="10" y="730" width="40" height="30" fill="#82225E" /><text x="60" y="750" fill="#000">equip-2 (#82225E)</text><rect x="10" y="770" width="40" height="30" fill="#CD1F5D" /><text x="60" y="790" fill="#000">equip-3 (#CD1F5D)</text></svg>