<?xml version="1.0" encoding="UTF-8" standalone="no"?>
<!-- Created with Inkscape (http://www.inkscape.org/) -->

<svg
   width="3000"
   height="3000"
   viewBox="0 0 3000 3000"
   version="1.1"
   id="svg1"
   xml:space="preserve"
   inkscape:version="1.3.2 (091e20e, 2023-11-25, custom)"
   sodipodi:docname="drawing.svg"
   inkscape:export-filename="test.svg"
   inkscape:export-xdpi="96"
   inkscape:export-ydpi="96"
   xmlns:inkscape="http://www.inkscape.org/namespaces/inkscape"
   xmlns:sodipodi="http://sodipodi.sourceforge.net/DTD/sodipodi-0.dtd"
   xmlns:xlink="http://www.w3.org/1999/xlink"
   xmlns="http://www.w3.org/2000/svg"
   xmlns:svg="http://www.w3.org/2000/svg"><sodipodi:namedview
     id="namedview1"
     pagecolor="#ffffff"
     bordercolor="#000000"
     borderopacity="0.25"
     inkscape:showpageshadow="2"
     inkscape:pageopacity="0.0"
     inkscape:pagecheckerboard="0"
     inkscape:deskcolor="#d1d1d1"
     inkscape:document-units="px"
     inkscape:zoom="0.31095752"
     inkscape:cx="1225.2478"
     inkscape:cy="1152.8906"
     inkscape:window-width="1920"
     inkscape:window-height="1001"
     inkscape:window-x="-9"
     inkscape:window-y="-9"
     inkscape:window-maximized="1"
     inkscape:current-layer="layer1" /><defs
     id="defs1"><linearGradient
       id="linearGradient28"
       inkscape:collect="always"><stop
         style="stop-color:#000e43;stop-opacity:1;"
         offset="0"
         id="stop27" /><stop
         style="stop-color:#9021d0;stop-opacity:1;"
         offset="1"
         id="stop28" /></linearGradient><linearGradient
       id="linearGradient11"
       inkscape:collect="always"><stop
         style="stop-color:#000e43;stop-opacity:1;"
         offset="0"
         id="stop11" /><stop
         style="stop-color:#b259e5;stop-opacity:1;"
         offset="1"
         id="stop12" /></linearGradient><style
       id="style1">.cls-1{fill:#231f20;}</style><linearGradient
       inkscape:collect="always"
       xlink:href="#linearGradient28"
       id="linearGradient27"
       gradientUnits="userSpaceOnUse"
       x1="-2.9455998"
       y1="95.301414"
       x2="205.80737"
       y2="95.301414"
       gradientTransform="matrix(4.8295183,0,0,4.8295183,123.195,122.19184)" /><linearGradient
       inkscape:collect="always"
       xlink:href="#linearGradient11"
       id="linearGradient1"
       x1="95.359337"
       y1="42.543621"
       x2="132.83344"
       y2="144.7175"
       gradientUnits="userSpaceOnUse" /><clipPath
       clipPathUnits="userSpaceOnUse"
       id="clipPath48"><g
         id="g52"
         transform="matrix(0.20705999,0,0,0.20705999,-13.266727,-70.502394)"><path
           class="cls-1"
           d="m 33.333255,47.303708 v 7.13 h -23.14 v 16.1 h 17.35 v 7.08 h -17.35 V 93.71371 h 23.14 v 7.08 H 3.0732585 V 47.303708 Z"
           id="path48"
           style="fill:#231f20"
           transform="matrix(4.8295183,0,0,4.8295183,64.071865,340.4926)" /><path
           class="cls-1"
           d="m 142.49326,47.303708 v 32.84 a 21.23,21.23 0 0 1 -1.51,8.120002 21.35,21.35 0 0 1 -4.67,6.82 v 0 a 21,21 0 0 1 -6.86,4.63 20.79,20.79 0 0 1 -8.09,1.55 21.35,21.35 0 0 1 -8.15,-1.51 20,20 0 0 1 -6.86,-4.71 20.58,20.58 0 0 1 -4.67,-6.82 21.23,21.23 0 0 1 -1.51,-8.120002 v -32.8 h 7.22 v 32.8 a 13.86,13.86 0 0 0 1,5.320002 14.15,14.15 0 0 0 3,4.49 13.77,13.77 0 0 0 9.85,4.1 13.74,13.74 0 0 0 5.28,-1 13.41,13.41 0 0 0 4.55,-3.1 13.68,13.68 0 0 0 3.16,-4.48 13.86,13.86 0 0 0 1,-5.320002 v -32.81 z"
           id="path49"
           style="fill:#231f20"
           transform="matrix(4.8295183,0,0,4.8295183,64.071865,340.4926)" /><path
           class="cls-1"
           d="m 149.67326,47.303708 h 7.15 v 53.420002 h -7.15 z"
           id="path50"
           style="fill:#231f20"
           transform="matrix(4.8295183,0,0,4.8295183,64.071865,340.4926)" /><path
           class="cls-1"
           d="M 164.01326,85.60371 V 47.303708 h 18.06 a 17.61,17.61 0 0 1 6.93,1.33 18.19,18.19 0 0 1 5.86,4 18.22,18.22 0 0 1 4,5.82 18.15,18.15 0 0 1 1.3,6.93 18,18 0 0 1 -1.3,6.94 18.22,18.22 0 0 1 -4,5.78 18.56,18.56 0 0 1 -5.9,4 18.34,18.34 0 0 1 -6.89,1.27 h -10.91 v 17.350002 h -7.15 z m 7.15,-9.310002 h 2.23 8.69 a 10.8,10.8 0 0 0 4.2,-0.79 11,11 0 0 0 3.56,-2.41 11.79,11.79 0 0 0 2.37,-3.56 10.12,10.12 0 0 0 0.83,-4.2 10.25,10.25 0 0 0 -0.83,-4.17 11.59,11.59 0 0 0 -2.37,-3.55 11,11 0 0 0 -3.52,-2.45 10.72,10.72 0 0 0 -4.25,-0.73 h -10.91 z"
           id="path51"
           style="fill:#231f20"
           transform="matrix(4.8295183,0,0,4.8295183,64.071865,340.4926)" /><text
           xml:space="preserve"
           style="font-style:normal;font-variant:normal;font-weight:normal;font-stretch:normal;font-size:55.216px;line-height:0.86;font-family:Stark;-inkscape-font-specification:'Stark, Normal';font-variant-ligatures:none;font-variant-caps:normal;font-variant-numeric:normal;font-variant-east-asian:normal;text-align:start;letter-spacing:-2.48472px;text-anchor:start;fill:#231f20;fill-opacity:1;stroke:none;stroke-width:0.696205;stroke-dasharray:none"
           x="57.262295"
           y="145.38176"
           id="text51"
           transform="matrix(4.863817,0,0,4.7954614,64.071865,340.4926)"><tspan
             sodipodi:role="line"
             id="tspan51"
             style="font-style:normal;font-variant:normal;font-weight:normal;font-stretch:normal;font-size:55.216px;font-family:Stark;-inkscape-font-specification:'Stark, Normal';font-variant-ligatures:none;font-variant-caps:normal;font-variant-numeric:normal;font-variant-east-asian:normal;text-align:start;letter-spacing:-2.48472px;text-anchor:start;fill:#231f20;fill-opacity:1;stroke:none;stroke-width:0.696205;stroke-dasharray:none"
             x="57.262295"
             y="145.38176">extra</tspan></text><path
           class="cls-1"
           d="m 67.933255,88.57371 c -0.48513,0.0485 -0.97245,0.0719 -1.46,0.07 -6.78382,0.01 -12.69106,-4.629734 -14.28836,-11.222181 -1.59728,-6.592387 1.53153,-13.419832 7.56724,-16.516373 13.71487,-7.036224 27.62709,9.121667 18.61112,21.638552 l -0.57,-1 c 7.94868,-11.766014 -5.13866,-26.315804 -17.67616,-19.670489 -12.53749,6.645314 -7.84313,25.643681 6.35616,25.670491 h 0.91 z m 5.87,10.47 c -12.71965,3.75136 -26.23633,-2.59721 -31.46976,-14.778782 -5.23331,-12.18129 -0.53078,-26.34839 10.94472,-32.993234 11.47551,-6.644844 26.10345,-3.670973 34.06307,6.931656 7.95981,10.602876 6.73732,25.48611 -2.84803,34.65036 l 1,1.69 8.29,-4.78 V 58.213708 l -27.31,-15.78 -27.33,15.78 V 89.76371 l 27.33,15.77 8.28,-4.78 z m -1.68,-3 c -11.04929,2.85418 -22.50928,-2.8894 -26.83434,-13.447483 -4.32498,-10.557866 -0.18582,-22.684994 9.68926,-28.403613 9.87508,-5.718618 22.45351,-3.272583 29.45799,5.733595 7.00462,9.006362 6.2822,21.804724 -1.69291,29.967501 l 0.82,1.38 c 8.70158,-8.604345 9.65799,-22.333365 2.23492,-32.058803 -7.42292,-9.725226 -20.91365,-12.418512 -31.50856,-6.296131 -10.5949,6.122382 -14.99783,19.155723 -10.27834,30.443155 4.71959,11.287679 17.0921,17.314429 28.89198,14.071779 z M 100.81942,127.77865 76.143255,81.873708 c -0.16,-0.213333 -0.16,-0.506667 0,-0.72 6.04829,-8.083864 0.0186,-19.568424 -10.07,-19.18 l 4.46,7.74 c 1.55954,2.705922 0.62787,6.163846 -2.08,7.72 -0.85935,0.489596 -1.83097,0.748005 -2.82,0.75 -2.01698,0.002 -3.88151,-1.073239 -4.89,-2.82 l -4.47,-7.74 c -5.02552,8.00564 0.74774,18.408822 10.2,18.380002 0.45,0 0.9,0 1.35,-0.07 0.27478,-0.0307 0.53494,0.13037 0.63,0.39 l 27.74143,44.60054 c 3.74287,4.75033 6.949995,2.46238 4.624735,-3.1456 z"
           id="path52"
           sodipodi:nodetypes="ccssccsccccssscccccccccccsssccssscccccccccccccccc"
           style="fill:#231f20"
           transform="matrix(4.8295183,0,0,4.8295183,64.071865,340.4926)" /></g></clipPath></defs><g
     inkscape:label="Layer 1"
     inkscape:groupmode="layer"
     id="layer1"><g
       id="g34"
       inkscape:groupmode="layer"><rect
         style="display:inline;fill:url(#linearGradient1);fill-opacity:1;stroke:none;stroke-width:0.691994;stroke-dasharray:none"
         id="rect6"
         width="208.75298"
         height="108.53823"
         x="-2.9455998"
         y="41.032295"
         transform="matrix(4.8295183,0,0,4.8295183,1423.9035,345.04053)"
         clip-path="url(#clipPath48)" /></g><rect
       style="fill:url(#linearGradient27);fill-opacity:1;stroke:none;stroke-width:3.342;stroke-dasharray:none"
       id="rect22"
       width="1080"
       height="1080"
       x="108.96918"
       y="320.35812"
       clip-path="none"
       inkscape:export-filename="equip_extra.png"
       inkscape:export-xdpi="96"
       inkscape:export-ydpi="96" /><g
       id="g27"
       transform="matrix(0.90298746,0,0,0.90298746,147.95348,145.60193)"
       style="fill:#ffffff;fill-opacity:1"
       inkscape:label="light"><path
         class="cls-1"
         d="m 33.333255,47.303708 v 7.13 h -23.14 v 16.1 h 17.35 v 7.08 h -17.35 V 93.71371 h 23.14 v 7.08 H 3.0732585 V 47.303708 Z"
         id="path23"
         style="fill:#ffffff;fill-opacity:1"
         transform="matrix(4.8295183,0,0,4.8295183,64.071865,340.4926)" /><path
         class="cls-1"
         d="m 142.49326,47.303708 v 32.84 a 21.23,21.23 0 0 1 -1.51,8.120002 21.35,21.35 0 0 1 -4.67,6.82 v 0 a 21,21 0 0 1 -6.86,4.63 20.79,20.79 0 0 1 -8.09,1.55 21.35,21.35 0 0 1 -8.15,-1.51 20,20 0 0 1 -6.86,-4.71 20.58,20.58 0 0 1 -4.67,-6.82 21.23,21.23 0 0 1 -1.51,-8.120002 v -32.8 h 7.22 v 32.8 a 13.86,13.86 0 0 0 1,5.320002 14.15,14.15 0 0 0 3,4.49 13.77,13.77 0 0 0 9.85,4.1 13.74,13.74 0 0 0 5.28,-1 13.41,13.41 0 0 0 4.55,-3.1 13.68,13.68 0 0 0 3.16,-4.48 13.86,13.86 0 0 0 1,-5.320002 v -32.81 z"
         id="path24"
         style="fill:#ffffff;fill-opacity:1"
         transform="matrix(4.8295183,0,0,4.8295183,64.071865,340.4926)" /><path
         class="cls-1"
         d="m 149.67326,47.303708 h 7.15 v 53.420002 h -7.15 z"
         id="path25"
         style="fill:#ffffff;fill-opacity:1"
         transform="matrix(4.8295183,0,0,4.8295183,64.071865,340.4926)" /><path
         class="cls-1"
         d="M 164.01326,85.60371 V 47.303708 h 18.06 a 17.61,17.61 0 0 1 6.93,1.33 18.19,18.19 0 0 1 5.86,4 18.22,18.22 0 0 1 4,5.82 18.15,18.15 0 0 1 1.3,6.93 18,18 0 0 1 -1.3,6.94 18.22,18.22 0 0 1 -4,5.78 18.56,18.56 0 0 1 -5.9,4 18.34,18.34 0 0 1 -6.89,1.27 h -10.91 v 17.350002 h -7.15 z m 7.15,-9.310002 h 2.23 8.69 a 10.8,10.8 0 0 0 4.2,-0.79 11,11 0 0 0 3.56,-2.41 11.79,11.79 0 0 0 2.37,-3.56 10.12,10.12 0 0 0 0.83,-4.2 10.25,10.25 0 0 0 -0.83,-4.17 11.59,11.59 0 0 0 -2.37,-3.55 11,11 0 0 0 -3.52,-2.45 10.72,10.72 0 0 0 -4.25,-0.73 h -10.91 z"
         id="path26"
         style="fill:#ffffff;fill-opacity:1"
         transform="matrix(4.8295183,0,0,4.8295183,64.071865,340.4926)" /><path
         id="text26"
         style="font-style:normal;font-variant:normal;font-weight:normal;font-stretch:normal;font-size:55.216px;line-height:0.86;font-family:Stark;-inkscape-font-specification:'Stark, Normal';font-variant-ligatures:none;font-variant-caps:normal;font-variant-numeric:normal;font-variant-east-asian:normal;text-align:start;letter-spacing:-2.48472px;text-anchor:start;fill:#ffffff;fill-opacity:1;stroke:none;stroke-width:0.696205;stroke-dasharray:none"
         d="M 113.03021 103.96992 L 113.03021 133.62058 C 113.03021 136.87832 114.19013 139.69471 116.45398 141.95856 C 118.71784 144.22242 121.47841 145.38198 124.73615 145.38198 L 124.73615 139.86031 C 123.02446 139.86031 121.5888 139.25285 120.37405 138.0381 C 119.1593 136.82335 118.5521 135.33228 118.5521 133.62058 L 118.5521 123.29531 L 124.07354 123.29531 L 124.07354 117.77364 L 118.5521 117.77364 L 118.5521 103.96992 L 113.03021 103.96992 z M 73.826877 117.77364 C 70.016977 117.77364 66.759642 119.09903 64.054061 121.80461 C 61.34848 124.51019 60.023263 127.76791 60.023263 131.57781 C 60.023263 135.38771 61.34848 138.64543 64.054061 141.35101 C 66.759642 144.05659 70.016977 145.38198 73.826877 145.38198 C 77.636777 145.38198 80.894557 144.05659 83.600138 141.35101 L 79.680072 137.43054 C 78.07881 139.03181 76.090731 139.86031 73.826877 139.86031 C 71.563024 139.86031 69.575389 139.03181 67.974127 137.43054 C 67.090672 136.54709 66.428028 135.49818 65.9863 134.33864 L 87.410363 134.33864 C 88.349034 129.53486 87.078743 125.33843 83.600138 121.80461 C 80.894557 119.09903 77.636777 117.77364 73.826877 117.77364 z M 87.907097 117.77364 L 95.803262 131.57781 L 87.851954 145.38198 L 94.201883 145.38198 L 98.950433 137.09948 L 103.69898 145.38198 L 109.99377 145.38198 L 102.0976 131.57781 L 109.99377 117.77364 L 103.69898 117.77364 L 98.950433 126.11117 L 94.14674 117.77364 L 87.907097 117.77364 z M 127.77304 117.77364 L 127.77304 145.38198 L 133.29448 145.38198 L 133.29448 131.57781 C 133.29448 129.31396 134.12308 127.32634 135.72435 125.72508 C 137.32561 124.12381 139.31324 123.29531 141.5771 123.29531 L 141.5771 117.77364 C 138.54022 117.77364 135.7792 118.71235 133.29448 120.53447 L 130.53376 117.77364 L 127.77304 117.77364 z M 155.10499 117.77364 C 151.29509 117.77364 148.03731 119.09903 145.33173 121.80461 C 142.62615 124.51019 141.30093 127.76791 141.30093 131.57781 C 141.30093 135.38771 142.62615 138.64543 145.33173 141.35101 C 148.03731 144.05659 151.29509 145.38198 155.10499 145.38198 C 158.19709 145.38198 160.95766 144.44327 163.38716 142.62115 L 166.14833 145.38198 L 168.90905 145.38198 L 168.90905 117.77364 L 163.38716 117.77364 L 163.38716 120.53447 C 160.90244 118.71235 158.14187 117.77364 155.10499 117.77364 z M 73.826877 123.29531 C 76.090731 123.29531 78.07881 124.12381 79.680072 125.72508 C 80.618743 126.66375 81.281388 127.65744 81.667899 128.81698 L 65.9863 128.81698 C 66.428028 127.65744 67.090672 126.66375 67.974127 125.72508 C 69.575389 124.12381 71.563024 123.29531 73.826877 123.29531 z M 155.10499 123.29531 C 157.36885 123.29531 159.35648 124.12381 160.95774 125.72508 C 162.55901 127.32634 163.38716 129.31396 163.38716 131.57781 C 163.38716 133.84166 162.55901 135.82928 160.95774 137.43054 C 159.35648 139.03181 157.36885 139.86031 155.10499 139.86031 C 152.84114 139.86031 150.85351 139.03181 149.25224 137.43054 C 147.65098 135.82928 146.82238 133.84166 146.82238 131.57781 C 146.82238 129.31396 147.65098 127.32634 149.25224 125.72508 C 150.85351 124.12381 152.84114 123.29531 155.10499 123.29531 z "
         transform="matrix(4.863817,0,0,4.7954614,64.071865,340.4926)" /><path
         class="cls-1"
         d="m 67.933255,88.57371 c -0.48513,0.0485 -0.97245,0.0719 -1.46,0.07 -6.78382,0.01 -12.69106,-4.629734 -14.28836,-11.222181 -1.59728,-6.592387 1.53153,-13.419832 7.56724,-16.516373 13.71487,-7.036224 27.62709,9.121667 18.61112,21.638552 l -0.57,-1 c 7.94868,-11.766014 -5.13866,-26.315804 -17.67616,-19.670489 -12.53749,6.645314 -7.84313,25.643681 6.35616,25.670491 h 0.91 z m 5.87,10.47 c -12.71965,3.75136 -26.23633,-2.59721 -31.46976,-14.778782 -5.23331,-12.18129 -0.53078,-26.34839 10.94472,-32.993234 11.47551,-6.644844 26.10345,-3.670973 34.06307,6.931656 7.95981,10.602876 6.73732,25.48611 -2.84803,34.65036 l 1,1.69 8.29,-4.78 V 58.213708 l -27.31,-15.78 -27.33,15.78 V 89.76371 l 27.33,15.77 8.28,-4.78 z m -1.68,-3 c -11.04929,2.85418 -22.50928,-2.8894 -26.83434,-13.447483 -4.32498,-10.557866 -0.18582,-22.684994 9.68926,-28.403613 9.87508,-5.718618 22.45351,-3.272583 29.45799,5.733595 7.00462,9.006362 6.2822,21.804724 -1.69291,29.967501 l 0.82,1.38 c 8.70158,-8.604345 9.65799,-22.333365 2.23492,-32.058803 -7.42292,-9.725226 -20.91365,-12.418512 -31.50856,-6.296131 -10.5949,6.122382 -14.99783,19.155723 -10.27834,30.443155 4.71959,11.287679 17.0921,17.314429 28.89198,14.071779 z M 100.81942,127.77865 76.143255,81.873708 c -0.16,-0.213333 -0.16,-0.506667 0,-0.72 6.04829,-8.083864 0.0186,-19.568424 -10.07,-19.18 l 4.46,7.74 c 1.55954,2.705922 0.62787,6.163846 -2.08,7.72 -0.85935,0.489596 -1.83097,0.748005 -2.82,0.75 -2.01698,0.002 -3.88151,-1.073239 -4.89,-2.82 l -4.47,-7.74 c -5.02552,8.00564 0.74774,18.408822 10.2,18.380002 0.45,0 0.9,0 1.35,-0.07 0.27478,-0.0307 0.53494,0.13037 0.63,0.39 l 27.74143,44.60054 c 3.74287,4.75033 6.949995,2.46238 4.624735,-3.1456 z"
         id="path27"
         sodipodi:nodetypes="ccssccsccccssscccccccccccsssccssscccccccccccccccc"
         style="fill:#ffffff;fill-opacity:1"
         transform="matrix(4.8295183,0,0,4.8295183,64.071865,340.4926)" /></g><g
       id="g33"
       data-name="Layer 1"
       transform="matrix(4.8295183,0,0,4.8295183,418.81061,1995.9398)"
       style="stroke:none;stroke-width:1.0001;stroke-dasharray:none"
       inkscape:label="dark"><path
         class="cls-1"
         d="m 34.921151,-63.049629 v 7.13 h -23.14 v 16.1 h 17.35 v 7.08 h -17.35 v 16.1 h 23.14 v 7.0800004 h -30.26 V -63.049629 Z"
         id="path28"
         style="stroke:none;stroke-width:1.0001;stroke-dasharray:none" /><path
         class="cls-1"
         d="m 144.08115,-63.049629 v 32.84 a 21.23,21.23 0 0 1 -1.51,8.12 21.35,21.35 0 0 1 -4.67,6.82 v 0 a 21,21 0 0 1 -6.86,4.63 20.79,20.79 0 0 1 -8.09,1.5500004 21.35,21.35 0 0 1 -8.15,-1.5100004 20,20 0 0 1 -6.86,-4.71 20.58,20.58 0 0 1 -4.67,-6.82 21.23,21.23 0 0 1 -1.51,-8.12 v -32.8 h 7.22 v 32.8 a 13.86,13.86 0 0 0 1,5.32 14.15,14.15 0 0 0 3,4.49 13.77,13.77 0 0 0 9.85,4.1 13.74,13.74 0 0 0 5.28,-1 13.41,13.41 0 0 0 4.55,-3.1 13.68,13.68 0 0 0 3.16,-4.48 13.86,13.86 0 0 0 1,-5.32 v -32.81 z"
         id="path29"
         style="stroke:none;stroke-width:1.0001;stroke-dasharray:none" /><path
         class="cls-1"
         d="m 151.26115,-63.049629 h 7.15 v 53.4200004 h -7.15 z"
         id="path30"
         style="stroke:none;stroke-width:1.0001;stroke-dasharray:none" /><path
         class="cls-1"
         d="m 165.60115,-24.749629 v -38.3 h 18.06 a 17.61,17.61 0 0 1 6.93,1.33 18.19,18.19 0 0 1 5.86,4 18.22,18.22 0 0 1 4,5.82 18.15,18.15 0 0 1 1.3,6.93 18,18 0 0 1 -1.3,6.94 18.22,18.22 0 0 1 -4,5.78 18.56,18.56 0 0 1 -5.9,4 18.34,18.34 0 0 1 -6.89,1.27 h -10.91 v 17.3500004 h -7.15 z m 7.15,-9.31 h 2.23 8.69 a 10.8,10.8 0 0 0 4.2,-0.79 11,11 0 0 0 3.56,-2.41 11.79,11.79 0 0 0 2.37,-3.56 10.12,10.12 0 0 0 0.83,-4.2 10.25,10.25 0 0 0 -0.83,-4.17 11.59,11.59 0 0 0 -2.37,-3.55 11,11 0 0 0 -3.52,-2.45 10.72,10.72 0 0 0 -4.25,-0.73 h -10.91 z"
         id="path31"
         style="stroke:none;stroke-width:1.0001;stroke-dasharray:none" /><path
         id="text32"
         style="font-style:normal;font-variant:normal;font-weight:normal;font-stretch:normal;font-size:55.216px;line-height:0.86;font-family:Stark;-inkscape-font-specification:'Stark, Normal';font-variant-ligatures:none;font-variant-caps:normal;font-variant-numeric:normal;font-variant-east-asian:normal;text-align:start;letter-spacing:-2.48472px;text-anchor:start;fill:#231f20;fill-opacity:1;stroke:none;stroke-width:1.0001;stroke-dasharray:none"
         d="M 114.60704 -7.1674939 L 114.60704 22.483752 C 114.60704 25.741493 115.7665 28.557453 118.03036 30.821307 C 120.29421 33.08516 123.05524 34.244547 126.31298 34.244547 L 126.31298 28.722968 C 124.60128 28.722968 123.16556 28.115928 121.95081 26.901177 C 120.73606 25.686427 120.12852 24.195446 120.12852 22.483752 L 120.12852 12.158234 L 125.6504 12.158234 L 125.6504 6.6366554 L 120.12852 6.6366554 L 120.12852 -7.1674939 L 114.60704 -7.1674939 z M 75.403728 6.6366554 C 71.593828 6.6366554 68.336089 7.961985 65.630507 10.667566 C 62.924926 13.373148 61.599626 16.630904 61.599626 20.440805 C 61.599626 24.250705 62.924926 27.508462 65.630507 30.214043 C 68.336089 32.919624 71.593828 34.244547 75.403728 34.244547 C 79.213628 34.244547 82.471367 32.919624 85.176948 30.214043 L 81.256497 26.293506 C 79.655234 27.894769 77.667581 28.722968 75.403728 28.722968 C 73.139874 28.722968 71.152221 27.894769 69.550959 26.293506 C 68.667504 25.410051 68.004954 24.360925 67.563226 23.20139 L 88.98697 23.20139 C 89.925641 18.397603 88.655553 14.201387 85.176948 10.667566 C 82.471367 7.961985 79.213628 6.6366554 75.403728 6.6366554 z M 89.483703 6.6366554 L 97.37962 20.440805 L 89.428689 34.244547 L 95.778591 34.244547 L 100.52706 25.962383 L 105.27554 34.244547 L 111.57043 34.244547 L 103.67451 20.440805 L 111.57043 6.6366554 L 105.27554 6.6366554 L 100.52706 14.97421 L 95.723176 6.6366554 L 89.483703 6.6366554 z M 129.34999 6.6366554 L 129.34999 34.244547 L 134.87147 34.244547 L 134.87147 20.440805 C 134.87147 18.176951 135.69966 16.188958 137.30092 14.587695 C 138.90219 12.986433 140.88984 12.158234 143.15369 12.158234 L 143.15369 6.6366554 C 140.11682 6.6366554 137.35619 7.575522 134.87147 9.3976481 L 132.11073 6.6366554 L 129.34999 6.6366554 z M 156.68152 6.6366554 C 152.87162 6.6366554 149.61388 7.961985 146.9083 10.667566 C 144.20272 13.373148 142.87782 16.630904 142.87782 20.440805 C 142.87782 24.250705 144.20272 27.508462 146.9083 30.214043 C 149.61388 32.919624 152.87162 34.244547 156.68152 34.244547 C 159.77361 34.244547 162.53464 33.306087 164.96414 31.483961 L 167.72488 34.244547 L 170.48562 34.244547 L 170.48562 6.6366554 L 164.96414 6.6366554 L 164.96414 9.3976481 C 162.47942 7.575522 159.7184 6.6366554 156.68152 6.6366554 z M 75.403728 12.158234 C 77.667581 12.158234 79.655234 12.986433 81.256497 14.587695 C 82.195168 15.526367 82.858119 16.520277 83.244631 17.679812 L 67.563226 17.679812 C 68.004954 16.520277 68.667504 15.526367 69.550959 14.587695 C 71.152221 12.986433 73.139874 12.158234 75.403728 12.158234 z M 156.68152 12.158234 C 158.94537 12.158234 160.93343 12.986433 162.53469 14.587695 C 164.13595 16.188958 164.96414 18.176951 164.96414 20.440805 C 164.96414 22.704658 164.13595 24.692244 162.53469 26.293506 C 160.93343 27.894769 158.94537 28.722968 156.68152 28.722968 C 154.41767 28.722968 152.43001 27.894769 150.82875 26.293506 C 149.22749 24.692244 148.3993 22.704658 148.3993 20.440805 C 148.3993 18.176951 149.22749 16.188958 150.82875 14.587695 C 152.43001 12.986433 154.41767 12.158234 156.68152 12.158234 z "
         transform="scale(1.0071019,0.99294819)" /><path
         class="cls-1"
         d="m 69.521151,-21.779629 c -0.485133,0.04851 -0.972452,0.07187 -1.46,0.07 -6.783824,0.01 -12.691065,-4.629732 -14.288364,-11.222179 -1.597284,-6.592387 1.531527,-13.419832 7.567244,-16.516373 13.71487,-7.036224 27.627092,9.121667 18.61112,21.638552 l -0.57,-1 c 7.948673,-11.766014 -5.138667,-26.315804 -17.676161,-19.670489 -12.537493,6.645314 -7.843127,25.643677 6.356161,25.670489 h 0.91 z m 5.87,10.47 c -12.719651,3.7513664 -26.236335,-2.597206 -31.469767,-14.77878 -5.23331,-12.18129 -0.530778,-26.34839 10.944728,-32.993234 11.475506,-6.644844 26.103446,-3.670973 34.06307,6.931656 7.959809,10.602876 6.737313,25.48611 -2.848031,34.650358 l 1,1.69 8.29,-4.78 v -31.55 l -27.31,-15.78 -27.33,15.78 v 31.55 l 27.33,15.7700004 8.28,-4.78 z m -1.68,-3 c -11.049293,2.854181 -22.509279,-2.8894 -26.834347,-13.447481 -4.32498,-10.557866 -0.185813,-22.684994 9.689265,-28.403613 9.875077,-5.718618 22.453506,-3.272583 29.457986,5.733595 7.004623,9.006362 6.282204,21.804724 -1.692904,29.967499 l 0.82,1.38 c 8.701574,-8.604343 9.657987,-22.333363 2.234913,-32.058801 -7.422913,-9.725225 -20.91365,-12.418512 -31.508551,-6.296131 -10.5949,6.122382 -14.99783,19.155723 -10.278344,30.443155 4.719589,11.287678 17.092096,17.3144324 28.891982,14.071777 z M 102.40731,17.425317 77.731151,-28.479629 c -0.16,-0.213333 -0.16,-0.506667 0,-0.72 6.048292,-8.083864 0.0186,-19.568424 -10.07,-19.18 l 4.46,7.74 c 1.559538,2.705922 0.627869,6.163846 -2.08,7.72 -0.859351,0.489596 -1.830968,0.748005 -2.82,0.75 -2.016984,0.002 -3.881508,-1.073239 -4.89,-2.82 l -4.47,-7.74 c -5.025521,8.00564 0.747736,18.408822 10.2,18.38 0.45,0 0.9,0 1.35,-0.07 0.274774,-0.03068 0.534939,0.130375 0.63,0.39 l 27.741431,44.600545 c 3.742868,4.750328 6.949988,2.462376 4.624728,-3.145599 z"
         id="path33"
         sodipodi:nodetypes="ccssccsccccssscccccccccccsssccssscccccccccccccccc"
         style="stroke:none;stroke-width:1.0001;stroke-dasharray:none" /></g></g></svg>
